<svg width="722" height="2901" viewBox="0 0 722 2901" fill="none" xmlns="http://www.w3.org/2000/svg">
<path d="M450.339 1531.94H269.838V2901H450.339V1531.94Z" fill="#8000FF"/>
<path d="M382.937 1721.88C380.448 1725.9 377.056 1729.21 373.068 1731.5C369.079 1733.78 364.619 1734.98 360.088 1734.98C355.557 1734.98 351.096 1733.78 347.108 1731.5C343.12 1729.21 339.728 1725.9 337.238 1721.88L232.072 1551.81C229.359 1547.43 227.812 1542.34 227.596 1537.09C227.381 1531.85 228.504 1526.64 230.846 1522.02C233.189 1517.4 236.664 1513.54 240.903 1510.85C245.142 1508.16 249.986 1506.73 254.923 1506.74H465.255C470.19 1506.74 475.033 1508.16 479.271 1510.85C483.509 1513.54 486.983 1517.4 489.325 1522.02C491.668 1526.64 492.791 1531.85 492.576 1537.09C492.361 1542.34 490.815 1547.42 488.103 1551.81L382.937 1721.88Z" fill="#8000FF"/>
<path d="M432.106 1175.14H286.247C251.004 1175.14 222.434 1205.52 222.434 1243.01V1518.37C222.434 1555.86 251.004 1586.24 286.247 1586.24H432.106C467.349 1586.24 495.919 1555.86 495.919 1518.37V1243.01C495.919 1205.52 467.349 1175.14 432.106 1175.14Z" fill="#8000FF"/>
<path d="M361.001 1462.13L129.45 1142.17H592.551L361.001 1462.13Z" fill="#8000FF"/>
<path d="M630.839 1109.21H87.5154V1128.6H630.839V1109.21Z" fill="#8000FF"/>
<path d="M130.361 1095.63L83.8688 1052.97H176.854L130.361 1095.63Z" fill="#8000FF"/>
<path d="M593.462 1095.63L546.969 1052.97H639.954L593.462 1095.63Z" fill="#8000FF"/>
<path d="M592.551 1052.97H129.449V1095.63H592.551V1052.97Z" fill="#8000FF"/>
<path d="M722 1023.88H0V1039.4H722V1023.88Z" fill="#8000FF"/>
<path d="M185.058 963.768L282.601 1006.43H87.5154L185.058 963.768Z" fill="#8000FF"/>
<path d="M542.411 963.768L639.954 1006.43H444.868L542.411 963.768Z" fill="#8000FF"/>
<path d="M543.323 963.768H184.146V1006.43H543.323V963.768Z" fill="#8000FF"/>
<path d="M246.136 845.479L306.303 952.133H185.969L246.136 845.479Z" fill="#8000FF"/>
<path d="M483.156 845.479L543.323 952.133H422.99L483.156 845.479Z" fill="#8000FF"/>
<path d="M483.157 845.479H246.136V952.133H483.157V845.479Z" fill="#8000FF"/>
<path d="M309.95 626.352L373.763 835.783H246.136L309.95 626.352Z" fill="#8000FF"/>
<path d="M419.343 626.352L483.156 835.783H355.53L419.343 626.352Z" fill="#8000FF"/>
<path d="M419.343 626.352H309.949V808.634H419.343V626.352Z" fill="#8000FF"/>
<path d="M418.432 614.718L399.288 568.177H437.576L418.432 614.718Z" fill="#8000FF"/>
<path d="M312.684 614.718L293.54 568.177H331.828L312.684 614.718Z" fill="#8000FF"/>
<path d="M419.343 568.177H311.773V614.717H419.343V568.177Z" fill="#8000FF"/>
<path d="M365.558 397.53L419.343 556.542H311.773L365.558 397.53Z" fill="#8000FF"/>
<path d="M365.559 477.036L322.713 430.496H408.405L365.559 477.036Z" fill="#8000FF"/>
<path d="M365.558 0L382.879 430.496H348.237L365.558 0Z" fill="#8000FF"/>
<path d="M271.662 2631.46L320.889 2901H222.434L271.662 2631.46Z" fill="#8000FF"/>
<path d="M450.339 2631.46L499.566 2901H401.112L450.339 2631.46Z" fill="#8000FF"/>
</svg>
