<svg width="207" height="238" viewBox="0 0 207 238" fill="none" xmlns="http://www.w3.org/2000/svg">
<path d="M31.1402 15.5701V208.343L0 120.304L31.1402 15.5701Z" fill="currentColor"/>
<path d="M171.271 15.5701V208.343L140.131 120.304L171.271 15.5701Z" fill="currentColor"/>
<path d="M175.719 15.5701V208.343L206.86 121.149L175.719 15.5701Z" fill="currentColor"/>
<path d="M35.5888 15.5701V208.343L66.729 121.149L35.5888 15.5701Z" fill="currentColor"/>
<rect x="114.106" y="79.3333" width="67.4704" height="9.63863" transform="rotate(32.0529 114.106 79.3333)" fill="currentColor"/>
<rect x="98.8394" y="87.6807" width="67.4704" height="9.63863" transform="rotate(150 98.8394 87.6807)" fill="currentColor"/>
<path d="M201.568 162.374L203.404 176.769L189.286 170.103L186.823 149.257L201.568 162.374Z" fill="currentColor"/>
<path d="M4.19471 162.107L2.22441 176.461L17.3761 169.814L20.0188 149.028L4.19471 162.107Z" fill="currentColor"/>
<path d="M121.224 172.383L144.209 166.081L167.193 159.779L169.047 164.598L106.456 196.294L121.224 172.383Z" fill="currentColor"/>
<path d="M85.5735 172.205L62.9752 165.806L40.377 159.408L38.5546 164.301L100.094 196.48L85.5735 172.205Z" fill="currentColor"/>
<ellipse cx="103.43" cy="109.732" rx="30.7695" ry="88.972" fill="currentColor"/>
<ellipse cx="33.3645" cy="117.888" rx="8.8972" ry="45.2274" fill="currentColor"/>
<ellipse cx="173.495" cy="117.888" rx="8.8972" ry="45.2274" fill="currentColor"/>
<path d="M113.804 237.828L113.074 183.38L125.264 184.595L113.804 237.828Z" fill="currentColor"/>
<path d="M92.6213 238L93.4207 183.134L80.0749 184.358L92.6213 238Z" fill="currentColor"/>
<ellipse cx="67.219" cy="139.342" rx="36.3302" ry="23.3666" transform="rotate(19.2934 67.219 139.342)" fill="currentColor"/>
<ellipse cx="135.728" cy="140.165" rx="36.3302" ry="23.3666" transform="rotate(-21.1056 135.728 140.165)" fill="currentColor"/>
<path d="M147.759 30.7695C147.759 47.763 142.78 61.5389 136.638 61.5389C130.496 61.5389 132.189 47.763 132.189 30.7695C132.189 13.776 130.496 0 136.638 0C142.78 0 147.759 13.776 147.759 30.7695Z" fill="currentColor"/>
<path d="M59.3147 30.7695C59.3147 47.763 64.2264 61.5389 70.2853 61.5389C76.3443 61.5389 74.6737 47.763 74.6737 30.7695C74.6737 13.776 76.3443 0 70.2853 0C64.2264 0 59.3147 13.776 59.3147 30.7695Z" fill="currentColor"/>
<path d="M91.3842 31.14L91.3843 50.788L65.9875 31.14V24.0964L91.3842 31.14Z" fill="currentColor"/>
<path d="M114.922 31.5109L114.922 51.1589L137.906 31.5109V24.4673L114.922 31.5109Z" fill="currentColor"/>
</svg>
