<svg width="248" height="323" viewBox="0 0 248 323" fill="none" xmlns="http://www.w3.org/2000/svg">
<path d="M78 125L125.5 82L173 125L155.861 315L125.5 291L95.1392 315L78 125Z" fill="currentColor"/>
<path d="M126.308 111.5L239.5 222V249L167.5 286H82.5L6 249V222L126.308 111.5Z" fill="currentColor"/>
<path d="M144 0L140 99L132 124.5L137 137.5L140 170L137 193.5L130 211.5V259.5L140 307.5L164.5 318L191 282V245.5L172.5 124.5L144 0Z" fill="#787878"/>
<path d="M106.689 0L110.492 99L118.098 124.5L113.344 137.5L110.492 170L113.344 193.5L120 211.5V259.5L110.492 307.5L87.1967 318L62 282V245.5L77 124.5L106.689 0Z" fill="#787878"/>
<ellipse cx="125.5" cy="162.5" rx="15.5" ry="54.5" fill="white"/>
<path d="M103.078 231.401L103.817 291.635L71.7392 315.5L71.7392 283L103.078 231.401Z" fill="#313131"/>
<path d="M148.783 231L148 291.163L182 315L182 282.538L148.783 231Z" fill="#313131"/>
<ellipse cx="5.5" cy="221.5" rx="5.5" ry="51.5" fill="currentColor"/>
<ellipse cx="242.5" cy="221.5" rx="5.5" ry="51.5" fill="currentColor"/>
</svg>
