<svg width="1460" height="340" viewBox="0 0 1460 340" fill="none" xmlns="http://www.w3.org/2000/svg">
<path d="M59.8322 165.763V138.107H178.917V165.763H136.195V279H102.623V165.763H59.8322ZM195.548 279V138.107H293.788V165.763H229.602V194.657H288.766V222.381H229.602V251.344H293.788V279H195.548ZM443.005 189.153H408.607C408.148 185.622 407.208 182.434 405.786 179.591C404.365 176.747 402.484 174.317 400.145 172.299C397.806 170.281 395.031 168.744 391.821 167.689C388.656 166.589 385.148 166.038 381.295 166.038C374.462 166.038 368.568 167.712 363.615 171.06C358.708 174.408 354.924 179.247 352.264 185.576C349.65 191.905 348.342 199.564 348.342 208.554C348.342 217.91 349.672 225.752 352.333 232.082C355.039 238.365 358.822 243.112 363.684 246.322C368.591 249.487 374.393 251.069 381.089 251.069C384.85 251.069 388.267 250.588 391.339 249.624C394.458 248.661 397.187 247.262 399.526 245.428C401.911 243.548 403.86 241.277 405.374 238.617C406.933 235.911 408.011 232.861 408.607 229.467L443.005 229.674C442.409 235.911 440.597 242.057 437.57 248.111C434.589 254.165 430.484 259.691 425.256 264.691C420.027 269.644 413.652 273.588 406.13 276.523C398.655 279.459 390.078 280.926 380.401 280.926C367.651 280.926 356.231 278.129 346.141 272.533C336.097 266.892 328.162 258.682 322.338 247.905C316.513 237.127 313.601 224.01 313.601 208.554C313.601 193.052 316.559 179.912 322.475 169.134C328.392 158.356 336.395 150.169 346.485 144.574C356.575 138.979 367.88 136.181 380.401 136.181C388.932 136.181 396.82 137.373 404.067 139.758C411.313 142.097 417.688 145.537 423.192 150.078C428.695 154.572 433.167 160.099 436.607 166.657C440.047 173.216 442.179 180.714 443.005 189.153ZM462.491 279V138.107H496.545V194.657H552.062V138.107H586.047V279H552.062V222.381H496.545V279H462.491ZM727.318 138.107V279H698.424L642.356 197.684H641.462V279H607.408V138.107H636.715L692.164 219.286H693.334V138.107H727.318ZM881.712 208.554C881.712 224.056 878.731 237.195 872.769 247.973C866.807 258.751 858.735 266.938 848.553 272.533C838.417 278.129 827.043 280.926 814.43 280.926C801.772 280.926 790.375 278.106 780.239 272.464C770.103 266.823 762.054 258.637 756.092 247.905C750.176 237.127 747.217 224.01 747.217 208.554C747.217 193.052 750.176 179.912 756.092 169.134C762.054 158.356 770.103 150.169 780.239 144.574C790.375 138.979 801.772 136.181 814.43 136.181C827.043 136.181 838.417 138.979 848.553 144.574C858.735 150.169 866.807 158.356 872.769 169.134C878.731 179.912 881.712 193.052 881.712 208.554ZM846.902 208.554C846.902 199.381 845.595 191.63 842.98 185.301C840.412 178.972 836.697 174.179 831.836 170.923C827.02 167.666 821.218 166.038 814.43 166.038C807.689 166.038 801.887 167.666 797.025 170.923C792.164 174.179 788.426 178.972 785.812 185.301C783.243 191.63 781.959 199.381 781.959 208.554C781.959 217.726 783.243 225.477 785.812 231.806C788.426 238.136 792.164 242.928 797.025 246.185C801.887 249.441 807.689 251.069 814.43 251.069C821.218 251.069 827.02 249.441 831.836 246.185C836.697 242.928 840.412 238.136 842.98 231.806C845.595 225.477 846.902 217.726 846.902 208.554ZM901.594 279V138.107H935.648V251.344H994.261V279H901.594ZM1139.38 208.554C1139.38 224.056 1136.4 237.195 1130.44 247.973C1124.48 258.751 1116.41 266.938 1106.23 272.533C1096.09 278.129 1084.72 280.926 1072.1 280.926C1059.44 280.926 1048.05 278.106 1037.91 272.464C1027.78 266.823 1019.73 258.637 1013.76 247.905C1007.85 237.127 1004.89 224.01 1004.89 208.554C1004.89 193.052 1007.85 179.912 1013.76 169.134C1019.73 158.356 1027.78 150.169 1037.91 144.574C1048.05 138.979 1059.44 136.181 1072.1 136.181C1084.72 136.181 1096.09 138.979 1106.23 144.574C1116.41 150.169 1124.48 158.356 1130.44 169.134C1136.4 179.912 1139.38 193.052 1139.38 208.554ZM1104.57 208.554C1104.57 199.381 1103.27 191.63 1100.65 185.301C1098.08 178.972 1094.37 174.179 1089.51 170.923C1084.69 167.666 1078.89 166.038 1072.1 166.038C1065.36 166.038 1059.56 167.666 1054.7 170.923C1049.84 174.179 1046.1 178.972 1043.48 185.301C1040.92 191.63 1039.63 199.381 1039.63 208.554C1039.63 217.726 1040.92 225.477 1043.48 231.806C1046.1 238.136 1049.84 242.928 1054.7 246.185C1059.56 249.441 1065.36 251.069 1072.1 251.069C1078.89 251.069 1084.69 249.441 1089.51 246.185C1094.37 242.928 1098.08 238.136 1100.65 231.806C1103.27 225.477 1104.57 217.726 1104.57 208.554ZM1251.73 184.131C1250.95 181.242 1249.8 178.696 1248.29 176.495C1246.77 174.248 1244.92 172.344 1242.72 170.785C1240.51 169.226 1237.99 168.056 1235.15 167.276C1232.3 166.451 1229.19 166.038 1225.79 166.038C1218.96 166.038 1213.04 167.689 1208.04 170.991C1203.09 174.294 1199.26 179.109 1196.55 185.438C1193.85 191.722 1192.49 199.358 1192.49 208.347C1192.49 217.382 1193.8 225.087 1196.42 231.462C1199.03 237.837 1202.81 242.699 1207.77 246.047C1212.72 249.395 1218.73 251.069 1225.79 251.069C1232.03 251.069 1237.3 250.06 1241.61 248.042C1245.97 245.978 1249.27 243.066 1251.52 239.305C1253.77 235.544 1254.89 231.118 1254.89 226.028L1261.22 226.784H1226.96V201.949H1287.71V220.593C1287.71 233.205 1285.02 244.006 1279.66 252.995C1274.34 261.985 1267 268.887 1257.64 273.703C1248.33 278.518 1237.62 280.926 1225.52 280.926C1212.08 280.926 1200.27 278.014 1190.09 272.189C1179.91 266.365 1171.97 258.063 1166.28 247.285C1160.6 236.462 1157.75 223.62 1157.75 208.76C1157.75 197.202 1159.47 186.952 1162.91 178.009C1166.35 169.019 1171.15 161.406 1177.29 155.169C1183.48 148.931 1190.64 144.207 1198.76 140.997C1206.92 137.786 1215.7 136.181 1225.1 136.181C1233.27 136.181 1240.86 137.351 1247.88 139.69C1254.94 142.029 1261.18 145.331 1266.59 149.596C1272.05 153.861 1276.47 158.929 1279.86 164.8C1283.26 170.67 1285.37 177.114 1286.19 184.131H1251.73ZM1294.71 138.107H1332.75L1362.54 197.065H1363.78L1393.57 138.107H1431.61L1380.08 231.944V279H1346.24V231.944L1294.71 138.107Z" fill="#D9D9D9"/>
<path d="M45.3322 165.763V138.107H164.417V165.763H121.695V279H88.1229V165.763H45.3322ZM181.048 279V138.107H279.288V165.763H215.102V194.657H274.266V222.381H215.102V251.344H279.288V279H181.048ZM428.505 189.153H394.107C393.648 185.622 392.708 182.434 391.286 179.591C389.865 176.747 387.984 174.317 385.645 172.299C383.306 170.281 380.531 168.744 377.321 167.689C374.156 166.589 370.648 166.038 366.795 166.038C359.962 166.038 354.068 167.712 349.115 171.06C344.208 174.408 340.424 179.247 337.764 185.576C335.15 191.905 333.842 199.564 333.842 208.554C333.842 217.91 335.172 225.752 337.833 232.082C340.539 238.365 344.322 243.112 349.184 246.322C354.091 249.487 359.893 251.069 366.589 251.069C370.35 251.069 373.767 250.588 376.839 249.624C379.958 248.661 382.687 247.262 385.026 245.428C387.411 243.548 389.36 241.277 390.874 238.617C392.433 235.911 393.511 232.861 394.107 229.467L428.505 229.674C427.909 235.911 426.097 242.057 423.07 248.111C420.089 254.165 415.984 259.691 410.756 264.691C405.527 269.644 399.152 273.588 391.63 276.523C384.155 279.459 375.578 280.926 365.901 280.926C353.151 280.926 341.731 278.129 331.641 272.533C321.597 266.892 313.662 258.682 307.838 247.905C302.013 237.127 299.101 224.01 299.101 208.554C299.101 193.052 302.059 179.912 307.975 169.134C313.892 158.356 321.895 150.169 331.985 144.574C342.075 138.979 353.38 136.181 365.901 136.181C374.432 136.181 382.32 137.373 389.567 139.758C396.813 142.097 403.188 145.537 408.692 150.078C414.195 154.572 418.667 160.099 422.107 166.657C425.547 173.216 427.679 180.714 428.505 189.153ZM447.991 279V138.107H482.045V194.657H537.562V138.107H571.547V279H537.562V222.381H482.045V279H447.991ZM712.818 138.107V279H683.924L627.856 197.684H626.962V279H592.908V138.107H622.215L677.664 219.286H678.834V138.107H712.818ZM867.212 208.554C867.212 224.056 864.231 237.195 858.269 247.973C852.307 258.751 844.235 266.938 834.053 272.533C823.917 278.129 812.543 280.926 799.93 280.926C787.272 280.926 775.875 278.106 765.739 272.464C755.603 266.823 747.554 258.637 741.592 247.905C735.676 237.127 732.717 224.01 732.717 208.554C732.717 193.052 735.676 179.912 741.592 169.134C747.554 158.356 755.603 150.169 765.739 144.574C775.875 138.979 787.272 136.181 799.93 136.181C812.543 136.181 823.917 138.979 834.053 144.574C844.235 150.169 852.307 158.356 858.269 169.134C864.231 179.912 867.212 193.052 867.212 208.554ZM832.402 208.554C832.402 199.381 831.095 191.63 828.48 185.301C825.912 178.972 822.197 174.179 817.336 170.923C812.52 167.666 806.718 166.038 799.93 166.038C793.189 166.038 787.387 167.666 782.525 170.923C777.664 174.179 773.926 178.972 771.312 185.301C768.743 191.63 767.459 199.381 767.459 208.554C767.459 217.726 768.743 225.477 771.312 231.806C773.926 238.136 777.664 242.928 782.525 246.185C787.387 249.441 793.189 251.069 799.93 251.069C806.718 251.069 812.52 249.441 817.336 246.185C822.197 242.928 825.912 238.136 828.48 231.806C831.095 225.477 832.402 217.726 832.402 208.554ZM887.094 279V138.107H921.148V251.344H979.761V279H887.094ZM1124.88 208.554C1124.88 224.056 1121.9 237.195 1115.94 247.973C1109.98 258.751 1101.91 266.938 1091.73 272.533C1081.59 278.129 1070.22 280.926 1057.6 280.926C1044.94 280.926 1033.55 278.106 1023.41 272.464C1013.28 266.823 1005.23 258.637 999.265 247.905C993.348 237.127 990.39 224.01 990.39 208.554C990.39 193.052 993.348 179.912 999.265 169.134C1005.23 158.356 1013.28 150.169 1023.41 144.574C1033.55 138.979 1044.94 136.181 1057.6 136.181C1070.22 136.181 1081.59 138.979 1091.73 144.574C1101.91 150.169 1109.98 158.356 1115.94 169.134C1121.9 179.912 1124.88 193.052 1124.88 208.554ZM1090.07 208.554C1090.07 199.381 1088.77 191.63 1086.15 185.301C1083.58 178.972 1079.87 174.179 1075.01 170.923C1070.19 167.666 1064.39 166.038 1057.6 166.038C1050.86 166.038 1045.06 167.666 1040.2 170.923C1035.34 174.179 1031.6 178.972 1028.98 185.301C1026.42 191.63 1025.13 199.381 1025.13 208.554C1025.13 217.726 1026.42 225.477 1028.98 231.806C1031.6 238.136 1035.34 242.928 1040.2 246.185C1045.06 249.441 1050.86 251.069 1057.6 251.069C1064.39 251.069 1070.19 249.441 1075.01 246.185C1079.87 242.928 1083.58 238.136 1086.15 231.806C1088.77 225.477 1090.07 217.726 1090.07 208.554ZM1237.23 184.131C1236.45 181.242 1235.3 178.696 1233.79 176.495C1232.27 174.248 1230.42 172.344 1228.22 170.785C1226.01 169.226 1223.49 168.056 1220.65 167.276C1217.8 166.451 1214.69 166.038 1211.29 166.038C1204.46 166.038 1198.54 167.689 1193.54 170.991C1188.59 174.294 1184.76 179.109 1182.05 185.438C1179.35 191.722 1177.99 199.358 1177.99 208.347C1177.99 217.382 1179.3 225.087 1181.92 231.462C1184.53 237.837 1188.31 242.699 1193.27 246.047C1198.22 249.395 1204.23 251.069 1211.29 251.069C1217.53 251.069 1222.8 250.06 1227.11 248.042C1231.47 245.978 1234.77 243.066 1237.02 239.305C1239.27 235.544 1240.39 231.118 1240.39 226.028L1246.72 226.784H1212.46V201.949H1273.21V220.593C1273.21 233.205 1270.52 244.006 1265.16 252.995C1259.84 261.985 1252.5 268.887 1243.14 273.703C1233.83 278.518 1223.12 280.926 1211.02 280.926C1197.58 280.926 1185.77 278.014 1175.59 272.189C1165.41 266.365 1157.47 258.063 1151.78 247.285C1146.1 236.462 1143.25 223.62 1143.25 208.76C1143.25 197.202 1144.97 186.952 1148.41 178.009C1151.85 169.019 1156.65 161.406 1162.79 155.169C1168.98 148.931 1176.14 144.207 1184.26 140.997C1192.42 137.786 1201.2 136.181 1210.6 136.181C1218.77 136.181 1226.36 137.351 1233.38 139.69C1240.44 142.029 1246.68 145.331 1252.09 149.596C1257.55 153.861 1261.97 158.929 1265.36 164.8C1268.76 170.67 1270.87 177.114 1271.69 184.131H1237.23ZM1280.21 138.107H1318.25L1348.04 197.065H1349.28L1379.07 138.107H1417.11L1365.58 231.944V279H1331.74V231.944L1280.21 138.107Z" fill="#7000FF"/>
<path d="M377.968 87.8C377.968 90.7867 377.947 93.1333 377.904 94.84H381.168L381.488 92.632C382.576 92.632 383.632 92.8987 384.656 93.432V99.768L382.544 99.928C382.032 99.16 381.733 98.488 381.648 97.912H377.872L377.808 103.928L380.976 104.28C380.976 105.112 380.731 106.019 380.24 107H371.504L371.216 105.24C372.603 104.707 373.499 104.397 373.904 104.312C373.883 103.053 373.861 101.283 373.84 99C373.755 93.88 373.68 90.008 373.616 87.384L370.96 86.552L371.216 84.6H386.928C386.992 85.176 387.024 85.912 387.024 86.808C387.024 87.6827 386.864 88.888 386.544 90.424C386.075 90.5733 385.36 90.648 384.4 90.648L383.696 90.616H383.536L382.8 87.8H377.968ZM396.773 84.6C400.507 84.6 402.981 85.1333 404.197 86.2C405.307 87.16 405.861 88.6427 405.861 90.648C405.861 93.7627 404.24 95.8853 400.997 97.016L405.605 103.96L408.357 104.248C408.357 105.165 408.112 106.083 407.621 107H402.981L396.709 97.432H395.685L395.589 103.96L397.925 104.216C397.925 105.091 397.68 106.019 397.189 107H389.285L388.997 105.24C390.277 104.728 391.173 104.419 391.685 104.312C391.643 101.688 391.589 98.52 391.525 94.808C391.461 91.096 391.419 88.6107 391.397 87.352L388.741 86.552C388.763 86.0613 388.859 85.4107 389.029 84.6H396.773ZM399.301 88.024C398.64 87.8747 397.755 87.8 396.645 87.8H395.749C395.707 90.744 395.685 92.952 395.685 94.424L397.253 94.392C398.512 94.3707 399.504 94.1147 400.229 93.624C400.976 93.112 401.349 92.1307 401.349 90.68C401.349 89.2293 400.667 88.344 399.301 88.024ZM419.341 103.992C422.883 103.992 424.653 101.272 424.653 95.832C424.653 90.392 422.883 87.672 419.341 87.672C417.805 87.672 416.461 87.9067 415.309 88.376C414.328 90.424 413.837 92.8027 413.837 95.512C413.837 98.2 414.243 100.291 415.053 101.784C415.864 103.256 417.293 103.992 419.341 103.992ZM419.341 84.216C422.904 84.216 425.411 85.1547 426.861 87.032C428.312 88.888 429.037 91.736 429.037 95.576C429.037 97.9867 428.728 100.045 428.109 101.752C427.491 103.459 426.445 104.824 424.973 105.848C423.501 106.872 421.624 107.384 419.341 107.384C415.864 107.384 413.336 106.413 411.757 104.472C410.2 102.531 409.421 99.704 409.421 95.992C409.421 88.1413 412.728 84.216 419.341 84.216ZM452.22 87.448L452.124 107H448.028L437.468 89.784C437.383 96.0347 437.329 100.749 437.308 103.928L439.516 104.216C439.516 105.091 439.271 106.019 438.78 107H431.004L430.716 105.24C431.911 104.749 432.807 104.44 433.404 104.312C433.404 104.248 433.308 98.6053 433.116 87.384L430.46 86.552L430.716 84.6H439.036L448.348 101.304L447.868 87.384L445.212 86.552L445.468 84.6H453.788C453.767 84.6 453.767 84.6213 453.788 84.664C453.831 84.7067 453.873 84.8027 453.916 84.952C453.98 85.08 454.044 85.24 454.108 85.432C454.236 85.7733 454.321 86.3387 454.364 87.128C453.276 87.2987 452.561 87.4053 452.22 87.448ZM455.777 90.424C455.436 88.952 455.265 87.7893 455.265 86.936C455.265 86.0827 455.297 85.304 455.361 84.6H473.953C474.038 85.624 474.081 86.3173 474.081 86.68C474.081 87.5973 473.91 88.8453 473.569 90.424C472.95 90.5947 471.937 90.68 470.529 90.68L469.793 87.448H467.073C467.052 88.2587 466.956 93.752 466.785 103.928L469.089 104.216C469.089 105.197 468.844 106.125 468.353 107H460.577L460.289 105.24C461.761 104.685 462.689 104.376 463.073 104.312C463.073 104.227 462.945 98.616 462.689 87.48H459.521L458.817 90.616C457.558 90.616 456.545 90.552 455.777 90.424ZM482.468 87.8C482.468 90.232 482.447 92.3227 482.404 94.072H485.668L485.988 91.864C487.076 91.864 488.132 92.1307 489.156 92.664V99.064L487.044 99.16C486.532 98.392 486.233 97.72 486.148 97.144H482.372C482.329 100.131 482.308 102.381 482.308 103.896H487.78L488.484 101.112C489.807 101.112 490.809 101.176 491.492 101.304C491.812 102.52 491.972 103.629 491.972 104.632C491.972 105.613 491.94 106.403 491.876 107H476.004L475.716 105.24C477.103 104.707 477.999 104.397 478.404 104.312C478.383 103.053 478.361 101.283 478.34 99C478.255 93.88 478.18 90.008 478.116 87.384L475.46 86.552L475.716 84.6H491.428C491.492 85.176 491.524 85.9013 491.524 86.776C491.524 87.6293 491.364 88.824 491.044 90.36C490.383 90.5733 489.38 90.68 488.036 90.68L487.3 87.8H482.468ZM516.251 87.448L516.155 107H512.059L501.499 89.784C501.414 96.0347 501.361 100.749 501.339 103.928L503.547 104.216C503.547 105.091 503.302 106.019 502.811 107H495.035L494.747 105.24C495.942 104.749 496.838 104.44 497.435 104.312C497.435 104.248 497.339 98.6053 497.147 87.384L494.491 86.552L494.747 84.6H503.067L512.379 101.304L511.899 87.384L509.243 86.552L509.499 84.6H517.819C517.798 84.6 517.798 84.6213 517.819 84.664C517.862 84.7067 517.905 84.8027 517.947 84.952C518.011 85.08 518.075 85.24 518.139 85.432C518.267 85.7733 518.353 86.3387 518.395 87.128C517.307 87.2987 516.593 87.4053 516.251 87.448ZM538.976 95.32C538.976 100.013 537.856 103.277 535.616 105.112C534.699 105.837 533.707 106.339 532.64 106.616C531.574 106.872 530.176 107 528.448 107H520.16L519.872 105.24C521.494 104.643 522.39 104.333 522.56 104.312C522.56 104.248 522.464 98.6053 522.272 87.384C521.334 87.1493 520.448 86.872 519.616 86.552C519.744 85.4427 519.83 84.792 519.872 84.6H528.352C530.443 84.6 532.107 84.8133 533.344 85.24C534.603 85.6667 535.712 86.424 536.672 87.512C538.208 89.304 538.976 91.9067 538.976 95.32ZM528.736 103.896C531.168 103.896 532.779 103.309 533.568 102.136C534.379 100.963 534.784 98.936 534.784 96.056C534.784 93.176 534.336 91.0853 533.44 89.784C532.544 88.4613 531.051 87.8 528.96 87.8H526.624C526.539 94.9893 526.486 100.355 526.464 103.896H528.736Z" fill="#642596"/>
<path d="M395.857 307.137C397.159 307.332 398.266 307.638 399.177 308.055C400.102 308.458 400.85 308.96 401.423 309.559C402.009 310.158 402.432 310.835 402.693 311.59C402.953 312.345 403.083 313.159 403.083 314.031C403.083 315.047 402.901 316.036 402.536 317C402.172 317.951 401.553 318.797 400.681 319.539C399.809 320.281 398.656 320.88 397.224 321.336C395.792 321.779 394.001 322 391.853 322H379.646V320.438H383.552V295.184H379.646V293.621H391.365C393.344 293.621 395.017 293.79 396.384 294.129C397.751 294.467 398.858 294.936 399.704 295.535C400.551 296.134 401.156 296.837 401.521 297.645C401.898 298.452 402.087 299.324 402.087 300.262C402.087 301.017 401.97 301.746 401.736 302.449C401.501 303.139 401.13 303.784 400.622 304.383C400.128 304.982 399.483 305.509 398.689 305.965C397.908 306.421 396.964 306.785 395.857 307.059V307.137ZM387.361 320.438H391.54C392.908 320.438 394.053 320.333 394.978 320.125C395.915 319.904 396.664 319.546 397.224 319.051C397.797 318.556 398.207 317.911 398.454 317.117C398.702 316.31 398.825 315.314 398.825 314.129C398.825 313.061 398.708 312.15 398.474 311.395C398.253 310.626 397.829 309.995 397.204 309.5C396.592 309.005 395.74 308.641 394.646 308.406C393.565 308.172 392.159 308.055 390.427 308.055H387.361V320.438ZM387.361 306.492H389.665C391.215 306.492 392.517 306.395 393.572 306.199C394.626 306.004 395.473 305.672 396.111 305.203C396.749 304.734 397.204 304.116 397.478 303.348C397.751 302.566 397.888 301.596 397.888 300.438C397.888 299.552 397.797 298.784 397.615 298.133C397.432 297.469 397.094 296.922 396.599 296.492C396.104 296.049 395.414 295.724 394.529 295.516C393.656 295.294 392.517 295.184 391.111 295.184H387.361V306.492ZM413.786 320.438V322H404.275V320.438H407.986L418.142 293.328H419.685L429.216 320.438H433.083V322H421.072V320.438H425.134L422.204 312.098H412.986L409.88 320.438H413.786ZM417.712 299.5L413.591 310.516H421.658L417.79 299.5H417.712ZM455.974 313.504L455.7 321.238C455.075 321.46 454.398 321.661 453.669 321.844C452.953 322.013 452.224 322.156 451.482 322.273C450.74 322.404 450.004 322.501 449.275 322.566C448.559 322.632 447.888 322.664 447.263 322.664C445.271 322.664 443.474 322.326 441.872 321.648C440.284 320.971 438.93 320.008 437.81 318.758C436.703 317.495 435.85 315.965 435.251 314.168C434.665 312.371 434.372 310.346 434.372 308.094C434.372 305.789 434.685 303.706 435.31 301.844C435.935 299.982 436.827 298.393 437.986 297.078C439.144 295.75 440.544 294.734 442.185 294.031C443.839 293.315 445.681 292.957 447.712 292.957C448.285 292.957 448.891 292.99 449.529 293.055C450.167 293.107 450.811 293.191 451.462 293.309C452.126 293.413 452.777 293.543 453.415 293.699C454.066 293.855 454.691 294.031 455.29 294.227L455.525 301.355H454.158C454.04 299.936 453.78 298.784 453.376 297.898C452.986 297 452.491 296.303 451.892 295.809C451.293 295.314 450.616 294.975 449.861 294.793C449.105 294.611 448.305 294.52 447.458 294.52C446.599 294.52 445.785 294.598 445.017 294.754C444.249 294.91 443.533 295.184 442.868 295.574C442.217 295.965 441.625 296.486 441.091 297.137C440.57 297.788 440.128 298.615 439.763 299.617C439.398 300.62 439.112 301.811 438.904 303.191C438.708 304.559 438.611 306.154 438.611 307.977C438.611 309.786 438.708 311.368 438.904 312.723C439.099 314.064 439.372 315.223 439.724 316.199C440.089 317.176 440.525 317.983 441.033 318.621C441.553 319.246 442.126 319.747 442.751 320.125C443.389 320.49 444.079 320.743 444.822 320.887C445.564 321.03 446.345 321.102 447.165 321.102C448.155 321.102 449.066 320.991 449.9 320.77C450.746 320.535 451.488 320.132 452.126 319.559C452.777 318.986 453.311 318.211 453.728 317.234C454.158 316.258 454.45 315.014 454.607 313.504H455.974ZM468.493 307.352L480.447 295.184H477.497V293.621H486.697V295.184H482.732L471.95 306.023L484.685 320.438H487.732V322H476.95V320.438H479.88L468.493 307.352ZM467.712 320.438H471.423V322H459.997V320.438H463.904V295.184H459.997V293.621H471.423V295.184H467.712V320.438ZM497.009 306.492H499.568C500.44 306.492 501.169 306.46 501.755 306.395C502.341 306.329 502.81 306.147 503.161 305.848C503.526 305.535 503.799 305.06 503.982 304.422C504.164 303.771 504.294 302.859 504.372 301.688H505.759V313.25H504.372C504.307 312.065 504.197 311.134 504.04 310.457C503.884 309.767 503.63 309.246 503.279 308.895C502.927 308.543 502.452 308.322 501.853 308.23C501.267 308.139 500.505 308.094 499.568 308.094H497.009V320.438H502.185C503.2 320.438 504.092 320.398 504.861 320.32C505.629 320.242 506.299 320.099 506.872 319.891C507.445 319.682 507.934 319.389 508.337 319.012C508.754 318.634 509.112 318.146 509.411 317.547C509.711 316.948 509.965 316.219 510.173 315.359C510.381 314.5 510.577 313.484 510.759 312.312H512.126L511.736 322H489.294V320.438H493.2V295.184H489.294V293.621H511.247L511.638 301.453H510.271C510.075 300.151 509.835 299.096 509.548 298.289C509.262 297.469 508.858 296.831 508.337 296.375C507.829 295.906 507.159 295.594 506.325 295.438C505.505 295.268 504.464 295.184 503.2 295.184H497.009V306.492ZM540.075 322.293H538.513L521.618 296.102L521.521 296.121V320.438H525.036V322H515.857V320.438H519.763V295.184H515.857V293.621H524.587L538.22 314.754L538.318 314.734V295.184H534.411V293.621H543.982V295.184H540.075V322.293ZM546.13 322V320.438H550.036V295.184H546.13V293.621H557.927C560.557 293.621 562.758 293.947 564.529 294.598C566.312 295.249 567.745 296.18 568.826 297.391C569.906 298.589 570.674 300.04 571.13 301.746C571.599 303.452 571.833 305.359 571.833 307.469C571.833 308.693 571.749 309.904 571.579 311.102C571.423 312.286 571.143 313.419 570.74 314.5C570.336 315.568 569.789 316.564 569.099 317.488C568.422 318.4 567.556 319.194 566.501 319.871C565.447 320.535 564.19 321.056 562.732 321.434C561.273 321.811 559.574 322 557.634 322H546.13ZM553.845 320.438H557.38C559.385 320.438 561.046 320.242 562.361 319.852C563.689 319.461 564.737 318.777 565.505 317.801C566.273 316.824 566.814 315.503 567.126 313.836C567.439 312.169 567.595 310.06 567.595 307.508C567.595 306.115 567.543 304.839 567.439 303.68C567.348 302.521 567.172 301.486 566.911 300.574C566.651 299.663 566.286 298.868 565.818 298.191C565.362 297.514 564.77 296.954 564.04 296.512C563.324 296.069 562.452 295.737 561.423 295.516C560.395 295.294 559.184 295.184 557.79 295.184H553.845V320.438Z" fill="#8F00FF"/>
<path d="M1042.84 16.5358C1042.84 18.4644 1042.62 20.0625 1042.18 21.3299C1041.74 22.5697 1041.05 23.5341 1040.11 24.2229C1039.17 24.8841 1037.95 25.3525 1036.43 25.628C1034.92 25.876 1033.07 26 1030.89 26C1029.46 26 1028.14 26 1026.93 26C1025.71 26 1024.57 26 1023.5 26C1022.45 26 1021.46 26 1020.52 26C1019.58 26 1018.69 26 1017.83 26V9.75789C1017.83 8.766 1018.05 8.06342 1018.5 7.65013C1018.94 7.20929 1019.69 6.98887 1020.77 6.98887C1021.6 6.98887 1022.45 6.98887 1023.33 6.98887C1024.21 6.98887 1025.09 6.98887 1025.98 6.98887C1026.86 6.98887 1027.74 6.98887 1028.62 6.98887C1029.53 6.98887 1030.4 6.98887 1031.22 6.98887C1033.35 6.98887 1035.14 7.14041 1036.6 7.44349C1038.09 7.71901 1039.28 8.20118 1040.19 8.88999C1041.13 9.57879 1041.8 10.5431 1042.22 11.783C1042.63 12.9953 1042.84 14.5795 1042.84 16.5358ZM1025.98 21.9498C1026.25 21.9498 1026.55 21.9498 1026.89 21.9498C1027.22 21.9498 1027.56 21.9498 1027.92 21.9498C1028.28 21.9498 1028.63 21.9498 1028.99 21.9498C1029.35 21.9498 1029.67 21.9498 1029.94 21.9498C1030.77 21.9498 1031.47 21.8809 1032.05 21.7432C1032.63 21.5778 1033.1 21.2885 1033.46 20.8753C1033.81 20.462 1034.08 19.9109 1034.24 19.2221C1034.41 18.5058 1034.49 17.6103 1034.49 16.5358C1034.49 14.9928 1034.32 13.8356 1033.99 13.0642C1033.69 12.2652 1033.19 11.7279 1032.51 11.4524C1031.82 11.1768 1030.88 11.0391 1029.7 11.0391C1029.37 11.0391 1028.98 11.0391 1028.54 11.0391C1028.1 11.0391 1027.67 11.0391 1027.26 11.0391C1026.84 11.0391 1026.46 11.0391 1026.1 11.0391C1026.07 11.2319 1026.04 11.4248 1026.02 11.6177C1025.99 11.8105 1025.98 12.0447 1025.98 12.3203V21.9498ZM1043.78 26L1050.72 10.3778C1051.22 9.27572 1051.92 8.40782 1052.83 7.77412C1053.77 7.14041 1055.19 6.82356 1057.09 6.82356C1058.63 6.82356 1059.9 7.12664 1060.89 7.73279C1061.91 8.31139 1062.7 9.19306 1063.25 10.3778L1070.19 26H1061.39L1059.61 22.1151H1051.63L1049.98 26H1043.78ZM1052.92 19.0981H1058.08L1056.01 14.2214C1055.99 14.0836 1055.93 13.9458 1055.85 13.8081C1055.79 13.6703 1055.7 13.6014 1055.56 13.6014C1055.39 13.6014 1055.27 13.6703 1055.19 13.8081C1055.13 13.9458 1055.08 14.0836 1055.02 14.2214L1052.92 19.0981ZM1066.72 6.98887H1091.03V11.2457H1082.97V23.4376C1082.97 24.4846 1082.8 25.1734 1082.47 25.5041C1082.17 25.8347 1081.44 26 1080.28 26H1074.82V11.2457H1066.72V6.98887ZM1087.77 26L1094.72 10.3778C1095.21 9.27572 1095.92 8.40782 1096.82 7.77412C1097.76 7.14041 1099.18 6.82356 1101.08 6.82356C1102.62 6.82356 1103.89 7.12664 1104.88 7.73279C1105.9 8.31139 1106.69 9.19306 1107.24 10.3778L1114.18 26H1105.38L1103.6 22.1151H1095.63L1093.97 26H1087.77ZM1096.91 19.0981H1102.07L1100.01 14.2214C1099.98 14.0836 1099.92 13.9458 1099.84 13.8081C1099.79 13.6703 1099.69 13.6014 1099.55 13.6014C1099.39 13.6014 1099.26 13.6703 1099.18 13.8081C1099.13 13.9458 1099.07 14.0836 1099.02 14.2214L1096.91 19.0981ZM1132.39 26.0413C1129.55 26.0413 1127.1 26.0413 1125.03 26.0413C1122.99 26.0689 1121.27 26.0827 1119.87 26.0827C1118.46 26.0827 1117.28 26.0551 1116.31 26V8.88999C1116.31 8.09097 1116.48 7.58125 1116.81 7.36083C1117.17 7.11286 1117.65 6.98887 1118.25 6.98887C1119.63 6.98887 1120.78 6.98887 1121.69 6.98887C1122.62 6.96132 1123.42 6.94755 1124.08 6.94755C1124.74 6.91999 1125.35 6.90622 1125.9 6.90622C1126.48 6.90622 1127.11 6.90622 1127.8 6.90622C1128.6 6.90622 1129.51 6.91999 1130.53 6.94755C1131.58 6.94755 1132.54 6.94755 1133.42 6.94755C1134.3 6.94755 1134.92 6.96132 1135.28 6.98887C1136.8 7.07153 1137.94 7.47104 1138.71 8.1874C1139.51 8.90376 1139.91 10.0472 1139.91 11.6177C1139.91 12.7198 1139.73 13.5877 1139.37 14.2214C1139.02 14.8275 1138.55 15.2684 1137.97 15.5439C1137.39 15.7919 1136.8 15.9158 1136.19 15.9158C1136.99 15.9158 1137.67 15.9847 1138.22 16.1225C1138.8 16.2602 1139.25 16.5082 1139.58 16.8664C1139.91 17.197 1140.16 17.6516 1140.32 18.2302C1140.52 18.8088 1140.61 19.539 1140.61 20.4206C1140.61 21.633 1140.48 22.6111 1140.2 23.355C1139.92 24.0713 1139.47 24.6362 1138.84 25.0494C1138.23 25.4352 1137.4 25.6969 1136.36 25.8347C1135.31 25.9724 1133.99 26.0413 1132.39 26.0413ZM1129.74 22.2804C1130.19 22.2804 1130.57 22.2667 1130.9 22.2391C1131.26 22.2116 1131.55 22.1427 1131.77 22.0325C1131.99 21.8947 1132.16 21.6743 1132.27 21.3712C1132.4 21.0406 1132.47 20.5997 1132.47 20.0487C1132.47 19.2772 1132.32 18.74 1132.02 18.4369C1131.74 18.1338 1131.09 17.9823 1130.07 17.9823H1124.54C1123.99 17.9823 1123.64 17.6792 1123.5 17.073C1123.37 16.4669 1123.3 15.5852 1123.3 14.428H1129.83C1130.21 14.428 1130.54 14.3867 1130.82 14.304C1131.12 14.2214 1131.36 14.0285 1131.52 13.7254C1131.69 13.4223 1131.77 12.9264 1131.77 12.2376C1131.77 11.5488 1131.63 11.0391 1131.36 10.7084C1131.11 10.3778 1130.69 10.2125 1130.12 10.2125C1129.84 10.1849 1129.51 10.1712 1129.12 10.1712C1128.77 10.1712 1128.39 10.1712 1128.01 10.1712C1127.6 10.1712 1127.17 10.1712 1126.73 10.1712C1126.31 10.1712 1125.91 10.1712 1125.53 10.1712C1125.23 10.1712 1124.96 10.2814 1124.74 10.5018C1124.55 10.6947 1124.45 10.9702 1124.45 11.3284V22.2804C1124.95 22.2804 1125.32 22.2804 1125.57 22.2804C1125.82 22.2804 1126.07 22.2804 1126.31 22.2804C1126.56 22.2804 1126.93 22.2804 1127.43 22.2804C1127.93 22.2804 1128.7 22.2804 1129.74 22.2804ZM1141.94 26L1148.88 10.3778C1149.38 9.27572 1150.08 8.40782 1150.99 7.77412C1151.92 7.14041 1153.34 6.82356 1155.24 6.82356C1156.79 6.82356 1158.06 7.12664 1159.05 7.73279C1160.07 8.31139 1160.85 9.19306 1161.4 10.3778L1168.35 26H1159.54L1157.77 22.1151H1149.79L1148.14 26H1141.94ZM1151.07 19.0981H1156.24L1154.17 14.2214C1154.14 14.0836 1154.09 13.9458 1154 13.8081C1153.95 13.6703 1153.85 13.6014 1153.72 13.6014C1153.55 13.6014 1153.43 13.6703 1153.34 13.8081C1153.29 13.9458 1153.23 14.0836 1153.18 14.2214L1151.07 19.0981ZM1170.06 20.8753C1170.81 21.1783 1171.73 21.3988 1172.83 21.5365C1173.96 21.6467 1175.13 21.7294 1176.34 21.7845C1177.56 21.812 1178.64 21.8258 1179.61 21.8258C1179.97 21.8258 1180.42 21.8258 1180.97 21.8258C1181.55 21.7983 1182.01 21.7845 1182.34 21.7845C1182.97 21.7569 1183.48 21.6881 1183.87 21.5778C1184.28 21.4401 1184.58 21.261 1184.78 21.0406C1184.97 20.7926 1185.06 20.462 1185.06 20.0487C1185.06 19.5252 1184.9 19.167 1184.57 18.9741C1184.27 18.7813 1183.76 18.6848 1183.04 18.6848C1182.76 18.6848 1182.43 18.6848 1182.05 18.6848C1181.69 18.6848 1181.19 18.6848 1180.56 18.6848C1179.93 18.6848 1179.09 18.6848 1178.04 18.6848C1177.07 18.6848 1176.14 18.6435 1175.23 18.5609C1174.32 18.4782 1173.49 18.2716 1172.75 17.9409C1172 17.6103 1171.41 17.0868 1170.97 16.3705C1170.53 15.6541 1170.31 14.6484 1170.31 13.3535C1170.31 11.8381 1170.56 10.6533 1171.05 9.79921C1171.58 8.91754 1172.31 8.27006 1173.24 7.85677C1174.18 7.41594 1175.31 7.14041 1176.63 7.0302C1177.98 6.89244 1179.49 6.82356 1181.14 6.82356C1182.13 6.82356 1183.19 6.83734 1184.32 6.86489C1185.45 6.86489 1186.51 6.89244 1187.5 6.94755C1188.49 7.00265 1189.24 7.05775 1189.73 7.11286C1190.86 7.16796 1191.73 7.47104 1192.34 8.02209C1192.94 8.54558 1193.25 9.19306 1193.25 9.96453C1193.25 10.0747 1193.25 10.2814 1193.25 10.5845C1193.25 10.8875 1193.25 11.1906 1193.25 11.4937C1193.25 11.7692 1193.25 11.9207 1193.25 11.9483C1193.08 11.783 1192.7 11.659 1192.09 11.5763C1191.48 11.4661 1190.77 11.3835 1189.94 11.3284C1189.14 11.2733 1188.34 11.2457 1187.54 11.2457C1186.77 11.2182 1186.08 11.2044 1185.48 11.2044H1181.26C1180.6 11.2044 1180.08 11.2595 1179.69 11.3697C1179.33 11.4799 1179.07 11.6452 1178.91 11.8656C1178.77 12.0861 1178.7 12.3754 1178.7 12.7335C1178.7 13.0091 1178.74 13.2433 1178.82 13.4361C1178.93 13.629 1179.11 13.7805 1179.36 13.8907C1179.64 14.0009 1180.01 14.0561 1180.48 14.0561C1182.38 14.0561 1183.87 14.0561 1184.94 14.0561C1186.04 14.0561 1186.69 14.0561 1186.88 14.0561C1188.26 14.0561 1189.46 14.18 1190.48 14.428C1191.5 14.6484 1192.28 15.1581 1192.83 15.9572C1193.39 16.7286 1193.66 17.9409 1193.66 19.5941C1193.66 21.1095 1193.37 22.3355 1192.79 23.2723C1192.21 24.1815 1191.4 24.8566 1190.35 25.2974C1189.31 25.7107 1188.08 25.9587 1186.68 26.0413C1185.13 26.124 1183.66 26.1653 1182.25 26.1653C1180.88 26.1929 1179.4 26.1929 1177.83 26.1653C1176.56 26.1378 1175.45 26.0827 1174.48 26C1173.52 25.9449 1172.71 25.8209 1172.05 25.628C1171.38 25.4352 1170.89 25.1734 1170.56 24.8428C1170.23 24.4846 1170.06 24.0438 1170.06 23.5203V20.8753ZM1197.08 26V9.46859C1197.08 8.44915 1197.26 7.78789 1197.61 7.48482C1197.97 7.15419 1198.68 6.98887 1199.72 6.98887H1219.81V11.1631H1205.22V14.2627H1218.44V18.4369H1205.22V21.8258H1219.81V26H1197.08ZM1222.37 20.8753C1223.11 21.1783 1224.04 21.3988 1225.14 21.5365C1226.27 21.6467 1227.44 21.7294 1228.65 21.7845C1229.86 21.812 1230.95 21.8258 1231.92 21.8258C1232.27 21.8258 1232.73 21.8258 1233.28 21.8258C1233.86 21.7983 1234.31 21.7845 1234.64 21.7845C1235.28 21.7569 1235.79 21.6881 1236.17 21.5778C1236.59 21.4401 1236.89 21.261 1237.08 21.0406C1237.27 20.7926 1237.37 20.462 1237.37 20.0487C1237.37 19.5252 1237.21 19.167 1236.87 18.9741C1236.57 18.7813 1236.06 18.6848 1235.35 18.6848C1235.07 18.6848 1234.74 18.6848 1234.35 18.6848C1234 18.6848 1233.5 18.6848 1232.87 18.6848C1232.23 18.6848 1231.39 18.6848 1230.35 18.6848C1229.38 18.6848 1228.44 18.6435 1227.53 18.5609C1226.63 18.4782 1225.8 18.2716 1225.06 17.9409C1224.31 17.6103 1223.72 17.0868 1223.28 16.3705C1222.84 15.6541 1222.62 14.6484 1222.62 13.3535C1222.62 11.8381 1222.86 10.6533 1223.36 9.79921C1223.88 8.91754 1224.61 8.27006 1225.55 7.85677C1226.49 7.41594 1227.62 7.14041 1228.94 7.0302C1230.29 6.89244 1231.79 6.82356 1233.44 6.82356C1234.44 6.82356 1235.5 6.83734 1236.63 6.86489C1237.76 6.86489 1238.82 6.89244 1239.81 6.94755C1240.8 7.00265 1241.55 7.05775 1242.04 7.11286C1243.17 7.16796 1244.04 7.47104 1244.64 8.02209C1245.25 8.54558 1245.55 9.19306 1245.55 9.96453C1245.55 10.0747 1245.55 10.2814 1245.55 10.5845C1245.55 10.8875 1245.55 11.1906 1245.55 11.4937C1245.55 11.7692 1245.55 11.9207 1245.55 11.9483C1245.39 11.783 1245 11.659 1244.4 11.5763C1243.79 11.4661 1243.07 11.3835 1242.25 11.3284C1241.45 11.2733 1240.65 11.2457 1239.85 11.2457C1239.08 11.2182 1238.39 11.2044 1237.78 11.2044H1233.57C1232.91 11.2044 1232.38 11.2595 1232 11.3697C1231.64 11.4799 1231.38 11.6452 1231.21 11.8656C1231.08 12.0861 1231.01 12.3754 1231.01 12.7335C1231.01 13.0091 1231.05 13.2433 1231.13 13.4361C1231.24 13.629 1231.42 13.7805 1231.67 13.8907C1231.94 14.0009 1232.32 14.0561 1232.78 14.0561C1234.68 14.0561 1236.17 14.0561 1237.25 14.0561C1238.35 14.0561 1239 14.0561 1239.19 14.0561C1240.57 14.0561 1241.77 14.18 1242.78 14.428C1243.8 14.6484 1244.59 15.1581 1245.14 15.9572C1245.69 16.7286 1245.97 17.9409 1245.97 19.5941C1245.97 21.1095 1245.68 22.3355 1245.1 23.2723C1244.52 24.1815 1243.71 24.8566 1242.66 25.2974C1241.61 25.7107 1240.39 25.9587 1238.98 26.0413C1237.44 26.124 1235.97 26.1653 1234.56 26.1653C1233.18 26.1929 1231.71 26.1929 1230.14 26.1653C1228.87 26.1378 1227.76 26.0827 1226.79 26C1225.83 25.9449 1225.01 25.8209 1224.35 25.628C1223.69 25.4352 1223.2 25.1734 1222.86 24.8428C1222.53 24.4846 1222.37 24.0438 1222.37 23.5203V20.8753Z" fill="#A6A6A6"/>
<path d="M1072.25 75L1065.31 46.07H1068.91L1074.65 71.6937L1080.35 46.07H1083.95L1077.13 75H1072.25ZM1088.2 75V46.07H1100.8V48.8804H1091.83V58.138H1099.11V60.9483H1091.83V72.1897H1101.22V75H1088.2ZM1105.87 46.07H1113.52C1116.05 46.07 1117.93 46.7175 1119.14 48.0125C1120.35 49.2799 1120.96 51.1948 1120.96 53.7571C1120.96 55.6858 1120.59 57.3665 1119.84 58.7992C1119.1 60.2319 1118.04 61.2238 1116.66 61.7749L1122.41 75H1118.85L1113.23 62.3121H1109.43V75H1105.87V46.07ZM1112.45 59.5845C1114.02 59.5845 1115.23 59.0472 1116.08 57.9726C1116.96 56.8705 1117.4 55.4654 1117.4 53.7571C1117.4 52.1315 1116.98 50.9055 1116.12 50.0789C1115.3 49.2248 1114.07 48.7977 1112.45 48.7977H1109.51V59.5845H1112.45ZM1125.76 72.2723H1130.26C1131.84 72.2723 1132.97 71.8039 1133.65 70.8671C1134.37 69.9304 1134.73 68.7732 1134.73 67.3955C1134.73 66.321 1134.52 65.398 1134.11 64.6265C1133.72 63.8275 1133.24 63.1663 1132.66 62.6428C1132.08 62.1193 1131.3 61.5131 1130.31 60.8243C1129.26 60.108 1128.41 59.4605 1127.74 58.8819C1127.11 58.2757 1126.57 57.518 1126.13 56.6088C1125.69 55.6996 1125.47 54.6113 1125.47 53.3438C1125.47 51.1397 1126.13 49.3763 1127.45 48.0538C1128.78 46.7313 1130.61 46.07 1132.95 46.07H1136.3V48.7977H1133.12C1131.79 48.7977 1130.79 49.2248 1130.1 50.0789C1129.41 50.933 1129.07 51.9249 1129.07 53.0545C1129.07 54.1566 1129.38 55.0659 1130.02 55.7822C1130.65 56.4986 1131.61 57.3114 1132.91 58.2206C1134.09 59.0747 1135.05 59.8462 1135.76 60.535C1136.48 61.1963 1137.08 62.0779 1137.58 63.18C1138.1 64.2821 1138.37 65.6046 1138.37 67.1476C1138.37 69.7375 1137.62 71.6937 1136.13 73.0162C1134.67 74.3387 1132.66 75 1130.1 75H1125.76V72.2723ZM1142.4 75V46.07H1146.04V75H1142.4ZM1158.74 75.2893C1156.18 75.2893 1154.22 74.6418 1152.87 73.3469C1151.52 72.0243 1150.85 70.1921 1150.85 67.8502V53.2199C1150.85 50.8779 1151.52 49.0595 1152.87 47.7645C1154.22 46.442 1156.18 45.7807 1158.74 45.7807C1161.33 45.7807 1163.3 46.442 1164.65 47.7645C1166 49.0595 1166.68 50.8779 1166.68 53.2199V67.8502C1166.68 70.1921 1166 72.0243 1164.65 73.3469C1163.3 74.6418 1161.33 75.2893 1158.74 75.2893ZM1158.74 72.5616C1159.95 72.5616 1160.97 72.2172 1161.8 71.5284C1162.63 70.812 1163.04 69.8202 1163.04 68.5527V52.5173C1163.04 51.2499 1162.63 50.2718 1161.8 49.583C1160.97 48.8666 1159.95 48.5084 1158.74 48.5084C1157.53 48.5084 1156.51 48.8666 1155.68 49.583C1154.88 50.2718 1154.48 51.2499 1154.48 52.5173V68.5527C1154.48 69.8202 1154.88 70.812 1155.68 71.5284C1156.51 72.2172 1157.53 72.5616 1158.74 72.5616ZM1171.13 75V46.07H1177.2L1183.94 71.0738V46.07H1187.62V75H1182.41L1174.77 48.7151V75H1171.13ZM1193.33 75V46.07H1196.97V75H1193.33ZM1202.69 75V46.07H1208.77L1215.5 71.0738V46.07H1219.18V75H1213.97L1206.33 48.7151V75H1202.69ZM1231.55 75C1229.04 75 1227.1 74.3663 1225.72 73.0989C1224.34 71.8315 1223.66 69.9717 1223.66 67.5195V53.5092C1223.66 51.0846 1224.4 49.2385 1225.89 47.9711C1227.38 46.7037 1229.4 46.07 1231.96 46.07H1238.04V48.839H1231.55C1230.28 48.839 1229.25 49.211 1228.45 49.9549C1227.68 50.6713 1227.29 51.6356 1227.29 52.8479V68.2634C1227.29 69.5033 1227.66 70.4814 1228.41 71.1978C1229.15 71.9141 1230.14 72.2723 1231.38 72.2723H1235.23V60.907H1231.51V58.1793H1238.86V75H1231.55Z" fill="#FF00A8"/>
<path d="M982.084 123V92.9429H994.501C996.751 92.9429 998.693 93.3832 1000.33 94.2638C1001.97 95.1345 1003.24 96.3527 1004.13 97.9182C1005.02 99.4738 1005.46 101.284 1005.46 103.348C1005.46 105.423 1005.01 107.238 1004.1 108.793C1003.2 110.339 1001.91 111.538 1000.24 112.389C998.566 113.24 996.58 113.666 994.28 113.666H986.619V107.942H992.93C994.026 107.942 994.941 107.751 995.675 107.37C996.418 106.988 996.981 106.455 997.363 105.77C997.744 105.075 997.935 104.268 997.935 103.348C997.935 102.419 997.744 101.617 997.363 100.941C996.981 100.257 996.418 99.7282 995.675 99.3564C994.931 98.9846 994.016 98.7987 992.93 98.7987H989.349V123H982.084ZM1009.04 123V92.9429H1021.46C1023.71 92.9429 1025.65 93.3489 1027.29 94.161C1028.93 94.9633 1030.2 96.1179 1031.09 97.6246C1031.98 99.1216 1032.42 100.897 1032.42 102.952C1032.42 105.036 1031.97 106.807 1031.06 108.265C1030.15 109.713 1028.86 110.819 1027.18 111.582C1025.51 112.335 1023.53 112.712 1021.24 112.712H1013.39V106.988H1019.89C1020.99 106.988 1021.9 106.846 1022.64 106.563C1023.38 106.269 1023.94 105.829 1024.32 105.242C1024.7 104.645 1024.9 103.882 1024.9 102.952C1024.9 102.023 1024.7 101.255 1024.32 100.648C1023.94 100.032 1023.38 99.5717 1022.64 99.2684C1021.89 98.9553 1020.98 98.7987 1019.89 98.7987H1016.31V123H1009.04ZM1025.97 109.263L1033.45 123H1025.53L1018.19 109.263H1025.97ZM1064.78 107.971C1064.78 111.279 1064.14 114.082 1062.87 116.381C1061.6 118.68 1059.88 120.427 1057.7 121.62C1055.54 122.814 1053.12 123.411 1050.42 123.411C1047.72 123.411 1045.29 122.809 1043.13 121.606C1040.97 120.402 1039.25 118.656 1037.98 116.366C1036.72 114.067 1036.09 111.269 1036.09 107.971C1036.09 104.664 1036.72 101.861 1037.98 99.5619C1039.25 97.2626 1040.97 95.5161 1043.13 94.3225C1045.29 93.1288 1047.72 92.5319 1050.42 92.5319C1053.12 92.5319 1055.54 93.1288 1057.7 94.3225C1059.88 95.5161 1061.6 97.2626 1062.87 99.5619C1064.14 101.861 1064.78 104.664 1064.78 107.971ZM1057.35 107.971C1057.35 106.015 1057.07 104.361 1056.52 103.011C1055.97 101.661 1055.18 100.638 1054.14 99.9435C1053.11 99.2488 1051.87 98.9015 1050.42 98.9015C1048.99 98.9015 1047.75 99.2488 1046.71 99.9435C1045.67 100.638 1044.88 101.661 1044.32 103.011C1043.77 104.361 1043.5 106.015 1043.5 107.971C1043.5 109.928 1043.77 111.582 1044.32 112.932C1044.88 114.282 1045.67 115.305 1046.71 115.999C1047.75 116.694 1048.99 117.041 1050.42 117.041C1051.87 117.041 1053.11 116.694 1054.14 115.999C1055.18 115.305 1055.97 114.282 1056.52 112.932C1057.07 111.582 1057.35 109.928 1057.35 107.971ZM1066.66 98.8428V92.9429H1092.07V98.8428H1082.95V123H1075.79V98.8428H1066.66ZM1122.61 107.971C1122.61 111.279 1121.98 114.082 1120.71 116.381C1119.43 118.68 1117.71 120.427 1115.54 121.62C1113.38 122.814 1110.95 123.411 1108.26 123.411C1105.56 123.411 1103.13 122.809 1100.97 121.606C1098.8 120.402 1097.09 118.656 1095.81 116.366C1094.55 114.067 1093.92 111.269 1093.92 107.971C1093.92 104.664 1094.55 101.861 1095.81 99.5619C1097.09 97.2626 1098.8 95.5161 1100.97 94.3225C1103.13 93.1288 1105.56 92.5319 1108.26 92.5319C1110.95 92.5319 1113.38 93.1288 1115.54 94.3225C1117.71 95.5161 1119.43 97.2626 1120.71 99.5619C1121.98 101.861 1122.61 104.664 1122.61 107.971ZM1115.19 107.971C1115.19 106.015 1114.91 104.361 1114.35 103.011C1113.8 101.661 1113.01 100.638 1111.97 99.9435C1110.95 99.2488 1109.71 98.9015 1108.26 98.9015C1106.82 98.9015 1105.58 99.2488 1104.55 99.9435C1103.51 100.638 1102.71 101.661 1102.16 103.011C1101.61 104.361 1101.33 106.015 1101.33 107.971C1101.33 109.928 1101.61 111.582 1102.16 112.932C1102.71 114.282 1103.51 115.305 1104.55 115.999C1105.58 116.694 1106.82 117.041 1108.26 117.041C1109.71 117.041 1110.95 116.694 1111.97 115.999C1113.01 115.305 1113.8 114.282 1114.35 112.932C1114.91 111.582 1115.19 109.928 1115.19 107.971ZM1124.5 98.8428V92.9429H1149.9V98.8428H1140.79V123H1133.63V98.8428H1124.5ZM1151.96 92.9429H1160.07L1166.43 105.52H1166.69L1173.05 92.9429H1181.16L1170.17 112.961V123H1162.95V112.961L1151.96 92.9429ZM1184.21 123V92.9429H1196.62C1198.87 92.9429 1200.82 93.3832 1202.45 94.2638C1204.09 95.1345 1205.36 96.3527 1206.25 97.9182C1207.14 99.4738 1207.59 101.284 1207.59 103.348C1207.59 105.423 1207.13 107.238 1206.22 108.793C1205.32 110.339 1204.03 111.538 1202.36 112.389C1200.69 113.24 1198.7 113.666 1196.4 113.666H1188.74V107.942H1195.05C1196.15 107.942 1197.06 107.751 1197.8 107.37C1198.54 106.988 1199.1 106.455 1199.48 105.77C1199.87 105.075 1200.06 104.268 1200.06 103.348C1200.06 102.419 1199.87 101.617 1199.48 100.941C1199.1 100.257 1198.54 99.7282 1197.8 99.3564C1197.05 98.9846 1196.14 98.7987 1195.05 98.7987H1191.47V123H1184.21ZM1218.43 92.9429V123H1211.17V92.9429H1218.43ZM1248.57 92.9429V123H1242.41L1230.45 105.653H1230.26V123H1222.99V92.9429H1229.24L1241.07 110.261H1241.32V92.9429H1248.57ZM1272.87 102.761C1272.7 102.145 1272.46 101.602 1272.13 101.132C1271.81 100.653 1271.41 100.247 1270.94 99.9141C1270.47 99.5815 1269.94 99.332 1269.33 99.1656C1268.72 98.9895 1268.06 98.9015 1267.33 98.9015C1265.88 98.9015 1264.61 99.2537 1263.55 99.9582C1262.49 100.663 1261.67 101.69 1261.1 103.04C1260.52 104.381 1260.23 106.01 1260.23 107.927C1260.23 109.855 1260.51 111.499 1261.07 112.859C1261.62 114.219 1262.43 115.256 1263.49 115.97C1264.55 116.684 1265.83 117.041 1267.33 117.041C1268.66 117.041 1269.79 116.826 1270.71 116.396C1271.64 115.955 1272.34 115.334 1272.82 114.532C1273.3 113.729 1273.54 112.785 1273.54 111.699L1274.89 111.861H1267.58V106.563H1280.54V110.54C1280.54 113.23 1279.97 115.535 1278.83 117.452C1277.69 119.37 1276.12 120.843 1274.13 121.87C1272.14 122.897 1269.86 123.411 1267.27 123.411C1264.41 123.411 1261.89 122.79 1259.72 121.547C1257.54 120.304 1255.85 118.534 1254.64 116.234C1253.43 113.925 1252.82 111.186 1252.82 108.015C1252.82 105.55 1253.19 103.363 1253.92 101.455C1254.65 99.5374 1255.68 97.9133 1256.99 96.5826C1258.31 95.252 1259.83 94.2442 1261.57 93.5593C1263.31 92.8744 1265.18 92.5319 1267.19 92.5319C1268.93 92.5319 1270.55 92.7814 1272.04 93.2804C1273.55 93.7794 1274.88 94.4839 1276.04 95.3938C1277.2 96.3038 1278.15 97.3849 1278.87 98.6373C1279.59 99.8897 1280.04 101.264 1280.22 102.761H1272.87Z" fill="black"/>
<path d="M674.958 296.943V327H667.693V296.943H674.958ZM690.629 327H679.519V296.943H690.614C693.676 296.943 696.313 297.545 698.525 298.748C700.746 299.942 702.458 301.664 703.661 303.914C704.865 306.155 705.466 308.836 705.466 311.957C705.466 315.088 704.865 317.778 703.661 320.029C702.468 322.279 700.76 324.006 698.539 325.209C696.318 326.403 693.681 327 690.629 327ZM686.783 320.807H690.35C692.033 320.807 693.456 320.523 694.621 319.955C695.795 319.378 696.68 318.444 697.277 317.152C697.884 315.851 698.187 314.119 698.187 311.957C698.187 309.794 697.884 308.072 697.277 306.791C696.67 305.499 695.775 304.57 694.591 304.002C693.417 303.425 691.969 303.136 690.247 303.136H686.783V320.807ZM709.708 327V296.943H730.666V302.843H716.973V309.007H729.594V314.921H716.973V321.1H730.666V327H709.708Z" fill="black"/>
</svg>
