<svg width="1294" height="340" viewBox="0 0 1294 340" fill="none" xmlns="http://www.w3.org/2000/svg">
<path d="M272.039 99.1073H305.611V196.521C305.565 205.648 303.386 213.628 299.075 220.462C294.764 227.25 288.802 232.524 281.188 236.285C273.621 240.046 264.861 241.926 254.909 241.926C246.103 241.926 238.1 240.39 230.899 237.317C223.744 234.244 218.034 229.474 213.769 223.008C209.549 216.541 207.463 208.262 207.509 198.172H241.425C241.562 201.796 242.25 204.891 243.489 207.46C244.773 209.982 246.538 211.886 248.786 213.17C251.033 214.454 253.716 215.096 256.835 215.096C260.091 215.096 262.843 214.408 265.09 213.032C267.338 211.61 269.034 209.524 270.181 206.772C271.374 204.02 271.993 200.603 272.039 196.521V99.1073ZM459.97 169.554C459.97 185.056 456.989 198.195 451.027 208.973C445.064 219.751 436.992 227.938 426.811 233.533C416.675 239.129 405.301 241.926 392.688 241.926C380.03 241.926 368.633 239.106 358.497 233.464C348.361 227.823 340.312 219.637 334.35 208.905C328.433 198.127 325.475 185.01 325.475 169.554C325.475 154.052 328.433 140.912 334.35 130.134C340.312 119.356 348.361 111.169 358.497 105.574C368.633 99.9787 380.03 97.181 392.688 97.181C405.301 97.181 416.675 99.9787 426.811 105.574C436.992 111.169 445.064 119.356 451.027 130.134C456.989 140.912 459.97 154.052 459.97 169.554ZM425.16 169.554C425.16 160.381 423.853 152.63 421.238 146.301C418.67 139.972 414.955 135.179 410.093 131.923C405.278 128.666 399.476 127.038 392.688 127.038C385.946 127.038 380.145 128.666 375.283 131.923C370.422 135.179 366.684 139.972 364.069 146.301C361.501 152.63 360.217 160.381 360.217 169.554C360.217 178.726 361.501 186.477 364.069 192.806C366.684 199.136 370.422 203.928 375.283 207.185C380.145 210.441 385.946 212.069 392.688 212.069C399.476 212.069 405.278 210.441 410.093 207.185C414.955 203.928 418.67 199.136 421.238 192.806C423.853 186.477 425.16 178.726 425.16 169.554ZM565.089 99.1073H599.074V189.986C599.074 200.489 596.575 209.638 591.575 217.435C586.576 225.186 579.605 231.194 570.662 235.46C561.718 239.679 551.33 241.789 539.497 241.789C527.527 241.789 517.07 239.679 508.127 235.46C499.183 231.194 492.235 225.186 487.282 217.435C482.328 209.638 479.852 200.489 479.852 189.986V99.1073H513.906V187.028C513.906 191.889 514.96 196.223 517.07 200.03C519.226 203.837 522.23 206.818 526.082 208.973C529.935 211.129 534.407 212.207 539.497 212.207C544.588 212.207 549.037 211.129 552.844 208.973C556.696 206.818 559.7 203.837 561.856 200.03C564.011 196.223 565.089 191.889 565.089 187.028V99.1073ZM620.418 240V99.1073H678.619C689.167 99.1073 698.271 101.011 705.93 104.817C713.635 108.578 719.575 113.99 723.748 121.053C727.922 128.07 730.009 136.394 730.009 146.026C730.009 155.795 727.876 164.096 723.611 170.93C719.345 177.717 713.291 182.9 705.449 186.477C697.606 190.009 688.319 191.775 677.587 191.775H640.781V164.944H671.257C676.394 164.944 680.682 164.279 684.122 162.949C687.608 161.573 690.245 159.51 692.034 156.758C693.822 153.96 694.717 150.383 694.717 146.026C694.717 141.669 693.822 138.068 692.034 135.225C690.245 132.335 687.608 130.18 684.122 128.758C680.637 127.29 676.348 126.557 671.257 126.557H654.471V240H620.418ZM699.739 175.608L734.824 240H697.675L663.277 175.608H699.739ZM868.597 99.1073V240H839.703L783.635 158.684H782.74V240H748.687V99.1073H777.993L833.442 180.286H834.612V99.1073H868.597ZM890.009 240V99.1073H988.249V126.763H924.063V155.657H983.227V183.381H924.063V212.344H988.249V240H890.009ZM1002.56 99.1073H1040.6L1070.39 158.065H1071.63L1101.42 99.1073H1139.46L1087.93 192.944V240H1054.09V192.944L1002.56 99.1073Z" fill="#D9D9D9"/>
<path d="M257.933 99.1073H291.505V196.521C291.46 205.648 289.281 213.628 284.97 220.462C280.659 227.25 274.696 232.524 267.083 236.285C259.516 240.046 250.756 241.926 240.803 241.926C231.998 241.926 223.994 240.39 216.794 237.317C209.639 234.244 203.929 229.474 199.664 223.008C195.444 216.541 193.358 208.262 193.403 198.172H227.319C227.457 201.796 228.145 204.891 229.383 207.46C230.668 209.982 232.433 211.886 234.681 213.17C236.928 214.454 239.611 215.096 242.73 215.096C245.986 215.096 248.738 214.408 250.985 213.032C253.232 211.61 254.929 209.524 256.076 206.772C257.268 204.02 257.888 200.603 257.933 196.521V99.1073ZM445.865 169.554C445.865 185.056 442.884 198.195 436.921 208.973C430.959 219.751 422.887 227.938 412.706 233.533C402.57 239.129 391.196 241.926 378.583 241.926C365.925 241.926 354.528 239.106 344.392 233.464C334.256 227.823 326.207 219.637 320.245 208.905C314.328 198.127 311.37 185.01 311.37 169.554C311.37 154.052 314.328 140.912 320.245 130.134C326.207 119.356 334.256 111.169 344.392 105.574C354.528 99.9787 365.925 97.181 378.583 97.181C391.196 97.181 402.57 99.9787 412.706 105.574C422.887 111.169 430.959 119.356 436.921 130.134C442.884 140.912 445.865 154.052 445.865 169.554ZM411.054 169.554C411.054 160.381 409.747 152.63 407.133 146.301C404.565 139.972 400.85 135.179 395.988 131.923C391.173 128.666 385.371 127.038 378.583 127.038C371.841 127.038 366.039 128.666 361.178 131.923C356.316 135.179 352.578 139.972 349.964 146.301C347.396 152.63 346.112 160.381 346.112 169.554C346.112 178.726 347.396 186.477 349.964 192.806C352.578 199.136 356.316 203.928 361.178 207.185C366.039 210.441 371.841 212.069 378.583 212.069C385.371 212.069 391.173 210.441 395.988 207.185C400.85 203.928 404.565 199.136 407.133 192.806C409.747 186.477 411.054 178.726 411.054 169.554ZM550.984 99.1073H584.969V189.986C584.969 200.489 582.469 209.638 577.47 217.435C572.471 225.186 565.5 231.194 556.556 235.46C547.613 239.679 537.225 241.789 525.392 241.789C513.422 241.789 502.965 239.679 494.022 235.46C485.078 231.194 478.13 225.186 473.177 217.435C468.223 209.638 465.747 200.489 465.747 189.986V99.1073H499.8V187.028C499.8 191.889 500.855 196.223 502.965 200.03C505.121 203.837 508.125 206.818 511.977 208.973C515.83 211.129 520.301 212.207 525.392 212.207C530.483 212.207 534.932 211.129 538.738 208.973C542.591 206.818 545.595 203.837 547.751 200.03C549.906 196.223 550.984 191.889 550.984 187.028V99.1073ZM606.313 240V99.1073H664.513C675.062 99.1073 684.166 101.011 691.825 104.817C699.53 108.578 705.47 113.99 709.643 121.053C713.817 128.07 715.904 136.394 715.904 146.026C715.904 155.795 713.771 164.096 709.506 170.93C705.24 177.717 699.186 182.9 691.344 186.477C683.501 190.009 674.214 191.775 663.482 191.775H626.676V164.944H657.152C662.289 164.944 666.577 164.279 670.017 162.949C673.503 161.573 676.14 159.51 677.929 156.758C679.717 153.96 680.612 150.383 680.612 146.026C680.612 141.669 679.717 138.068 677.929 135.225C676.14 132.335 673.503 130.18 670.017 128.758C666.531 127.29 662.243 126.557 657.152 126.557H640.366V240H606.313ZM685.634 175.608L720.719 240H683.57L649.172 175.608H685.634ZM854.492 99.1073V240H825.598L769.529 158.684H768.635V240H734.581V99.1073H763.888L819.337 180.286H820.507V99.1073H854.492ZM875.904 240V99.1073H974.144V126.763H909.958V155.657H969.122V183.381H909.958V212.344H974.144V240H875.904ZM988.453 99.1073H1026.5L1056.29 158.065H1057.52L1087.31 99.1073H1125.36L1073.83 192.944V240H1039.98V192.944L988.453 99.1073Z" fill="#7000FF"/>
<path d="M120.668 51.424C120.326 49.952 120.156 48.7893 120.156 47.936C120.156 47.0827 120.188 46.304 120.252 45.6H138.844C138.929 46.624 138.972 47.3173 138.972 47.68C138.972 48.5973 138.801 49.8453 138.46 51.424C137.841 51.5947 136.828 51.68 135.42 51.68L134.684 48.448H131.964C131.942 49.2587 131.846 54.752 131.676 64.928L133.98 65.216C133.98 66.1973 133.734 67.1253 133.244 68H125.468L125.18 66.24C126.652 65.6853 127.58 65.376 127.964 65.312C127.964 65.2267 127.836 59.616 127.58 48.48H124.412L123.708 51.616C122.449 51.616 121.436 51.552 120.668 51.424ZM157.759 56.384L157.631 48.384L154.975 47.552L155.231 45.6H163.551C163.529 45.6 163.529 45.6213 163.551 45.664C163.593 45.7067 163.636 45.8027 163.679 45.952C163.743 46.08 163.807 46.24 163.871 46.432C163.999 46.7733 164.084 47.3387 164.127 48.128C163.039 48.2987 162.324 48.4053 161.983 48.448L161.919 56.576C161.876 60.6507 161.129 63.6373 159.679 65.536C158.249 67.4347 155.796 68.384 152.319 68.384C148.841 68.384 146.42 67.4987 145.055 65.728C143.689 63.9573 142.985 61.0987 142.943 57.152C142.9 53.184 142.857 50.2613 142.815 48.384L140.159 47.552L140.415 45.6H148.735C148.713 45.6 148.713 45.6213 148.735 45.664C148.777 45.7067 148.82 45.8027 148.863 45.952C148.927 46.08 148.991 46.24 149.055 46.432C149.183 46.7733 149.268 47.3387 149.311 48.128C148.223 48.2987 147.508 48.4053 147.167 48.448L147.071 56.576C147.071 58.944 147.199 60.6293 147.455 61.632C147.711 62.6133 148.031 63.3067 148.415 63.712C149.247 64.5653 150.569 64.992 152.383 64.992C154.132 64.992 155.455 64.5013 156.351 63.52C157.076 62.7307 157.513 61.344 157.663 59.36C157.727 58.5707 157.759 57.5787 157.759 56.384ZM172.508 45.6C176.241 45.6 178.716 46.1333 179.932 47.2C181.041 48.16 181.596 49.6427 181.596 51.648C181.596 54.7627 179.974 56.8853 176.732 58.016L181.34 64.96L184.092 65.248C184.092 66.1653 183.846 67.0827 183.356 68H178.716L172.444 58.432H171.42L171.324 64.96L173.66 65.216C173.66 66.0907 173.414 67.0187 172.924 68H165.02L164.732 66.24C166.012 65.728 166.908 65.4187 167.42 65.312C167.377 62.688 167.324 59.52 167.26 55.808C167.196 52.096 167.153 49.6107 167.132 48.352L164.476 47.552C164.497 47.0613 164.593 46.4107 164.764 45.6H172.508ZM175.036 49.024C174.374 48.8747 173.489 48.8 172.38 48.8H171.484C171.441 51.744 171.42 53.952 171.42 55.424L172.988 55.392C174.246 55.3707 175.238 55.1147 175.964 54.624C176.71 54.112 177.084 53.1307 177.084 51.68C177.084 50.2293 176.401 49.344 175.036 49.024ZM207.236 48.448L207.14 68H203.044L192.484 50.784C192.398 57.0347 192.345 61.7493 192.324 64.928L194.532 65.216C194.532 66.0907 194.286 67.0187 193.796 68H186.02L185.732 66.24C186.926 65.7493 187.822 65.44 188.42 65.312C188.42 65.248 188.324 59.6053 188.132 48.384L185.476 47.552L185.732 45.6H194.052L203.364 62.304L202.884 48.384L200.228 47.552L200.484 45.6H208.804C208.782 45.6 208.782 45.6213 208.804 45.664C208.846 45.7067 208.889 45.8027 208.932 45.952C208.996 46.08 209.06 46.24 209.124 46.432C209.252 46.7733 209.337 47.3387 209.38 48.128C208.292 48.2987 207.577 48.4053 207.236 48.448ZM217.609 48.8C217.609 51.232 217.587 53.3227 217.545 55.072H220.809L221.129 52.864C222.217 52.864 223.273 53.1307 224.297 53.664V60.064L222.185 60.16C221.673 59.392 221.374 58.72 221.289 58.144H217.513C217.47 61.1307 217.449 63.3813 217.449 64.896H222.921L223.625 62.112C224.947 62.112 225.95 62.176 226.633 62.304C226.953 63.52 227.113 64.6293 227.113 65.632C227.113 66.6133 227.081 67.4027 227.017 68H211.145L210.857 66.24C212.243 65.7067 213.139 65.3973 213.545 65.312C213.523 64.0533 213.502 62.2827 213.481 60C213.395 54.88 213.321 51.008 213.257 48.384L210.601 47.552L210.857 45.6H226.569C226.633 46.176 226.665 46.9013 226.665 47.776C226.665 48.6293 226.505 49.824 226.185 51.36C225.523 51.5733 224.521 51.68 223.177 51.68L222.441 48.8H217.609ZM237.664 45.6C241.397 45.6 243.872 46.1333 245.088 47.2C246.197 48.16 246.752 49.6427 246.752 51.648C246.752 54.7627 245.131 56.8853 241.888 58.016L246.496 64.96L249.248 65.248C249.248 66.1653 249.003 67.0827 248.512 68H243.872L237.6 58.432H236.576L236.48 64.96L238.816 65.216C238.816 66.0907 238.571 67.0187 238.08 68H230.176L229.888 66.24C231.168 65.728 232.064 65.4187 232.576 65.312C232.533 62.688 232.48 59.52 232.416 55.808C232.352 52.096 232.309 49.6107 232.288 48.352L229.632 47.552C229.653 47.0613 229.749 46.4107 229.92 45.6H237.664ZM240.192 49.024C239.531 48.8747 238.645 48.8 237.536 48.8H236.64C236.597 51.744 236.576 53.952 236.576 55.424L238.144 55.392C239.403 55.3707 240.395 55.1147 241.12 54.624C241.867 54.112 242.24 53.1307 242.24 51.68C242.24 50.2293 241.557 49.344 240.192 49.024ZM259.08 64.928C261.555 64.928 262.792 63.872 262.792 61.76C262.792 60.864 262.323 60.1067 261.384 59.488C260.701 59.0187 259.763 58.5173 258.568 57.984C257.395 57.4293 256.509 56.992 255.912 56.672C255.336 56.352 254.664 55.904 253.896 55.328C252.424 54.1973 251.688 52.7893 251.688 51.104C251.688 49.4187 252.339 48.0213 253.64 46.912C254.963 45.7813 256.744 45.216 258.984 45.216C261.224 45.216 263.613 45.9307 266.152 47.36C266.152 48.896 265.992 50.56 265.672 52.352C264.989 52.5653 263.976 52.672 262.632 52.672L261.704 48.864C260.915 48.6293 260.051 48.512 259.112 48.512C258.173 48.512 257.448 48.7147 256.936 49.12C256.424 49.5253 256.168 50.1333 256.168 50.944C256.168 51.7333 256.563 52.448 257.352 53.088C258.163 53.7067 259.133 54.2827 260.264 54.816C261.395 55.328 262.173 55.6907 262.6 55.904C263.027 56.1173 263.571 56.4373 264.232 56.864C264.893 57.2907 265.395 57.696 265.736 58.08C266.611 59.104 267.048 60.2453 267.048 61.504C267.048 63.7227 266.312 65.4293 264.84 66.624C263.368 67.8187 261.448 68.416 259.08 68.416C257.821 68.416 256.435 68.2027 254.92 67.776C253.427 67.328 252.157 66.7627 251.112 66.08C251.155 64.7787 251.325 63.0187 251.624 60.8C252.477 60.6293 253.501 60.544 254.696 60.544L255.368 64.384C256.541 64.7467 257.779 64.928 259.08 64.928ZM292.936 45.952L292.968 46.272C292.968 47.1467 292.829 47.8933 292.552 48.512C292.275 48.7253 291.837 48.896 291.24 49.024L296.584 64.832L299.624 65.216C299.624 66.0907 299.379 67.0187 298.888 68H291.112L290.824 66.24C291.72 65.8987 292.307 65.6747 292.584 65.568L291.304 61.952H284.104C283.464 63.8507 283.123 64.8427 283.08 64.928L285.288 65.216C285.288 65.664 285.203 66.1867 285.032 66.784C284.861 67.36 284.701 67.7653 284.552 68H276.776L276.488 66.24C277.448 65.8347 278.312 65.536 279.08 65.344L284.456 48.896C283.027 48.6827 281.949 48.4053 281.224 48.064C281.224 47.4453 281.32 46.9013 281.512 46.432C281.96 46.2827 283.005 46.112 284.648 45.92C286.312 45.7067 287.891 45.6 289.384 45.6C290.899 45.6 292.083 45.7173 292.936 45.952ZM288.808 54.752L287.88 50.528H287.56L286.536 54.944L285.032 58.944H290.376L288.808 54.752ZM318.352 56.384L318.224 48.384L315.568 47.552L315.824 45.6H324.144C324.123 45.6 324.123 45.6213 324.144 45.664C324.187 45.7067 324.23 45.8027 324.272 45.952C324.336 46.08 324.4 46.24 324.464 46.432C324.592 46.7733 324.678 47.3387 324.72 48.128C323.632 48.2987 322.918 48.4053 322.576 48.448L322.512 56.576C322.47 60.6507 321.723 63.6373 320.272 65.536C318.843 67.4347 316.39 68.384 312.912 68.384C309.435 68.384 307.014 67.4987 305.648 65.728C304.283 63.9573 303.579 61.0987 303.536 57.152C303.494 53.184 303.451 50.2613 303.408 48.384L300.752 47.552L301.008 45.6H309.328C309.307 45.6 309.307 45.6213 309.328 45.664C309.371 45.7067 309.414 45.8027 309.456 45.952C309.52 46.08 309.584 46.24 309.648 46.432C309.776 46.7733 309.862 47.3387 309.904 48.128C308.816 48.2987 308.102 48.4053 307.76 48.448L307.664 56.576C307.664 58.944 307.792 60.6293 308.048 61.632C308.304 62.6133 308.624 63.3067 309.008 63.712C309.84 64.5653 311.163 64.992 312.976 64.992C314.726 64.992 316.048 64.5013 316.944 63.52C317.67 62.7307 318.107 61.344 318.256 59.36C318.32 58.5707 318.352 57.5787 318.352 56.384ZM325.261 51.424C324.92 49.952 324.749 48.7893 324.749 47.936C324.749 47.0827 324.781 46.304 324.845 45.6H343.437C343.523 46.624 343.565 47.3173 343.565 47.68C343.565 48.5973 343.395 49.8453 343.053 51.424C342.435 51.5947 341.421 51.68 340.013 51.68L339.277 48.448H336.557C336.536 49.2587 336.44 54.752 336.269 64.928L338.573 65.216C338.573 66.1973 338.328 67.1253 337.837 68H330.061L329.773 66.24C331.245 65.6853 332.173 65.376 332.557 65.312C332.557 65.2267 332.429 59.616 332.173 48.48H329.005L328.301 51.616C327.043 51.616 326.029 51.552 325.261 51.424ZM354.544 64.992C358.086 64.992 359.856 62.272 359.856 56.832C359.856 51.392 358.086 48.672 354.544 48.672C353.008 48.672 351.664 48.9067 350.512 49.376C349.531 51.424 349.04 53.8027 349.04 56.512C349.04 59.2 349.446 61.2907 350.256 62.784C351.067 64.256 352.496 64.992 354.544 64.992ZM354.544 45.216C358.107 45.216 360.614 46.1547 362.064 48.032C363.515 49.888 364.24 52.736 364.24 56.576C364.24 58.9867 363.931 61.0453 363.312 62.752C362.694 64.4587 361.648 65.824 360.176 66.848C358.704 67.872 356.827 68.384 354.544 68.384C351.067 68.384 348.539 67.4133 346.96 65.472C345.403 63.5307 344.624 60.704 344.624 56.992C344.624 49.1413 347.931 45.216 354.544 45.216ZM381.311 61.472L384.255 45.6H392.575C392.746 46.5173 392.831 47.168 392.831 47.552C391.807 47.9147 390.922 48.192 390.175 48.384L392.447 64.928L394.655 65.216C394.655 66.0907 394.41 67.0187 393.919 68H386.143L385.855 66.24C387.05 65.7493 387.946 65.44 388.543 65.312L386.079 52.256L382.815 66.432H379.551L374.495 50.784L371.775 64.928L373.983 65.216C373.983 66.0907 373.738 67.0187 373.247 68H365.471L365.183 66.24C366.378 65.7493 367.274 65.44 367.871 65.312L370.143 48.384L367.487 47.552L367.743 45.6H376.703L380.991 61.472H381.311ZM406.357 64.992C409.898 64.992 411.669 62.272 411.669 56.832C411.669 51.392 409.898 48.672 406.357 48.672C404.821 48.672 403.477 48.9067 402.325 49.376C401.344 51.424 400.853 53.8027 400.853 56.512C400.853 59.2 401.258 61.2907 402.069 62.784C402.88 64.256 404.309 64.992 406.357 64.992ZM406.357 45.216C409.92 45.216 412.426 46.1547 413.877 48.032C415.328 49.888 416.053 52.736 416.053 56.576C416.053 58.9867 415.744 61.0453 415.125 62.752C414.506 64.4587 413.461 65.824 411.989 66.848C410.517 67.872 408.64 68.384 406.357 68.384C402.88 68.384 400.352 67.4133 398.773 65.472C397.216 63.5307 396.437 60.704 396.437 56.992C396.437 49.1413 399.744 45.216 406.357 45.216ZM417.668 51.424C417.326 49.952 417.156 48.7893 417.156 47.936C417.156 47.0827 417.188 46.304 417.252 45.6H435.844C435.929 46.624 435.972 47.3173 435.972 47.68C435.972 48.5973 435.801 49.8453 435.46 51.424C434.841 51.5947 433.828 51.68 432.42 51.68L431.684 48.448H428.964C428.942 49.2587 428.846 54.752 428.676 64.928L430.98 65.216C430.98 66.1973 430.734 67.1253 430.244 68H422.468L422.18 66.24C423.652 65.6853 424.58 65.376 424.964 65.312C424.964 65.2267 424.836 59.616 424.58 48.48H421.412L420.708 51.616C419.449 51.616 418.436 51.552 417.668 51.424ZM446.727 45.6C446.705 45.6 446.705 45.6213 446.727 45.664C446.769 45.7067 446.812 45.8027 446.855 45.952C446.919 46.08 446.983 46.24 447.047 46.432C447.175 46.7733 447.26 47.3387 447.303 48.128C446.215 48.2987 445.5 48.4053 445.159 48.448L444.999 64.928L447.207 65.216C447.207 66.0907 446.961 67.0187 446.471 68H438.695L438.407 66.24C439.601 65.7493 440.497 65.44 441.095 65.312C441.073 64.0533 441.041 62.2827 440.999 60C440.935 54.88 440.871 51.008 440.807 48.384L438.151 47.552L438.407 45.6H446.727ZM460.483 62.016C460.867 60.6933 462.296 56.16 464.771 48.416L461.923 47.552L462.179 45.6H470.467C470.851 46.368 471.054 47.2107 471.075 48.128L469.091 48.416L462.723 68H458.467L451.587 48.416L448.739 47.552L448.995 45.6H457.283C457.667 46.368 457.87 47.2107 457.891 48.128C456.974 48.2773 456.344 48.3733 456.003 48.416L460.483 62.016ZM479.89 48.8C479.89 51.232 479.869 53.3227 479.826 55.072H483.09L483.41 52.864C484.498 52.864 485.554 53.1307 486.578 53.664V60.064L484.466 60.16C483.954 59.392 483.655 58.72 483.57 58.144H479.794C479.751 61.1307 479.73 63.3813 479.73 64.896H485.202L485.906 62.112C487.229 62.112 488.231 62.176 488.914 62.304C489.234 63.52 489.394 64.6293 489.394 65.632C489.394 66.6133 489.362 67.4027 489.298 68H473.426L473.138 66.24C474.525 65.7067 475.421 65.3973 475.826 65.312C475.805 64.0533 475.783 62.2827 475.762 60C475.677 54.88 475.602 51.008 475.538 48.384L472.882 47.552L473.138 45.6H488.85C488.914 46.176 488.946 46.9013 488.946 47.776C488.946 48.6293 488.786 49.824 488.466 51.36C487.805 51.5733 486.802 51.68 485.458 51.68L484.722 48.8H479.89ZM509.442 68.416C506.54 68.416 504.226 67.4347 502.498 65.472C500.77 63.5093 499.906 60.608 499.906 56.768C499.906 52.928 500.652 50.048 502.146 48.128C503.66 46.1867 506.103 45.216 509.474 45.216C510.903 45.216 512.268 45.408 513.57 45.792C514.892 46.176 515.788 46.5067 516.258 46.784C516.727 47.04 517.1 47.2747 517.378 47.488C517.378 48.8533 517.207 50.368 516.866 52.032C516.311 52.288 515.756 52.416 515.202 52.416C514.668 52.416 514.21 52.3947 513.826 52.352L513.154 49.024C512.215 48.768 511.298 48.64 510.402 48.64C509.143 48.64 507.575 48.896 505.698 49.408C504.759 51.2853 504.29 53.568 504.29 56.256C504.29 62.144 506.018 65.088 509.474 65.088C511.202 65.088 512.578 64.8 513.602 64.224C513.644 63.1147 513.687 61.408 513.73 59.104L511.042 58.272L511.298 56.32H519.042C519.298 56.7893 519.49 57.632 519.618 58.848C518.892 58.9973 518.114 59.104 517.282 59.168C517.41 61.92 517.474 64.288 517.474 66.272C516.855 66.6773 515.735 67.136 514.114 67.648C512.492 68.16 510.935 68.416 509.442 68.416ZM529.226 45.6C532.96 45.6 535.434 46.1333 536.65 47.2C537.76 48.16 538.314 49.6427 538.314 51.648C538.314 54.7627 536.693 56.8853 533.45 58.016L538.058 64.96L540.81 65.248C540.81 66.1653 540.565 67.0827 540.074 68H535.434L529.162 58.432H528.138L528.042 64.96L530.378 65.216C530.378 66.0907 530.133 67.0187 529.642 68H521.738L521.45 66.24C522.73 65.728 523.626 65.4187 524.138 65.312C524.096 62.688 524.042 59.52 523.978 55.808C523.914 52.096 523.872 49.6107 523.85 48.352L521.194 47.552C521.216 47.0613 521.312 46.4107 521.482 45.6H529.226ZM531.754 49.024C531.093 48.8747 530.208 48.8 529.098 48.8H528.202C528.16 51.744 528.138 53.952 528.138 55.424L529.706 55.392C530.965 55.3707 531.957 55.1147 532.682 54.624C533.429 54.112 533.802 53.1307 533.802 51.68C533.802 50.2293 533.12 49.344 531.754 49.024ZM551.794 64.992C555.336 64.992 557.106 62.272 557.106 56.832C557.106 51.392 555.336 48.672 551.794 48.672C550.258 48.672 548.914 48.9067 547.762 49.376C546.781 51.424 546.29 53.8027 546.29 56.512C546.29 59.2 546.696 61.2907 547.506 62.784C548.317 64.256 549.746 64.992 551.794 64.992ZM551.794 45.216C555.357 45.216 557.864 46.1547 559.314 48.032C560.765 49.888 561.49 52.736 561.49 56.576C561.49 58.9867 561.181 61.0453 560.562 62.752C559.944 64.4587 558.898 65.824 557.426 66.848C555.954 67.872 554.077 68.384 551.794 68.384C548.317 68.384 545.789 67.4133 544.21 65.472C542.653 63.5307 541.874 60.704 541.874 56.992C541.874 49.1413 545.181 45.216 551.794 45.216ZM580.321 56.384L580.193 48.384L577.537 47.552L577.793 45.6H586.113C586.092 45.6 586.092 45.6213 586.113 45.664C586.156 45.7067 586.198 45.8027 586.241 45.952C586.305 46.08 586.369 46.24 586.433 46.432C586.561 46.7733 586.646 47.3387 586.689 48.128C585.601 48.2987 584.886 48.4053 584.545 48.448L584.481 56.576C584.438 60.6507 583.692 63.6373 582.241 65.536C580.812 67.4347 578.358 68.384 574.881 68.384C571.404 68.384 568.982 67.4987 567.617 65.728C566.252 63.9573 565.548 61.0987 565.505 57.152C565.462 53.184 565.42 50.2613 565.377 48.384L562.721 47.552L562.977 45.6H571.297C571.276 45.6 571.276 45.6213 571.297 45.664C571.34 45.7067 571.382 45.8027 571.425 45.952C571.489 46.08 571.553 46.24 571.617 46.432C571.745 46.7733 571.83 47.3387 571.873 48.128C570.785 48.2987 570.07 48.4053 569.729 48.448L569.633 56.576C569.633 58.944 569.761 60.6293 570.017 61.632C570.273 62.6133 570.593 63.3067 570.977 63.712C571.809 64.5653 573.132 64.992 574.945 64.992C576.694 64.992 578.017 64.5013 578.913 63.52C579.638 62.7307 580.076 61.344 580.225 59.36C580.289 58.5707 580.321 57.5787 580.321 56.384ZM596.19 45.6C598.899 45.6 600.915 46.0693 602.238 47.008C603.561 47.9467 604.222 49.6533 604.222 52.128C604.222 54.1973 603.582 55.9253 602.302 57.312C601.022 58.6773 598.974 59.36 596.158 59.36C595.241 59.36 594.515 59.3493 593.982 59.328L593.918 64.96L596.254 65.216C596.254 66.1547 596.009 67.0827 595.518 68H587.614L587.326 66.24C588.435 65.792 589.331 65.4827 590.014 65.312C590.014 65.248 589.918 59.6053 589.726 48.384C589.385 48.2987 588.499 48.0213 587.07 47.552L587.326 45.6H596.19ZM595.486 56.32C596.915 56.2987 598.025 55.904 598.814 55.136C599.603 54.368 599.998 53.376 599.998 52.16C599.998 50.944 599.646 50.08 598.942 49.568C598.259 49.0347 597.182 48.768 595.71 48.768C595.134 48.768 594.59 48.7787 594.078 48.8C594.035 52.1707 594.014 54.688 594.014 56.352L595.486 56.32Z" fill="#642596"/>
<path d="M189.146 281.438V256.184H185.24V254.621H196.861V256.184H192.954V267.492H206.021V256.184H202.115V254.621H213.736V256.184H209.829V281.438H213.736V283H202.115V281.438H206.021V269.094H192.954V281.438H196.861V283H185.24V281.438H189.146ZM224.009 267.492H226.568C227.44 267.492 228.169 267.46 228.755 267.395C229.341 267.329 229.81 267.147 230.161 266.848C230.526 266.535 230.799 266.06 230.982 265.422C231.164 264.771 231.294 263.859 231.372 262.688H232.759V274.25H231.372C231.307 273.065 231.197 272.134 231.04 271.457C230.884 270.767 230.63 270.246 230.279 269.895C229.927 269.543 229.452 269.322 228.853 269.23C228.267 269.139 227.505 269.094 226.568 269.094H224.009V281.438H229.185C230.2 281.438 231.092 281.398 231.861 281.32C232.629 281.242 233.299 281.099 233.872 280.891C234.445 280.682 234.934 280.389 235.337 280.012C235.754 279.634 236.112 279.146 236.411 278.547C236.711 277.948 236.965 277.219 237.173 276.359C237.381 275.5 237.577 274.484 237.759 273.312H239.126L238.736 283H216.294V281.438H220.2V256.184H216.294V254.621H238.247L238.638 262.453H237.271C237.075 261.151 236.835 260.096 236.548 259.289C236.262 258.469 235.858 257.831 235.337 257.375C234.829 256.906 234.159 256.594 233.325 256.438C232.505 256.268 231.464 256.184 230.2 256.184H224.009V267.492ZM267.075 283.293H265.513L248.618 257.102L248.521 257.121V281.438H252.036V283H242.857V281.438H246.763V256.184H242.857V254.621H251.587L265.22 275.754L265.318 275.734V256.184H261.411V254.621H270.982V256.184H267.075V283.293ZM283.892 254.621C285.962 254.621 287.707 254.777 289.126 255.09C290.546 255.402 291.691 255.845 292.564 256.418C293.436 256.991 294.061 257.688 294.439 258.508C294.816 259.315 295.005 260.214 295.005 261.203C295.005 262.062 294.868 262.876 294.595 263.645C294.335 264.413 293.937 265.109 293.404 265.734C292.87 266.359 292.199 266.9 291.392 267.355C290.598 267.798 289.66 268.137 288.579 268.371V268.449C289.478 268.658 290.214 268.964 290.786 269.367C291.372 269.771 291.841 270.266 292.193 270.852C292.557 271.438 292.837 272.108 293.033 272.863C293.241 273.605 293.423 274.426 293.579 275.324C293.736 276.249 293.872 277.095 293.99 277.863C294.12 278.618 294.289 279.276 294.497 279.836C294.706 280.383 294.986 280.812 295.337 281.125C295.702 281.424 296.203 281.574 296.841 281.574C296.958 281.574 297.121 281.568 297.329 281.555C297.551 281.542 297.792 281.516 298.052 281.477V282.98C297.831 283.033 297.59 283.078 297.329 283.117C297.069 283.156 296.802 283.182 296.529 283.195C296.268 283.221 296.008 283.234 295.747 283.234C295.5 283.247 295.279 283.254 295.083 283.254C293.95 283.254 293.059 283.137 292.408 282.902C291.769 282.655 291.275 282.277 290.923 281.77C290.585 281.262 290.344 280.624 290.2 279.855C290.057 279.087 289.921 278.176 289.79 277.121C289.595 275.585 289.4 274.296 289.204 273.254C289.009 272.212 288.736 271.379 288.384 270.754C288.033 270.116 287.557 269.667 286.958 269.406C286.359 269.133 285.546 268.996 284.517 268.996H280.845V281.438H284.947V283H273.13V281.438H277.036V256.184H273.13V254.621H283.892ZM280.845 267.434H283.443C284.849 267.434 286.021 267.316 286.958 267.082C287.909 266.848 288.671 266.483 289.243 265.988C289.829 265.48 290.24 264.842 290.474 264.074C290.721 263.293 290.845 262.355 290.845 261.262C290.845 260.35 290.747 259.576 290.552 258.938C290.357 258.286 289.992 257.759 289.458 257.355C288.937 256.952 288.208 256.659 287.271 256.477C286.346 256.281 285.142 256.184 283.658 256.184H280.845V267.434ZM296.197 254.621H307.818V256.184H304.224L311.45 267.492L318.56 256.184H314.868V254.621H323.99V256.184H320.669L312.31 269.426V281.438H316.607V283H304.204V281.438H308.501V270.012L299.654 256.184H296.197V254.621ZM336.138 274.504H337.505C337.648 275.988 337.935 277.225 338.365 278.215C338.794 279.204 339.322 279.992 339.947 280.578C340.585 281.164 341.307 281.581 342.115 281.828C342.935 282.062 343.801 282.18 344.712 282.18C345.806 282.18 346.737 282.043 347.505 281.77C348.286 281.496 348.924 281.118 349.419 280.637C349.927 280.142 350.292 279.556 350.513 278.879C350.747 278.189 350.865 277.434 350.865 276.613C350.865 275.598 350.695 274.764 350.357 274.113C350.018 273.449 349.543 272.889 348.931 272.434C348.332 271.965 347.609 271.561 346.763 271.223C345.917 270.884 344.986 270.533 343.97 270.168C342.954 269.803 341.984 269.419 341.06 269.016C340.148 268.612 339.341 268.111 338.638 267.512C337.935 266.913 337.375 266.184 336.958 265.324C336.555 264.452 336.353 263.371 336.353 262.082C336.353 260.871 336.548 259.764 336.939 258.762C337.329 257.759 337.909 256.906 338.677 256.203C339.445 255.487 340.396 254.934 341.529 254.543C342.674 254.152 344.003 253.957 345.513 253.957C346.112 253.957 346.73 253.99 347.368 254.055C348.006 254.107 348.638 254.191 349.263 254.309C349.901 254.426 350.526 254.569 351.138 254.738C351.75 254.895 352.329 255.07 352.876 255.266L353.111 262.355H351.743C351.626 260.949 351.366 259.803 350.962 258.918C350.559 258.033 350.064 257.342 349.478 256.848C348.905 256.34 348.26 255.995 347.544 255.812C346.841 255.617 346.118 255.52 345.376 255.52C344.387 255.52 343.527 255.643 342.798 255.891C342.069 256.125 341.464 256.47 340.982 256.926C340.5 257.368 340.135 257.915 339.888 258.566C339.654 259.204 339.536 259.927 339.536 260.734C339.536 261.698 339.706 262.499 340.044 263.137C340.383 263.775 340.858 264.328 341.47 264.797C342.095 265.253 342.837 265.663 343.697 266.027C344.569 266.379 345.526 266.75 346.568 267.141C347.518 267.505 348.449 267.896 349.361 268.312C350.285 268.716 351.105 269.23 351.822 269.855C352.551 270.467 353.137 271.229 353.579 272.141C354.022 273.039 354.243 274.159 354.243 275.5C354.243 276.802 354.016 277.961 353.56 278.977C353.117 279.992 352.473 280.845 351.626 281.535C350.793 282.225 349.771 282.753 348.56 283.117C347.349 283.482 345.982 283.664 344.458 283.664C343.794 283.664 343.104 283.632 342.388 283.566C341.685 283.501 340.982 283.404 340.279 283.273C339.589 283.143 338.911 282.993 338.247 282.824C337.583 282.655 336.965 282.46 336.392 282.238L336.138 274.504ZM380.435 274.504L380.161 282.238C379.536 282.46 378.859 282.661 378.13 282.844C377.414 283.013 376.685 283.156 375.943 283.273C375.2 283.404 374.465 283.501 373.736 283.566C373.019 283.632 372.349 283.664 371.724 283.664C369.732 283.664 367.935 283.326 366.333 282.648C364.745 281.971 363.391 281.008 362.271 279.758C361.164 278.495 360.311 276.965 359.712 275.168C359.126 273.371 358.833 271.346 358.833 269.094C358.833 266.789 359.146 264.706 359.771 262.844C360.396 260.982 361.288 259.393 362.447 258.078C363.605 256.75 365.005 255.734 366.646 255.031C368.299 254.315 370.142 253.957 372.173 253.957C372.746 253.957 373.352 253.99 373.99 254.055C374.628 254.107 375.272 254.191 375.923 254.309C376.587 254.413 377.238 254.543 377.876 254.699C378.527 254.855 379.152 255.031 379.751 255.227L379.986 262.355H378.618C378.501 260.936 378.241 259.784 377.837 258.898C377.447 258 376.952 257.303 376.353 256.809C375.754 256.314 375.077 255.975 374.322 255.793C373.566 255.611 372.766 255.52 371.919 255.52C371.06 255.52 370.246 255.598 369.478 255.754C368.71 255.91 367.993 256.184 367.329 256.574C366.678 256.965 366.086 257.486 365.552 258.137C365.031 258.788 364.589 259.615 364.224 260.617C363.859 261.62 363.573 262.811 363.365 264.191C363.169 265.559 363.072 267.154 363.072 268.977C363.072 270.786 363.169 272.368 363.365 273.723C363.56 275.064 363.833 276.223 364.185 277.199C364.549 278.176 364.986 278.983 365.493 279.621C366.014 280.246 366.587 280.747 367.212 281.125C367.85 281.49 368.54 281.743 369.283 281.887C370.025 282.03 370.806 282.102 371.626 282.102C372.616 282.102 373.527 281.991 374.361 281.77C375.207 281.535 375.949 281.132 376.587 280.559C377.238 279.986 377.772 279.211 378.189 278.234C378.618 277.258 378.911 276.014 379.068 274.504H380.435ZM388.365 281.438V256.184H384.458V254.621H396.079V256.184H392.173V267.492H405.24V256.184H401.333V254.621H412.954V256.184H409.048V281.438H412.954V283H401.333V281.438H405.24V269.094H392.173V281.438H396.079V283H384.458V281.438H388.365ZM423.228 267.492H425.786C426.659 267.492 427.388 267.46 427.974 267.395C428.56 267.329 429.029 267.147 429.38 266.848C429.745 266.535 430.018 266.06 430.2 265.422C430.383 264.771 430.513 263.859 430.591 262.688H431.978V274.25H430.591C430.526 273.065 430.415 272.134 430.259 271.457C430.103 270.767 429.849 270.246 429.497 269.895C429.146 269.543 428.671 269.322 428.072 269.23C427.486 269.139 426.724 269.094 425.786 269.094H423.228V281.438H428.404C429.419 281.438 430.311 281.398 431.079 281.32C431.848 281.242 432.518 281.099 433.091 280.891C433.664 280.682 434.152 280.389 434.556 280.012C434.973 279.634 435.331 279.146 435.63 278.547C435.93 277.948 436.184 277.219 436.392 276.359C436.6 275.5 436.796 274.484 436.978 273.312H438.345L437.954 283H415.513V281.438H419.419V256.184H415.513V254.621H437.466L437.857 262.453H436.49C436.294 261.151 436.053 260.096 435.767 259.289C435.48 258.469 435.077 257.831 434.556 257.375C434.048 256.906 433.378 256.594 432.544 256.438C431.724 256.268 430.682 256.184 429.419 256.184H423.228V267.492ZM449.986 256.184V281.438H453.892V283H442.271V281.438H446.177V256.184H442.271V254.621H453.892V256.184H449.986ZM480.474 283.293H478.911L462.017 257.102L461.919 257.121V281.438H465.435V283H456.255V281.438H460.161V256.184H456.255V254.621H464.986L478.618 275.754L478.716 275.734V256.184H474.81V254.621H484.38V256.184H480.474V283.293ZM498.247 269.074C498.247 266.743 498.56 264.647 499.185 262.785C499.823 260.923 500.708 259.341 501.841 258.039C502.974 256.724 504.322 255.715 505.884 255.012C507.46 254.309 509.185 253.957 511.06 253.957C512.909 253.957 514.589 254.302 516.099 254.992C517.622 255.669 518.924 256.639 520.005 257.902C521.086 259.165 521.919 260.695 522.505 262.492C523.104 264.289 523.404 266.301 523.404 268.527C523.404 270.715 523.111 272.74 522.525 274.602C521.952 276.451 521.118 278.046 520.025 279.387C518.931 280.728 517.59 281.776 516.001 282.531C514.426 283.286 512.642 283.664 510.65 283.664C508.775 283.664 507.076 283.326 505.552 282.648C504.029 281.971 502.727 281.001 501.646 279.738C500.565 278.475 499.725 276.945 499.126 275.148C498.54 273.339 498.247 271.314 498.247 269.074ZM502.486 268.957C502.486 270.754 502.577 272.329 502.759 273.684C502.954 275.025 503.221 276.184 503.56 277.16C503.911 278.124 504.335 278.924 504.829 279.562C505.324 280.201 505.878 280.708 506.49 281.086C507.102 281.464 507.766 281.73 508.482 281.887C509.198 282.03 509.953 282.102 510.747 282.102C511.542 282.102 512.297 282.03 513.013 281.887C513.742 281.73 514.419 281.464 515.044 281.086C515.669 280.695 516.236 280.174 516.743 279.523C517.251 278.872 517.681 278.052 518.033 277.062C518.397 276.06 518.677 274.875 518.872 273.508C519.068 272.128 519.165 270.52 519.165 268.684C519.165 266.887 519.068 265.318 518.872 263.977C518.69 262.622 518.423 261.457 518.072 260.48C517.733 259.504 517.316 258.697 516.822 258.059C516.327 257.421 515.773 256.913 515.161 256.535C514.562 256.158 513.905 255.897 513.189 255.754C512.473 255.598 511.717 255.52 510.923 255.52C510.129 255.52 509.367 255.598 508.638 255.754C507.909 255.91 507.232 256.177 506.607 256.555C505.982 256.932 505.415 257.453 504.908 258.117C504.4 258.768 503.964 259.589 503.599 260.578C503.247 261.568 502.974 262.753 502.779 264.133C502.583 265.513 502.486 267.121 502.486 268.957ZM551.333 283.293H549.771L532.876 257.102L532.779 257.121V281.438H536.294V283H527.115V281.438H531.021V256.184H527.115V254.621H535.845L549.478 275.754L549.576 275.734V256.184H545.669V254.621H555.24V256.184H551.333V283.293ZM565.103 267.492H567.661C568.534 267.492 569.263 267.46 569.849 267.395C570.435 267.329 570.904 267.147 571.255 266.848C571.62 266.535 571.893 266.06 572.076 265.422C572.258 264.771 572.388 263.859 572.466 262.688H573.853V274.25H572.466C572.401 273.065 572.29 272.134 572.134 271.457C571.978 270.767 571.724 270.246 571.372 269.895C571.021 269.543 570.546 269.322 569.947 269.23C569.361 269.139 568.599 269.094 567.661 269.094H565.103V281.438H570.279C571.294 281.438 572.186 281.398 572.954 281.32C573.723 281.242 574.393 281.099 574.966 280.891C575.539 280.682 576.027 280.389 576.431 280.012C576.848 279.634 577.206 279.146 577.505 278.547C577.805 277.948 578.059 277.219 578.267 276.359C578.475 275.5 578.671 274.484 578.853 273.312H580.22L579.829 283H557.388V281.438H561.294V256.184H557.388V254.621H579.341L579.732 262.453H578.365C578.169 261.151 577.928 260.096 577.642 259.289C577.355 258.469 576.952 257.831 576.431 257.375C575.923 256.906 575.253 256.594 574.419 256.438C573.599 256.268 572.557 256.184 571.294 256.184H565.103V267.492Z" fill="#8F00FF"/>
<path d="M1063.03 6.98887H1087.33V11.2457H1079.27V23.4376C1079.27 24.4846 1079.1 25.1734 1078.77 25.5041C1078.47 25.8347 1077.74 26 1076.58 26H1071.13V11.2457H1063.03V6.98887ZM1090.02 26V9.13796C1090.02 8.20118 1090.21 7.6088 1090.6 7.36083C1091.01 7.11286 1091.71 6.98887 1092.71 6.98887H1098.16V14.0561H1106.26V6.98887H1114.4V23.5203C1114.4 24.5122 1114.24 25.1734 1113.91 25.5041C1113.6 25.8347 1112.86 26 1111.68 26H1106.26V18.1889H1098.16V26H1090.02ZM1118.47 26V9.46859C1118.47 8.44915 1118.65 7.78789 1119.01 7.48482C1119.37 7.15419 1120.07 6.98887 1121.12 6.98887H1141.2V11.1631H1126.61V14.2627H1139.84V18.4369H1126.61V21.8258H1141.2V26H1118.47ZM863.957 43.1225C863.957 44.8858 863.847 46.4012 863.627 47.6686C863.434 48.936 862.952 49.9692 862.18 50.7683C861.409 51.5673 860.196 52.1597 858.543 52.5454C856.89 52.9036 854.617 53.0827 851.724 53.0827C849.355 53.0827 847.398 52.9724 845.855 52.752C844.34 52.5041 843.155 52.1321 842.301 51.6362C841.475 51.1402 840.868 50.5203 840.483 49.7764C840.097 49.0049 839.863 48.1095 839.78 47.09C839.725 46.0706 839.697 44.9134 839.697 43.6184V37.5431C839.697 36.5512 839.725 35.8073 839.78 35.3114C839.835 34.7879 840.069 34.4435 840.483 34.2782C840.923 34.0853 841.654 33.9889 842.673 33.9889H847.839V44.9409C847.839 46.0706 847.963 46.8972 848.211 47.4206C848.487 47.9441 848.914 48.2885 849.492 48.4539C850.098 48.6192 850.856 48.7018 851.765 48.7018C853.253 48.7018 854.3 48.4401 854.906 47.9166C855.512 47.3655 855.816 46.3874 855.816 44.9823V33.9889H860.899C861.946 33.9889 862.676 34.0853 863.089 34.2782C863.53 34.4435 863.778 34.7879 863.833 35.3114C863.916 35.8073 863.957 36.5512 863.957 37.5431V43.1225ZM867.596 53V36.5512C867.596 35.5043 867.747 34.8154 868.05 34.4848C868.381 34.1542 869.152 33.9889 870.365 33.9889H878.135L885.904 44.7756L886.152 46.0568V33.9889H892.062C892.035 34.044 892.007 34.2368 891.98 34.5675C891.952 34.8981 891.938 35.2701 891.938 35.6833C891.938 36.0691 891.938 36.4135 891.938 36.7166V50.8509C891.938 51.8152 891.704 52.4214 891.236 52.6694C890.767 52.8898 889.941 53 888.756 53H881.689L873.63 41.8826L873.382 40.5601V53H867.596ZM896.13 53C896.13 50.2448 896.13 47.4895 896.13 44.7343C896.13 41.9515 896.13 39.1825 896.13 36.4273C896.13 35.9038 896.172 35.4629 896.254 35.1047C896.337 34.719 896.557 34.4435 896.915 34.2782C897.301 34.0853 897.921 33.9889 898.775 33.9889H904.272V53H896.13ZM918.61 53C917.287 53 916.282 52.7934 915.593 52.3801C914.931 51.9392 914.325 51.1264 913.774 49.9417L906.707 33.9889H915.675L920.139 45.1889C920.222 45.4644 920.332 45.6711 920.47 45.8088C920.635 45.9466 920.786 46.0155 920.924 46.0155H921.131L926.09 33.9889H932.124L923.61 53H918.61ZM934.311 53V36.4686C934.311 35.4491 934.49 34.7879 934.848 34.4848C935.206 34.1542 935.909 33.9889 936.956 33.9889H957.041V38.1631H942.452V41.2627H955.678V45.4369H942.452V48.8258H957.041V53H934.311ZM972.372 47.1313C972.372 47.1313 972.138 47.1313 971.67 47.1313C971.229 47.1313 970.678 47.1451 970.017 47.1727C969.383 47.1727 968.763 47.1727 968.157 47.1727V53H960.015V36.6752C960.015 35.8762 960.194 35.2287 960.552 34.7328C960.911 34.2368 961.696 33.9889 962.908 33.9889C963.321 33.9889 963.969 33.9889 964.851 33.9889C965.76 33.9613 966.793 33.9475 967.95 33.9475C969.107 33.9475 970.306 33.9475 971.546 33.9475C972.813 33.92 974.012 33.92 975.141 33.9475C976.271 33.9475 977.249 33.9613 978.076 33.9889C978.93 33.9889 979.536 34.0027 979.894 34.0302C981.41 34.168 982.553 34.6088 983.324 35.3527C984.096 36.0966 984.482 37.3365 984.482 39.0723C984.482 40.7254 984.385 41.8964 984.192 42.5852C983.999 43.274 983.669 43.7975 983.2 44.1557C982.98 44.3486 982.663 44.5001 982.25 44.6103C981.864 44.693 981.437 44.7343 980.969 44.7343V44.9409C981.189 44.9409 981.423 44.9409 981.671 44.9409C981.947 44.9409 982.181 44.9547 982.374 44.9823C983.421 45.1751 984.055 45.5609 984.275 46.1395C984.495 46.7181 984.606 47.338 984.606 47.9992V51.3055C984.606 51.8841 984.661 52.3112 984.771 52.5867C984.909 52.8347 984.991 52.9724 985.019 53H978.861C978.034 53 977.387 52.876 976.918 52.628C976.478 52.3801 976.257 51.8566 976.257 51.0576V48.9911C976.257 48.137 976.064 47.6135 975.679 47.4206C975.32 47.2278 974.673 47.1313 973.736 47.1313H972.372ZM968.157 43.3291C968.405 43.3291 968.804 43.3429 969.355 43.3705C969.906 43.3705 970.499 43.3705 971.132 43.3705C971.794 43.3705 972.4 43.3705 972.951 43.3705C973.502 43.3705 973.888 43.3705 974.108 43.3705C974.659 43.3705 975.155 43.1776 975.596 42.7919C976.037 42.4061 976.257 41.7035 976.257 40.6841C976.257 39.9677 976.133 39.4029 975.885 38.9896C975.637 38.5763 975.238 38.3284 974.687 38.2457C974.329 38.1906 973.86 38.1631 973.282 38.1631C972.731 38.1631 972.152 38.1631 971.546 38.1631C970.94 38.1631 970.375 38.1768 969.851 38.2044C969.355 38.2044 968.983 38.2044 968.735 38.2044C968.708 38.2044 968.598 38.2457 968.405 38.3284C968.239 38.3835 968.157 38.5488 968.157 38.8243V43.3291ZM987.491 47.8753C988.234 48.1783 989.157 48.3988 990.26 48.5365C991.389 48.6467 992.56 48.7294 993.772 48.7845C994.985 48.812 996.073 48.8258 997.037 48.8258C997.396 48.8258 997.85 48.8258 998.401 48.8258C998.98 48.7983 999.434 48.7845 999.765 48.7845C1000.4 48.7569 1000.91 48.6881 1001.29 48.5778C1001.71 48.4401 1002.01 48.261 1002.2 48.0406C1002.4 47.7926 1002.49 47.462 1002.49 47.0487C1002.49 46.5252 1002.33 46.167 1002 45.9741C1001.69 45.7813 1001.18 45.6848 1000.47 45.6848C1000.19 45.6848 999.862 45.6848 999.476 45.6848C999.118 45.6848 998.622 45.6848 997.988 45.6848C997.354 45.6848 996.514 45.6848 995.467 45.6848C994.503 45.6848 993.566 45.6435 992.657 45.5609C991.747 45.4782 990.921 45.2716 990.177 44.9409C989.433 44.6103 988.841 44.0868 988.4 43.3705C987.959 42.6541 987.738 41.6484 987.738 40.3535C987.738 38.8381 987.986 37.6533 988.482 36.7992C989.006 35.9175 989.736 35.2701 990.673 34.8568C991.61 34.4159 992.739 34.1404 994.062 34.0302C995.412 33.8924 996.913 33.8236 998.567 33.8236C999.558 33.8236 1000.62 33.8373 1001.75 33.8649C1002.88 33.8649 1003.94 33.8924 1004.93 33.9475C1005.92 34.0026 1006.67 34.0578 1007.16 34.1129C1008.29 34.168 1009.16 34.471 1009.77 35.0221C1010.37 35.5456 1010.68 36.1931 1010.68 36.9645C1010.68 37.0747 1010.68 37.2814 1010.68 37.5845C1010.68 37.8875 1010.68 38.1906 1010.68 38.4937C1010.68 38.7692 1010.68 38.9207 1010.68 38.9483C1010.51 38.783 1010.12 38.659 1009.52 38.5763C1008.91 38.4661 1008.2 38.3835 1007.37 38.3284C1006.57 38.2733 1005.77 38.2457 1004.97 38.2457C1004.2 38.2182 1003.51 38.2044 1002.91 38.2044H998.691C998.029 38.2044 997.506 38.2595 997.12 38.3697C996.762 38.4799 996.5 38.6452 996.335 38.8656C996.197 39.0861 996.128 39.3754 996.128 39.7335C996.128 40.0091 996.17 40.2433 996.252 40.4361C996.362 40.629 996.541 40.7805 996.789 40.8907C997.065 41.0009 997.437 41.0561 997.905 41.0561C999.806 41.0561 1001.29 41.0561 1002.37 41.0561C1003.47 41.0561 1004.12 41.0561 1004.31 41.0561C1005.69 41.0561 1006.89 41.18 1007.91 41.428C1008.93 41.6484 1009.71 42.1581 1010.26 42.9572C1010.81 43.7286 1011.09 44.9409 1011.09 46.5941C1011.09 48.1095 1010.8 49.3355 1010.22 50.2723C1009.64 51.1815 1008.83 51.8566 1007.78 52.2974C1006.74 52.7107 1005.51 52.9587 1004.1 53.0413C1002.56 53.124 1001.09 53.1653 999.682 53.1653C998.305 53.1929 996.831 53.1929 995.26 53.1653C993.993 53.1378 992.877 53.0827 991.913 53C990.948 52.9449 990.136 52.8209 989.474 52.628C988.813 52.4352 988.317 52.1734 987.986 51.8428C987.656 51.4846 987.491 51.0438 987.491 50.5203V47.8753ZM1014.51 53C1014.51 50.2448 1014.51 47.4895 1014.51 44.7343C1014.51 41.9515 1014.51 39.1825 1014.51 36.4273C1014.51 35.9038 1014.55 35.4629 1014.63 35.1047C1014.71 34.719 1014.93 34.4435 1015.29 34.2782C1015.68 34.0853 1016.3 33.9889 1017.15 33.9889H1022.65V53H1014.51ZM1025.37 33.9889H1049.67V38.2457H1041.61V50.4376C1041.61 51.4846 1041.45 52.1734 1041.12 52.5041C1040.82 52.8347 1040.08 53 1038.93 53H1033.47V38.2457H1025.37V33.9889ZM1059.6 53V45.4782L1051.04 35.0221L1050.17 33.9889H1061.5L1065.8 40.1055L1069.68 33.9889H1077.04L1075.88 35.1874L1067.7 45.4782L1067.74 50.1483C1067.77 50.9749 1067.67 51.5948 1067.45 52.0081C1067.23 52.3938 1066.86 52.6556 1066.33 52.7934C1065.84 52.9311 1065.12 53 1064.18 53H1059.6ZM1102.65 53.2893C1100.25 53.2893 1098.23 53.1378 1096.57 52.8347C1094.95 52.5041 1093.63 51.9668 1092.61 51.2229C1091.59 50.4514 1090.84 49.4457 1090.37 48.2059C1089.93 46.9385 1089.71 45.368 1089.71 43.4944C1089.71 41.5933 1089.95 40.0228 1090.42 38.783C1090.88 37.5156 1091.63 36.5099 1092.65 35.766C1093.67 35.0221 1095 34.4986 1096.66 34.1955C1098.31 33.8649 1100.33 33.6996 1102.73 33.6996C1105.13 33.6996 1107.14 33.8649 1108.77 34.1955C1110.42 34.4986 1111.74 35.0359 1112.73 35.8073C1113.75 36.5512 1114.48 37.5569 1114.92 38.8243C1115.39 40.0642 1115.63 41.6209 1115.63 43.4944C1115.63 45.368 1115.39 46.9385 1114.92 48.2059C1114.46 49.4457 1113.71 50.4514 1112.69 51.2229C1111.7 51.9668 1110.38 52.5041 1108.72 52.8347C1107.07 53.1378 1105.05 53.2893 1102.65 53.2893ZM1102.69 49.1151C1103.52 49.1151 1104.22 49.0325 1104.8 48.8671C1105.38 48.6743 1105.85 48.3712 1106.2 47.9579C1106.59 47.5446 1106.85 46.9798 1106.99 46.2634C1107.15 45.5195 1107.24 44.5965 1107.24 43.4944C1107.24 42.3648 1107.15 41.4418 1106.99 40.7254C1106.85 40.0091 1106.59 39.4442 1106.2 39.031C1105.85 38.5901 1105.38 38.287 1104.8 38.1217C1104.22 37.9564 1103.52 37.8738 1102.69 37.8738C1101.86 37.8738 1101.15 37.9564 1100.54 38.1217C1099.96 38.287 1099.49 38.5901 1099.14 39.031C1098.78 39.4442 1098.52 40.0091 1098.35 40.7254C1098.19 41.4418 1098.1 42.3648 1098.1 43.4944C1098.1 44.5965 1098.19 45.5195 1098.35 46.2634C1098.52 46.9798 1098.78 47.5446 1099.14 47.9579C1099.49 48.3712 1099.96 48.6743 1100.54 48.8671C1101.15 49.0325 1101.86 49.1151 1102.69 49.1151ZM1118.67 53V36.9232C1118.67 36.1793 1118.7 35.6007 1118.76 35.1874C1118.84 34.7466 1119.06 34.4435 1119.42 34.2782C1119.8 34.0853 1120.44 33.9889 1121.32 33.9889H1141.45V38.1631H1126.86V41.2627H1140.08V45.4369H1126.86V53H1118.67ZM928.934 80L935.877 64.3778C936.373 63.2757 937.076 62.4078 937.985 61.7741C938.922 61.1404 940.34 60.8236 942.242 60.8236C943.785 60.8236 945.052 61.1266 946.044 61.7328C947.063 62.3114 947.848 63.1931 948.4 64.3778L955.343 80H946.54L944.763 76.1151H936.786L935.133 80H928.934ZM938.067 73.0981H943.233L941.167 68.2214C941.139 68.0836 941.084 67.9458 941.002 67.8081C940.947 67.6703 940.85 67.6014 940.712 67.6014C940.547 67.6014 940.423 67.6703 940.34 67.8081C940.285 67.9458 940.23 68.0836 940.175 68.2214L938.067 73.0981ZM981.526 70.1225C981.526 71.8858 981.415 73.4012 981.195 74.6686C981.002 75.936 980.52 76.9692 979.749 77.7683C978.977 78.5673 977.765 79.1597 976.112 79.5454C974.458 79.9036 972.185 80.0827 969.292 80.0827C966.923 80.0827 964.967 79.9724 963.424 79.752C961.908 79.5041 960.724 79.1321 959.869 78.6362C959.043 78.1402 958.437 77.5203 958.051 76.7764C957.665 76.0049 957.431 75.1095 957.348 74.09C957.293 73.0706 957.266 71.9134 957.266 70.6184V64.5431C957.266 63.5512 957.293 62.8073 957.348 62.3114C957.404 61.7879 957.638 61.4435 958.051 61.2782C958.492 61.0853 959.222 60.9889 960.241 60.9889H965.408V71.9409C965.408 73.0706 965.531 73.8972 965.779 74.4206C966.055 74.9441 966.482 75.2885 967.061 75.4539C967.667 75.6192 968.424 75.7018 969.334 75.7018C970.822 75.7018 971.869 75.4401 972.475 74.9166C973.081 74.3655 973.384 73.3874 973.384 71.9823V60.9889H978.467C979.514 60.9889 980.244 61.0853 980.658 61.2782C981.099 61.4435 981.347 61.7879 981.402 62.3114C981.484 62.8073 981.526 63.5512 981.526 64.5431V70.1225ZM984.172 70.4944C984.172 68.5933 984.406 67.0091 984.875 65.7417C985.343 64.4742 986.128 63.4824 987.231 62.766C988.36 62.0496 989.862 61.5537 991.735 61.2782C993.637 60.9751 995.992 60.8236 998.803 60.8236C999.932 60.8236 1000.99 60.8649 1001.98 60.9475C1002.98 61.0026 1004.02 61.0991 1005.13 61.2368C1006.39 61.4022 1007.22 61.719 1007.61 62.1874C1008.02 62.6282 1008.23 63.2757 1008.23 64.1298V66.6509C1007.32 66.3203 1006.31 66.0585 1005.21 65.8656C1004.11 65.6728 1003.02 65.5212 1001.94 65.411C1000.9 65.3008 999.96 65.2457 999.133 65.2457C997.618 65.2457 996.364 65.3559 995.372 65.5763C994.38 65.7692 993.65 66.2514 993.182 67.0228C992.741 67.7668 992.521 68.9377 992.521 70.5358C992.521 72.0511 992.755 73.1808 993.223 73.9247C993.719 74.6686 994.491 75.1646 995.538 75.4125C996.612 75.633 998.017 75.7432 999.753 75.7432C1000.52 75.7432 1001.34 75.7018 1002.19 75.6192C1003.05 75.5365 1003.95 75.4125 1004.92 75.2472C1005.91 75.0544 1007.01 74.8339 1008.23 74.586V76.9004C1008.23 77.6718 1008.01 78.3055 1007.56 78.8015C1007.15 79.2974 1006.28 79.6143 1004.96 79.752C1003.89 79.9173 1002.81 80.0276 1001.74 80.0827C1000.69 80.1653 999.602 80.2066 998.472 80.2066C995.634 80.2066 993.292 80.0551 991.446 79.752C989.6 79.449 988.14 78.9392 987.065 78.2229C986.018 77.5065 985.274 76.5284 984.834 75.2885C984.393 74.0211 984.172 72.4231 984.172 70.4944ZM1031.19 80.6199C1030.26 80.6199 1029.38 80.5235 1028.55 80.3306C1027.72 80.1653 1026.99 79.8485 1026.36 79.3801C1026.17 79.2148 1025.93 79.0357 1025.66 78.8428C1025.38 78.6224 1025.09 78.3882 1024.79 78.1402C1024.48 77.8647 1024.17 77.5892 1023.84 77.3136C1023.53 77.0381 1023.23 76.7626 1022.93 76.4871C1022.62 76.2116 1022.34 75.936 1022.06 75.6605C1021.73 75.3299 1021.44 75.0544 1021.19 74.8339C1020.94 74.6135 1020.65 74.3793 1020.32 74.1313L1019.54 73.7594V80H1011.44V63.4273C1011.44 62.9038 1011.48 62.4629 1011.56 62.1047C1011.65 61.7466 1011.87 61.471 1012.22 61.2782C1012.58 61.0853 1013.19 60.9889 1014.04 60.9889C1014.95 60.9889 1015.86 60.9889 1016.77 60.9889C1017.71 60.9889 1018.63 60.9889 1019.54 60.9889C1019.54 61.4022 1019.54 61.8843 1019.54 62.4354C1019.54 62.9864 1019.54 63.5512 1019.54 64.1298C1019.54 64.7084 1019.54 65.2733 1019.54 65.8243C1019.54 66.3754 1019.54 66.8437 1019.54 67.2295L1020.32 66.8989C1020.52 66.7886 1020.7 66.6647 1020.86 66.5269C1021.05 66.3616 1021.29 66.1549 1021.56 65.907C1021.81 65.6314 1022.2 65.2733 1022.72 64.8324C1023.27 64.364 1023.84 63.8819 1024.42 63.3859C1025.02 62.8624 1025.5 62.4491 1025.86 62.1461C1026.61 61.595 1027.42 61.2231 1028.3 61.0302C1029.21 60.8373 1030.31 60.7409 1031.61 60.7409C1032.54 60.7409 1033.32 60.7822 1033.92 60.8649C1034.55 60.92 1035.23 61.0164 1035.95 61.1542C1035.89 61.1817 1035.73 61.3333 1035.45 61.6088C1035.2 61.8568 1034.91 62.1185 1034.58 62.394C1034.25 62.6696 1034 62.8762 1033.84 63.014C1032.76 63.7579 1031.62 64.5707 1030.41 65.4524C1029.2 66.3065 1028.01 67.1744 1026.85 68.0561C1025.7 68.9102 1024.66 69.7505 1023.75 70.5771L1023.8 68.2214C1024.62 68.9102 1025.53 69.6541 1026.52 70.4531C1027.52 71.2521 1028.56 72.0925 1029.66 72.9741C1030.77 73.8558 1031.9 74.7513 1033.05 75.6605C1034.21 76.5422 1035.38 77.3963 1036.57 78.2229C1036.4 78.4708 1036.08 78.7877 1035.62 79.1734C1035.15 79.5316 1034.54 79.8622 1033.8 80.1653C1033.05 80.4684 1032.19 80.6199 1031.19 80.6199ZM1046.9 60.9889V75.8258H1058.93V80H1038.8V63.5512C1038.8 62.9726 1038.83 62.4905 1038.89 62.1047C1038.97 61.719 1039.19 61.4435 1039.55 61.2782C1039.93 61.0853 1040.57 60.9889 1041.45 60.9889H1046.9ZM1059.26 80L1066.2 64.3778C1066.7 63.2757 1067.4 62.4078 1068.31 61.7741C1069.24 61.1404 1070.66 60.8236 1072.56 60.8236C1074.11 60.8236 1075.37 61.1266 1076.37 61.7328C1077.39 62.3114 1078.17 63.1931 1078.72 64.3778L1085.66 80H1076.86L1075.08 76.1151H1067.11L1065.46 80H1059.26ZM1068.39 73.0981H1073.56L1071.49 68.2214C1071.46 68.0836 1071.41 67.9458 1071.32 67.8081C1071.27 67.6703 1071.17 67.6014 1071.03 67.6014C1070.87 67.6014 1070.75 67.6703 1070.66 67.8081C1070.61 67.9458 1070.55 68.0836 1070.5 68.2214L1068.39 73.0981ZM1088 80V63.5512C1088 62.5043 1088.15 61.8154 1088.46 61.4848C1088.79 61.1542 1089.56 60.9889 1090.77 60.9889H1098.54L1106.31 71.7756L1106.56 73.0568V60.9889H1112.47C1112.44 61.044 1112.41 61.2368 1112.39 61.5675C1112.36 61.8981 1112.34 62.2701 1112.34 62.6833C1112.34 63.0691 1112.34 63.4135 1112.34 63.7166V77.8509C1112.34 78.8152 1112.11 79.4214 1111.64 79.6694C1111.17 79.8898 1110.35 80 1109.16 80H1102.09L1094.04 68.8826L1093.79 67.5601V80H1088ZM1141.33 70.5358C1141.33 72.4644 1141.11 74.0625 1140.67 75.3299C1140.23 76.5697 1139.54 77.5341 1138.61 78.2229C1137.67 78.8841 1136.44 79.3525 1134.93 79.628C1133.41 79.876 1131.57 80 1129.39 80C1127.96 80 1126.63 80 1125.42 80C1124.21 80 1123.07 80 1121.99 80C1120.94 80 1119.95 80 1119.02 80C1118.08 80 1117.18 80 1116.33 80V63.7579C1116.33 62.766 1116.55 62.0634 1116.99 61.6501C1117.43 61.2093 1118.19 60.9889 1119.26 60.9889C1120.09 60.9889 1120.94 60.9889 1121.83 60.9889C1122.71 60.9889 1123.59 60.9889 1124.47 60.9889C1125.35 60.9889 1126.23 60.9889 1127.12 60.9889C1128.02 60.9889 1128.89 60.9889 1129.72 60.9889C1131.84 60.9889 1133.63 61.1404 1135.09 61.4435C1136.58 61.719 1137.78 62.2012 1138.69 62.89C1139.62 63.5788 1140.3 64.5431 1140.71 65.783C1141.13 66.9953 1141.33 68.5795 1141.33 70.5358ZM1124.47 75.9498C1124.75 75.9498 1125.05 75.9498 1125.38 75.9498C1125.71 75.9498 1126.05 75.9498 1126.41 75.9498C1126.77 75.9498 1127.13 75.9498 1127.49 75.9498C1127.85 75.9498 1128.16 75.9498 1128.44 75.9498C1129.26 75.9498 1129.97 75.8809 1130.55 75.7432C1131.12 75.5778 1131.59 75.2885 1131.95 74.8753C1132.31 74.462 1132.57 73.9109 1132.74 73.2221C1132.9 72.5058 1132.98 71.6103 1132.98 70.5358C1132.98 68.9928 1132.82 67.8356 1132.49 67.0642C1132.19 66.2652 1131.69 65.7279 1131 65.4524C1130.31 65.1768 1129.38 65.0391 1128.19 65.0391C1127.86 65.0391 1127.47 65.0391 1127.03 65.0391C1126.59 65.0391 1126.17 65.0391 1125.75 65.0391C1125.34 65.0391 1124.95 65.0391 1124.59 65.0391C1124.57 65.2319 1124.54 65.4248 1124.51 65.6177C1124.48 65.8105 1124.47 66.0447 1124.47 66.3203V75.9498Z" fill="#A6A6A6"/>
<path d="M772.07 332V303.07H784.676V305.88H775.707V315.138H782.981V317.948H775.707V329.19H785.089V332H772.07ZM789.417 332V303.07H795.493L802.229 328.074V303.07H805.907V332H800.7L793.054 305.715V332H789.417ZM811.127 329.272H815.632C817.202 329.272 818.332 328.804 819.021 327.867C819.737 326.93 820.095 325.773 820.095 324.396C820.095 323.321 819.889 322.398 819.475 321.627C819.09 320.828 818.608 320.166 818.029 319.643C817.45 319.119 816.665 318.513 815.673 317.824C814.626 317.108 813.772 316.46 813.111 315.882C812.477 315.276 811.94 314.518 811.499 313.609C811.058 312.7 810.838 311.611 810.838 310.344C810.838 308.14 811.499 306.376 812.822 305.054C814.144 303.731 815.976 303.07 818.318 303.07H821.666V305.798H818.484C817.161 305.798 816.155 306.225 815.467 307.079C814.778 307.933 814.433 308.925 814.433 310.055C814.433 311.157 814.75 312.066 815.384 312.782C816.018 313.499 816.982 314.311 818.277 315.221C819.462 316.075 820.412 316.846 821.129 317.535C821.845 318.196 822.451 319.078 822.947 320.18C823.471 321.282 823.732 322.605 823.732 324.148C823.732 326.737 822.988 328.694 821.501 330.016C820.04 331.339 818.029 332 815.467 332H811.127V329.272ZM827.767 303.07H835.082C840.124 303.07 842.645 305.632 842.645 310.757C842.645 313.43 841.915 315.524 840.455 317.039C839.022 318.527 836.969 319.271 834.297 319.271H831.404V332H827.767V303.07ZM834.049 316.543C835.619 316.543 836.832 316.006 837.686 314.931C838.568 313.857 839.008 312.465 839.008 310.757C839.008 309.132 838.581 307.905 837.727 307.079C836.901 306.225 835.675 305.798 834.049 305.798H831.404V316.543H834.049ZM846.494 332V303.07H850.131V332H846.494ZM856.18 303.07H863.826C866.361 303.07 868.235 303.718 869.447 305.012C870.659 306.28 871.265 308.195 871.265 310.757C871.265 312.686 870.893 314.366 870.149 315.799C869.405 317.232 868.345 318.224 866.967 318.775L872.712 332H869.158L863.537 319.312H859.735V332H856.18V303.07ZM862.752 316.584C864.322 316.584 865.534 316.047 866.388 314.973C867.27 313.871 867.711 312.465 867.711 310.757C867.711 309.132 867.284 307.905 866.43 307.079C865.603 306.225 864.377 305.798 862.752 305.798H859.817V316.584H862.752ZM874.372 332L880.902 303.07H886.398L892.68 332H889.291L887.266 323.486H879.744L877.885 332H874.372ZM880.364 320.676H886.646L883.671 305.798H883.381L880.364 320.676ZM896.54 332V303.07H900.177V329.272H908.649V332H896.54ZM918.374 303.07H925.565C928.072 303.07 930.015 303.704 931.392 304.971C932.77 306.239 933.459 308.098 933.459 310.55V324.52C933.459 326.972 932.77 328.831 931.392 330.099C930.015 331.339 928.072 331.972 925.565 332H918.374V303.07ZM925.565 329.19C926.833 329.19 927.852 328.831 928.623 328.115C929.422 327.371 929.822 326.393 929.822 325.181V309.889C929.822 308.677 929.422 307.713 928.623 306.996C927.852 306.252 926.833 305.88 925.565 305.88H922.052V329.19H925.565ZM938.272 332V303.07H950.878V305.88H941.909V315.138H949.183V317.948H941.909V329.19H951.291V332H938.272ZM961.116 332L954.173 303.07H957.768L963.513 328.694L969.216 303.07H972.812L965.993 332H961.116ZM981.083 332L987.613 303.07H993.11L999.392 332H996.003L993.978 323.486H986.456L984.596 332H981.083ZM987.076 320.676H993.358L990.382 305.798H990.093L987.076 320.676ZM1009.91 332C1007.4 332 1005.46 331.366 1004.08 330.099C1002.7 328.831 1002.01 326.972 1002.01 324.52V310.55C1002.01 308.098 1002.7 306.239 1004.08 304.971C1005.46 303.704 1007.4 303.07 1009.91 303.07H1015.44V305.798H1009.91C1008.64 305.798 1007.61 306.17 1006.81 306.914C1006.03 307.63 1005.65 308.594 1005.65 309.807V325.263C1005.65 326.476 1006.03 327.454 1006.81 328.198C1007.61 328.914 1008.64 329.272 1009.91 329.272H1015.44V332H1009.91ZM1017.08 332L1023.61 303.07H1029.11L1035.39 332H1032L1029.98 323.486H1022.46L1020.6 332H1017.08ZM1023.08 320.676H1029.36L1026.38 305.798H1026.09L1023.08 320.676ZM1039.21 303.07H1046.4C1048.91 303.07 1050.85 303.704 1052.23 304.971C1053.61 306.239 1054.3 308.098 1054.3 310.55V324.52C1054.3 326.972 1053.61 328.831 1052.23 330.099C1050.85 331.339 1048.91 331.972 1046.4 332H1039.21V303.07ZM1046.4 329.19C1047.67 329.19 1048.69 328.831 1049.46 328.115C1050.26 327.371 1050.66 326.393 1050.66 325.181V309.889C1050.66 308.677 1050.26 307.713 1049.46 306.996C1048.69 306.252 1047.67 305.88 1046.4 305.88H1042.89V329.19H1046.4ZM1059.11 332V303.07H1071.72V305.88H1062.75V315.138H1070.02V317.948H1062.75V329.19H1072.13V332H1059.11ZM1076.37 332V303.07H1081.87L1087.41 320.18H1087.7L1093.36 303.07H1098.65V332H1095.01V307.41L1089.48 324.313H1085.55L1080.01 307.368V332H1076.37ZM1106.79 332V320.511L1100.97 303.07H1104.6L1108.74 316.75L1112.95 303.07H1116.59L1110.43 320.511V332H1106.79Z" fill="#FF00A8"/>
<path d="M971.684 252.826H978.846V273.607C978.836 275.554 978.371 277.257 977.451 278.715C976.532 280.163 975.26 281.288 973.636 282.09C972.021 282.893 970.152 283.294 968.029 283.294C966.151 283.294 964.443 282.966 962.907 282.31C961.381 281.655 960.163 280.637 959.253 279.258C958.353 277.878 957.907 276.112 957.917 273.96H965.153C965.182 274.733 965.329 275.393 965.593 275.941C965.867 276.479 966.244 276.885 966.723 277.159C967.202 277.433 967.775 277.57 968.44 277.57C969.135 277.57 969.722 277.423 970.201 277.13C970.681 276.826 971.043 276.381 971.287 275.794C971.542 275.207 971.674 274.478 971.684 273.607V252.826ZM989.908 282.883H982.1L992.242 252.826H1001.91L1012.05 282.883H1004.25L997.187 260.399H996.953L989.908 282.883ZM988.866 271.054H1005.19V276.572H988.866V271.054ZM1030.61 261.837C1030.51 260.761 1030.08 259.924 1029.3 259.327C1028.54 258.721 1027.45 258.417 1026.03 258.417C1025.09 258.417 1024.31 258.54 1023.68 258.784C1023.06 259.029 1022.59 259.366 1022.27 259.797C1021.96 260.218 1021.8 260.702 1021.79 261.25C1021.77 261.7 1021.86 262.096 1022.05 262.439C1022.26 262.781 1022.55 263.084 1022.93 263.349C1023.32 263.603 1023.79 263.828 1024.34 264.024C1024.89 264.219 1025.51 264.391 1026.19 264.537L1028.77 265.124C1030.26 265.447 1031.57 265.878 1032.71 266.416C1033.85 266.954 1034.81 267.595 1035.58 268.339C1036.37 269.082 1036.96 269.938 1037.36 270.907C1037.76 271.876 1037.97 272.962 1037.98 274.165C1037.97 276.063 1037.49 277.692 1036.54 279.052C1035.59 280.412 1034.22 281.454 1032.44 282.178C1030.67 282.902 1028.53 283.264 1026.03 283.264C1023.52 283.264 1021.32 282.888 1019.46 282.134C1017.59 281.381 1016.13 280.236 1015.1 278.7C1014.06 277.164 1013.53 275.222 1013.5 272.874H1020.45C1020.51 273.842 1020.77 274.649 1021.23 275.295C1021.69 275.941 1022.32 276.43 1023.12 276.763C1023.94 277.095 1024.88 277.262 1025.94 277.262C1026.92 277.262 1027.75 277.13 1028.44 276.866C1029.13 276.601 1029.66 276.234 1030.04 275.765C1030.41 275.295 1030.6 274.757 1030.61 274.15C1030.6 273.583 1030.42 273.099 1030.08 272.697C1029.74 272.287 1029.21 271.934 1028.5 271.641C1027.79 271.337 1026.89 271.059 1025.8 270.804L1022.65 270.07C1020.05 269.474 1018 268.51 1016.51 267.179C1015.01 265.839 1014.26 264.029 1014.27 261.749C1014.26 259.89 1014.76 258.261 1015.77 256.862C1016.78 255.463 1018.17 254.372 1019.95 253.589C1021.73 252.806 1023.77 252.415 1026.04 252.415C1028.37 252.415 1030.39 252.811 1032.11 253.604C1033.83 254.386 1035.16 255.487 1036.11 256.906C1037.06 258.324 1037.55 259.968 1037.57 261.837H1030.61ZM1041.65 282.883V252.826H1054.06C1056.31 252.826 1058.25 253.266 1059.89 254.147C1061.53 255.017 1062.8 256.235 1063.69 257.801C1064.58 259.357 1065.03 261.167 1065.03 263.231C1065.03 265.305 1064.57 267.12 1063.66 268.676C1062.76 270.222 1061.47 271.421 1059.8 272.272C1058.13 273.123 1056.14 273.549 1053.84 273.549H1046.18V267.825H1052.49C1053.59 267.825 1054.5 267.634 1055.24 267.253C1055.98 266.871 1056.54 266.338 1056.92 265.653C1057.31 264.958 1057.5 264.151 1057.5 263.231C1057.5 262.302 1057.31 261.499 1056.92 260.824C1056.54 260.139 1055.98 259.611 1055.24 259.239C1054.49 258.867 1053.58 258.682 1052.49 258.682H1048.91V282.883H1041.65ZM1068.61 282.883V252.826H1089.56V258.726H1075.87V264.89H1088.49V270.804H1075.87V276.983H1089.56V282.883H1068.61ZM1094.11 282.883V252.826H1106.53C1108.78 252.826 1110.72 253.232 1112.36 254.044C1114 254.846 1115.27 256.001 1116.16 257.507C1117.05 259.004 1117.49 260.78 1117.49 262.835C1117.49 264.919 1117.04 266.69 1116.13 268.148C1115.22 269.596 1113.93 270.701 1112.25 271.465C1110.58 272.218 1108.6 272.595 1106.31 272.595H1098.46V266.871H1104.96C1106.06 266.871 1106.97 266.729 1107.7 266.445C1108.45 266.152 1109.01 265.712 1109.39 265.124C1109.77 264.528 1109.96 263.764 1109.96 262.835C1109.96 261.905 1109.77 261.137 1109.39 260.531C1109.01 259.914 1108.45 259.455 1107.7 259.151C1106.96 258.838 1106.05 258.682 1104.96 258.682H1101.38V282.883H1094.11ZM1111.04 269.146L1118.52 282.883H1110.6L1103.26 269.146H1111.04Z" fill="black"/>
</svg>
