<svg width="1275" height="378" viewBox="0 0 1275 378" fill="none" xmlns="http://www.w3.org/2000/svg">
<path d="M71.2213 289V148.107H105.275V261.344H163.888V289H71.2213ZM181.517 289V148.107H279.757V175.763H215.571V204.657H274.735V232.381H215.571V261.344H279.757V289H181.517ZM393.544 194.131C392.765 191.242 391.618 188.696 390.105 186.495C388.591 184.248 386.734 182.344 384.532 180.785C382.331 179.226 379.808 178.056 376.965 177.276C374.121 176.451 371.002 176.038 367.608 176.038C360.775 176.038 354.858 177.689 349.859 180.991C344.906 184.294 341.076 189.109 338.371 195.438C335.665 201.722 334.312 209.358 334.312 218.347C334.312 227.382 335.619 235.087 338.233 241.462C340.847 247.837 344.631 252.699 349.584 256.047C354.537 259.395 360.546 261.069 367.608 261.069C373.846 261.069 379.12 260.06 383.431 258.042C387.788 255.978 391.091 253.066 393.338 249.305C395.585 245.544 396.709 241.118 396.709 236.028L403.038 236.784H368.778V211.949H429.524V230.593C429.524 243.205 426.841 254.006 421.475 262.995C416.155 271.985 408.817 278.887 399.461 283.703C390.15 288.518 379.441 290.926 367.333 290.926C353.895 290.926 342.085 288.014 331.904 282.189C321.722 276.365 313.788 268.063 308.101 257.285C302.414 246.462 299.57 233.62 299.57 218.76C299.57 207.202 301.29 196.952 304.73 188.009C308.169 179.019 312.962 171.406 319.108 165.169C325.299 158.931 332.454 154.207 340.572 150.997C348.736 147.786 357.519 146.181 366.921 146.181C375.084 146.181 382.675 147.351 389.692 149.69C396.755 152.029 402.992 155.331 408.404 159.596C413.862 163.861 418.288 168.929 421.682 174.8C425.075 180.67 427.185 187.114 428.011 194.131H393.544ZM449.595 289V148.107H547.835V175.763H483.649V204.657H542.813V232.381H483.649V261.344H547.835V289H449.595ZM689.072 148.107V289H660.178L604.109 207.684H603.215V289H569.161V148.107H598.468L653.917 229.286H655.087V148.107H689.072ZM762.562 289H710.484V148.107H762.493C776.849 148.107 789.209 150.928 799.574 156.569C809.985 162.164 818.011 170.236 823.652 180.785C829.294 191.288 832.114 203.854 832.114 218.485C832.114 233.161 829.294 245.774 823.652 256.322C818.057 266.871 810.054 274.966 799.643 280.607C789.232 286.202 776.872 289 762.562 289ZM744.538 259.968H761.255C769.144 259.968 775.817 258.638 781.274 255.978C786.778 253.272 790.929 248.892 793.726 242.838C796.57 236.739 797.992 228.621 797.992 218.485C797.992 208.349 796.57 200.277 793.726 194.269C790.883 188.215 786.686 183.858 781.137 181.198C775.633 178.492 768.845 177.139 760.773 177.139H744.538V259.968ZM874.148 289H837.549L885.087 148.107H930.423L977.96 289H941.361L908.271 183.606H907.17L874.148 289ZM869.264 233.551H945.764V259.418H869.264V233.551ZM993.13 289V148.107H1051.33C1061.88 148.107 1070.98 150.011 1078.64 153.817C1086.35 157.578 1092.29 162.99 1096.46 170.053C1100.63 177.07 1102.72 185.394 1102.72 195.026C1102.72 204.795 1100.59 213.096 1096.32 219.93C1092.06 226.717 1086 231.9 1078.16 235.477C1070.32 239.009 1061.03 240.775 1050.3 240.775H1013.49V213.944H1043.97C1049.11 213.944 1053.39 213.279 1056.83 211.949C1060.32 210.573 1062.96 208.51 1064.75 205.758C1066.53 202.96 1067.43 199.383 1067.43 195.026C1067.43 190.669 1066.53 187.068 1064.75 184.225C1062.96 181.335 1060.32 179.18 1056.83 177.758C1053.35 176.29 1049.06 175.557 1043.97 175.557H1027.18V289H993.13ZM1072.45 224.608L1107.54 289H1070.39L1035.99 224.608H1072.45ZM1108.14 148.107H1146.18L1175.97 207.065H1177.21L1207 148.107H1245.04L1193.51 241.944V289H1159.67V241.944L1108.14 148.107Z" fill="#D9D9D9"/>
<path d="M54.2212 289V148.107H88.2749V261.344H146.888V289H54.2212Z" fill="#7000FF"/>
<path d="M164.517 289V148.107H262.757V175.763H198.571V204.657H257.735V232.382H198.571V261.344H262.757V289H164.517Z" fill="#7000FF"/>
<path d="M376.544 194.131C375.765 191.242 374.618 188.697 373.104 186.495C371.591 184.248 369.734 182.344 367.532 180.785C365.331 179.226 362.808 178.056 359.965 177.276C357.121 176.451 354.002 176.038 350.608 176.038C343.775 176.038 337.858 177.689 332.859 180.991C327.906 184.294 324.076 189.109 321.37 195.438C318.665 201.722 317.312 209.358 317.312 218.347C317.312 227.382 318.619 235.087 321.233 241.462C323.847 247.838 327.631 252.699 332.584 256.047C337.537 259.395 343.545 261.069 350.608 261.069C356.846 261.069 362.12 260.06 366.431 258.042C370.788 255.978 374.091 253.066 376.338 249.305C378.585 245.544 379.709 241.119 379.709 236.028L386.038 236.784H351.778V211.949H412.524V230.593C412.524 243.205 409.841 254.006 404.475 262.995C399.155 271.985 391.817 278.887 382.461 283.703C373.15 288.518 362.441 290.926 350.333 290.926C336.895 290.926 325.085 288.014 314.904 282.189C304.722 276.365 296.788 268.063 291.101 257.285C285.413 246.462 282.57 233.62 282.57 218.76C282.57 207.202 284.29 196.952 287.73 188.009C291.169 179.019 295.962 171.406 302.108 165.169C308.299 158.931 315.454 154.207 323.572 150.997C331.736 147.786 340.518 146.181 349.92 146.181C358.084 146.181 365.675 147.351 372.692 149.69C379.755 152.029 385.992 155.331 391.404 159.596C396.862 163.861 401.288 168.929 404.682 174.8C408.075 180.67 410.185 187.114 411.011 194.131H376.544Z" fill="#7000FF"/>
<path d="M432.595 289V148.107H530.835V175.763H466.649V204.657H525.813V232.382H466.649V261.344H530.835V289H432.595Z" fill="#7000FF"/>
<path d="M672.072 148.107V289H643.178L587.109 207.684H586.215V289H552.161V148.107H581.468L636.917 229.286H638.087V148.107H672.072Z" fill="#7000FF"/>
<path d="M745.562 289H693.484V148.107H745.493C759.849 148.107 772.209 150.928 782.574 156.569C792.985 162.164 801.011 170.236 806.652 180.785C812.293 191.288 815.114 203.854 815.114 218.485C815.114 233.161 812.293 245.774 806.652 256.322C801.057 266.871 793.054 274.966 782.643 280.607C772.232 286.202 759.871 289 745.562 289ZM727.538 259.968H744.255C752.144 259.968 758.817 258.638 764.274 255.978C769.778 253.272 773.929 248.892 776.726 242.838C779.57 236.739 780.992 228.621 780.992 218.485C780.992 208.349 779.57 200.277 776.726 194.269C773.883 188.215 769.686 183.858 764.137 181.198C758.633 178.492 751.845 177.139 743.773 177.139H727.538V259.968Z" fill="#7000FF"/>
<path d="M857.148 289H820.549L868.086 148.107H913.423L960.96 289H924.361L891.271 183.606H890.17L857.148 289ZM852.264 233.551H928.764V259.418H852.264V233.551Z" fill="#7000FF"/>
<path d="M976.129 289V148.107H1034.33C1044.88 148.107 1053.98 150.011 1061.64 153.817C1069.35 157.578 1075.29 162.99 1079.46 170.053C1083.63 177.07 1085.72 185.394 1085.72 195.026C1085.72 204.795 1083.59 213.096 1079.32 219.93C1075.06 226.717 1069 231.9 1061.16 235.477C1053.32 239.009 1044.03 240.775 1033.3 240.775H996.493V213.944H1026.97C1032.11 213.944 1036.39 213.279 1039.83 211.949C1043.32 210.573 1045.96 208.51 1047.75 205.758C1049.53 202.96 1050.43 199.383 1050.43 195.026C1050.43 190.669 1049.53 187.068 1047.75 184.225C1045.96 181.335 1043.32 179.18 1039.83 177.758C1036.35 176.29 1032.06 175.557 1026.97 175.557H1010.18V289H976.129ZM1055.45 224.608L1090.54 289H1053.39L1018.99 224.608H1055.45Z" fill="#7000FF"/>
<path d="M1091.14 148.107H1129.18L1158.97 207.065H1160.21L1190 148.107H1228.04L1176.51 241.944V289H1142.67V241.944L1091.14 148.107Z" fill="#7000FF"/>
<path d="M46.2726 39.9095H64.4144V43.4208H50.3086V51.6946H60.9838V55.0848H50.3086V64.4483H64.4144V68H46.2726V39.9095ZM81.0023 40.9992C80.518 40.8378 79.8453 40.7571 78.9843 40.7571C78.1233 40.7571 77.4372 40.8378 76.926 40.9992C76.4282 41.1607 76.0313 41.3961 75.7354 41.7055C75.2241 42.2571 74.9685 43.1585 74.9685 44.4096V47.1743H80.1749V50.2618H74.9685V68H70.9325V50.2618H68.4302V48.3649L70.9325 47.1743V44.9545C70.9325 43.5419 71.0536 42.4791 71.2958 41.7661C71.5514 41.053 71.8541 40.4611 72.2039 39.9902C72.5536 39.5194 73.0245 39.109 73.6165 38.7593C74.8676 38.0193 76.6233 37.6494 78.8834 37.6494C79.8252 37.6494 80.5315 37.7032 81.0023 37.8108V40.9992ZM94.8054 40.9992C94.3211 40.8378 93.6484 40.7571 92.7874 40.7571C91.9264 40.7571 91.2403 40.8378 90.7291 40.9992C90.2313 41.1607 89.8344 41.3961 89.5384 41.7055C89.0272 42.2571 88.7716 43.1585 88.7716 44.4096V47.1743H93.978V50.2618H88.7716V68H84.7356V50.2618H82.2333V48.3649L84.7356 47.1743V44.9545C84.7356 43.5419 84.8567 42.4791 85.0988 41.7661C85.3545 41.053 85.6572 40.4611 86.0069 39.9902C86.3567 39.5194 86.8276 39.109 87.4195 38.7593C88.6707 38.0193 90.4264 37.6494 92.6865 37.6494C93.6282 37.6494 94.3345 37.7032 94.8054 37.8108V40.9992ZM102.736 41.1203C102.736 41.8871 102.481 42.4791 101.969 42.8961C101.472 43.2997 100.846 43.5015 100.093 43.5015C99.3392 43.5015 98.7136 43.2997 98.2158 42.8961C97.7315 42.4791 97.4893 41.8871 97.4893 41.1203C97.4893 40.34 97.7315 39.7481 98.2158 39.3445C98.7136 38.9409 99.3392 38.7391 100.093 38.7391C100.846 38.7391 101.472 38.9409 101.969 39.3445C102.481 39.7481 102.736 40.34 102.736 41.1203ZM98.014 47.1743H102.05V68H98.014V47.1743ZM123.36 67.9395C122.553 68.1951 121.154 68.3229 119.163 68.3229C117.172 68.3229 115.476 68.0807 114.077 67.5964C112.692 67.1121 111.508 66.3991 110.526 65.4573C108.494 63.5066 107.478 60.8025 107.478 57.345C107.478 53.9951 108.696 51.3583 111.131 49.4344C113.31 47.7124 115.988 46.8514 119.163 46.8514C121.127 46.8514 122.472 46.9187 123.199 47.0532V50.6452C122.069 50.282 120.777 50.1004 119.324 50.1004C117.885 50.1004 116.687 50.3022 115.732 50.7058C114.777 51.0959 113.997 51.6273 113.391 52.3C112.248 53.5781 111.676 55.2597 111.676 57.345C111.676 60.8698 112.947 63.2174 115.49 64.3878C116.391 64.8048 117.272 65.0134 118.133 65.0134C118.994 65.0134 119.654 64.9932 120.111 64.9528C120.582 64.9125 121.026 64.8587 121.443 64.7914C122.331 64.6434 122.97 64.4887 123.36 64.3272V67.9395ZM133.733 41.1203C133.733 41.8871 133.477 42.4791 132.966 42.8961C132.468 43.2997 131.842 43.5015 131.089 43.5015C130.336 43.5015 129.71 43.2997 129.212 42.8961C128.728 42.4791 128.486 41.8871 128.486 41.1203C128.486 40.34 128.728 39.7481 129.212 39.3445C129.71 38.9409 130.336 38.7391 131.089 38.7391C131.842 38.7391 132.468 38.9409 132.966 39.3445C133.477 39.7481 133.733 40.34 133.733 41.1203ZM129.01 47.1743H133.046V68H129.01V47.1743ZM149.13 68.3229C141.515 68.3229 137.708 64.603 137.708 57.1634C137.708 53.9615 138.764 51.3986 140.876 49.4748C142.773 47.7259 144.939 46.8514 147.374 46.8514C150.024 46.8514 152.096 47.7393 153.59 49.5152C154.975 51.1699 155.668 53.383 155.668 56.1544V57.7284H141.905C141.905 61.5357 143.459 63.8631 146.567 64.7107C147.307 64.9125 148.444 65.0134 149.977 65.0134C151.525 65.0134 153.038 64.8048 154.518 64.3878V67.7982C153.038 68.148 151.242 68.3229 149.13 68.3229ZM151.632 54.762C151.632 53.4704 151.276 52.3807 150.563 51.4928C149.728 50.4704 148.578 49.9591 147.112 49.9591C145.565 49.9591 144.307 50.4502 143.338 51.4323C142.45 52.3471 142.006 53.457 142.006 54.762H151.632ZM169.491 50.3224C167.487 50.3224 165.704 51.0018 164.144 52.3605V68H160.108V47.1743H163.841L164.124 49.4344C166.316 47.7124 168.583 46.8514 170.924 46.8514C173.4 46.8514 175.216 47.5913 176.373 49.0712C177.584 50.6318 178.189 53.1476 178.189 56.6185V68H174.153V56.6185C174.153 53.2821 173.252 51.291 171.449 50.6452C170.87 50.43 170.218 50.3224 169.491 50.3224ZM191.73 64.8116C192.174 64.973 192.846 65.0537 193.748 65.0537C194.649 65.0537 195.402 64.9461 196.008 64.7308V67.9596C195.725 68.0269 195.315 68.0673 194.777 68.0807L193.506 68.1211C193.223 68.1211 193.008 68.1211 192.86 68.1211C190.263 68.1211 188.346 67.2735 187.108 65.5784C186.113 64.2062 185.615 62.39 185.615 60.1298V50.2618H182.629V48.3649L185.615 47.1743L186.584 42.0082H189.651V47.1743H196.109V50.2618H189.651V60.1096C189.651 62.7465 190.344 64.3138 191.73 64.8116Z" fill="#7000FF"/>
<path d="M712.44 48.272V46.48H731.704C736.397 46.48 739.896 47.568 742.2 49.744C744.546 51.8773 745.72 54.736 745.72 58.32V59.792C745.72 63.376 744.546 66.256 742.2 68.432C739.896 70.608 736.397 71.696 731.704 71.696H725.048V84.624C725.048 86.0747 725.112 86.9493 725.24 87.248C725.368 87.504 725.773 87.6747 726.456 87.76L731.256 88.208V90H712.44V88.208L715.96 87.76C716.642 87.6747 717.048 87.504 717.176 87.248C717.304 86.9493 717.368 86.0747 717.368 84.624V51.856C717.368 50.4053 717.304 49.552 717.176 49.296C717.048 48.9973 716.642 48.8053 715.96 48.72L712.44 48.272ZM731.704 48.72H725.048V69.456H731.704C733.581 69.456 735.01 68.7093 735.992 67.216C737.016 65.7227 737.528 63.6747 737.528 61.072V57.04C737.528 54.4373 737.016 52.4107 735.992 50.96C735.01 49.4667 733.581 48.72 731.704 48.72ZM750.69 48.272V46.48H770.018C774.498 46.48 777.954 47.4827 780.386 49.488C782.818 51.4933 784.034 54.1813 784.034 57.552V59.024C784.034 61.584 783.33 63.76 781.922 65.552C780.514 67.344 778.487 68.624 775.842 69.392L783.842 84.624C784.354 85.5627 784.738 86.2453 784.994 86.672C785.25 87.0987 785.484 87.376 785.698 87.504C785.954 87.5893 786.295 87.6747 786.722 87.76L789.602 88.208V90H777.634L767.97 70.16H763.298V84.624C763.298 86.0747 763.362 86.9493 763.49 87.248C763.618 87.504 764.023 87.6747 764.706 87.76L768.226 88.208V90H750.69V88.208L754.21 87.76C754.892 87.6747 755.298 87.504 755.426 87.248C755.554 86.9493 755.618 86.0747 755.618 84.624V51.856C755.618 50.4053 755.554 49.552 755.426 49.296C755.298 48.9973 754.892 48.8053 754.21 48.72L750.69 48.272ZM770.018 48.72H763.298V67.92H770.018C771.895 67.92 773.324 67.344 774.306 66.192C775.33 64.9973 775.842 62.8213 775.842 59.664V56.912C775.842 53.7547 775.33 51.6 774.306 50.448C773.324 49.296 771.895 48.72 770.018 48.72ZM828.537 66.192V70.224C828.537 76.7947 827.065 81.8507 824.121 85.392C821.22 88.8907 816.91 90.64 811.193 90.64C805.476 90.64 801.145 88.8907 798.201 85.392C795.3 81.8507 793.849 76.7947 793.849 70.224V66.192C793.849 59.6213 795.3 54.5867 798.201 51.088C801.145 47.5893 805.476 45.84 811.193 45.84C816.91 45.84 821.22 47.5893 824.121 51.088C827.065 54.5867 828.537 59.6213 828.537 66.192ZM820.345 62.992C820.345 59.2373 820.025 56.2933 819.385 54.16C818.745 51.984 817.742 50.4267 816.377 49.488C815.054 48.5493 813.326 48.08 811.193 48.08C809.102 48.08 807.374 48.5493 806.009 49.488C804.644 50.4267 803.641 51.984 803.001 54.16C802.361 56.2933 802.041 59.2373 802.041 62.992V73.424C802.041 77.136 802.361 80.08 803.001 82.256C803.641 84.432 804.644 86.0107 806.009 86.992C807.374 87.9307 809.102 88.4 811.193 88.4C813.326 88.4 815.054 87.9307 816.377 86.992C817.742 86.0107 818.745 84.432 819.385 82.256C820.025 80.08 820.345 77.136 820.345 73.424V62.992ZM835.502 48.272V46.48H854.382C859.843 46.48 864.025 48.08 866.926 51.28C869.87 54.48 871.342 59.4507 871.342 66.192V70.224C871.342 76.9653 869.87 81.9573 866.926 85.2C864.025 88.4 859.843 90 854.382 90H835.502V88.208L839.022 87.76C839.705 87.6747 840.11 87.504 840.238 87.248C840.366 86.9493 840.43 86.0747 840.43 84.624V51.856C840.43 50.4053 840.366 49.552 840.238 49.296C840.11 48.9973 839.705 48.8053 839.022 48.72L835.502 48.272ZM854.062 48.72H848.11V87.76H854.062C856.238 87.76 857.987 87.3973 859.31 86.672C860.633 85.904 861.593 84.496 862.19 82.448C862.83 80.3573 863.15 77.3493 863.15 73.424V62.992C863.15 59.0667 862.83 56.08 862.19 54.032C861.593 51.984 860.633 50.5973 859.31 49.872C857.987 49.104 856.238 48.72 854.062 48.72ZM905.067 48.272V46.48H917.483V48.272L913.963 48.72C913.28 48.8053 912.875 48.9973 912.747 49.296C912.619 49.552 912.555 50.4053 912.555 51.856V75.216C912.555 80.336 911.467 84.1973 909.291 86.8C907.157 89.36 903.872 90.64 899.435 90.64C894.272 90.64 890.112 89.232 886.955 86.416C883.797 83.6 882.219 79.5467 882.219 74.256V51.856C882.219 50.4053 882.155 49.552 882.027 49.296C881.899 48.9973 881.493 48.8053 880.811 48.72L877.291 48.272V46.48H894.827V48.272L891.307 48.72C890.624 48.8053 890.219 48.9973 890.091 49.296C889.963 49.552 889.899 50.4053 889.899 51.856V74.704C889.899 79.4827 890.773 82.9387 892.523 85.072C894.272 87.2053 896.768 88.272 900.011 88.272C903.168 88.272 905.621 87.2693 907.371 85.264C909.12 83.216 909.995 79.9093 909.995 75.344V51.856C909.995 50.4053 909.931 49.552 909.803 49.296C909.675 48.9973 909.269 48.8053 908.587 48.72L905.067 48.272ZM941.841 90.64C937.915 90.64 934.587 89.808 931.857 88.144C929.126 86.4373 927.057 84.048 925.649 80.976C924.241 77.904 923.536 74.32 923.536 70.224V66.192C923.536 62.096 924.155 58.5333 925.393 55.504C926.673 52.432 928.571 50.064 931.089 48.4C933.606 46.6933 936.763 45.84 940.561 45.84C943.803 45.84 946.513 46.48 948.689 47.76C950.865 48.9973 952.465 50.6613 953.489 52.752C954.555 54.8 955.003 57.04 954.833 59.472L947.345 61.328C947.771 57.0613 947.323 53.7973 946.001 51.536C944.721 49.232 942.801 48.08 940.241 48.08C937.51 48.08 935.398 49.232 933.905 51.536C932.454 53.84 931.729 57.6587 931.729 62.992V73.424C931.729 78.7147 932.561 82.5333 934.225 84.88C935.889 87.2267 938.427 88.4 941.841 88.4C943.249 88.4 944.55 88.144 945.745 87.632C946.982 87.12 948.006 86.2453 948.817 85.008C949.67 83.728 950.203 81.936 950.417 79.632L955.025 80.848C954.427 83.2373 953.467 85.1573 952.145 86.608C950.822 88.0587 949.265 89.104 947.473 89.744C945.723 90.3413 943.846 90.64 941.841 90.64ZM958.268 46.48H993.468V57.488H991.676L989.628 50.384C989.5 49.8293 989.351 49.4453 989.18 49.232C989.052 48.976 988.775 48.8267 988.348 48.784C987.921 48.7413 987.196 48.72 986.172 48.72H979.708V84.624C979.708 86.0747 979.772 86.9493 979.9 87.248C980.028 87.504 980.433 87.6747 981.116 87.76L984.636 88.208V90H967.1V88.208L970.62 87.76C971.303 87.6747 971.708 87.504 971.836 87.248C971.964 86.9493 972.028 86.0747 972.028 84.624V48.72H965.564C964.583 48.72 963.857 48.7413 963.388 48.784C962.961 48.8267 962.684 48.976 962.556 49.232C962.428 49.4453 962.279 49.8293 962.108 50.384L960.06 57.488H958.268V46.48ZM997.002 48.272V46.48H1014.54V48.272L1011.02 48.72C1010.34 48.8053 1009.93 48.9973 1009.8 49.296C1009.67 49.552 1009.61 50.4053 1009.61 51.856V84.624C1009.61 86.0747 1009.67 86.9493 1009.8 87.248C1009.93 87.504 1010.34 87.6747 1011.02 87.76L1014.54 88.208V90H997.002V88.208L1000.52 87.76C1001.2 87.6747 1001.61 87.504 1001.74 87.248C1001.87 86.9493 1001.93 86.0747 1001.93 84.624V51.856C1001.93 50.4053 1001.87 49.552 1001.74 49.296C1001.61 48.9973 1001.2 48.8053 1000.52 48.72L997.002 48.272ZM1052.45 51.856L1040.35 90H1034.85L1022.69 51.856C1022.39 50.8747 1022.16 50.192 1021.98 49.808C1021.81 49.3813 1021.62 49.104 1021.41 48.976C1021.2 48.848 1020.85 48.7627 1020.38 48.72L1016.86 48.272V46.48H1034.66V48.272L1031.14 48.72C1030.45 48.8053 1030.09 48.9973 1030.05 49.296C1030.01 49.552 1030.2 50.4053 1030.62 51.856L1040.35 82.384L1049.95 51.856C1050.42 50.4053 1050.61 49.552 1050.53 49.296C1050.49 48.9973 1050.12 48.8053 1049.44 48.72L1045.92 48.272V46.48H1058.21V48.272L1054.69 48.72C1054.26 48.7627 1053.94 48.848 1053.73 48.976C1053.52 49.104 1053.32 49.3813 1053.15 49.808C1052.98 50.192 1052.75 50.8747 1052.45 51.856ZM1090.39 78.992H1092.18V90H1060.5V88.208L1064.02 87.76C1064.7 87.6747 1065.11 87.504 1065.24 87.248C1065.37 86.9493 1065.43 86.0747 1065.43 84.624V51.856C1065.43 50.4053 1065.37 49.552 1065.24 49.296C1065.11 48.9973 1064.7 48.8053 1064.02 48.72L1060.5 48.272V46.48H1091.54V57.488H1089.75L1087.7 50.384C1087.57 49.872 1087.42 49.5093 1087.25 49.296C1087.13 49.04 1086.85 48.8907 1086.42 48.848C1086 48.7627 1085.27 48.72 1084.25 48.72H1073.11V66.896H1080.41C1081.43 66.896 1082.16 66.8747 1082.58 66.832C1083.01 66.7467 1083.29 66.5973 1083.41 66.384C1083.58 66.128 1083.73 65.744 1083.86 65.232L1085.27 60.048H1087.06V75.984H1085.27L1083.86 70.8C1083.73 70.288 1083.58 69.9253 1083.41 69.712C1083.29 69.456 1083.01 69.3067 1082.58 69.264C1082.16 69.1787 1081.43 69.136 1080.41 69.136H1073.11V87.76H1084.89C1085.91 87.76 1086.64 87.7387 1087.06 87.696C1087.49 87.6107 1087.77 87.4613 1087.89 87.248C1088.06 86.992 1088.21 86.608 1088.34 86.096L1090.39 78.992Z" fill="#BCBCBC"/>
<path d="M73.709 339C72.7673 339 72.2964 338.496 72.2964 337.487V311.575C72.2964 310.566 72.7673 310.062 73.709 310.062H83.0523C87.2094 310.062 90.2431 310.708 92.1535 311.999C94.0639 313.277 95.019 315.363 95.019 318.255C95.019 320.408 94.2455 322.123 92.6983 323.401C91.1512 324.679 89.187 325.527 86.8058 325.944V325.984C88.0973 326.468 89.0727 327.141 89.7319 328.002C90.3911 328.863 90.9292 329.616 91.3463 330.262L95.7859 337.265C96.5258 338.422 96.2702 339 95.019 339H91.5077C90.7678 339 90.1624 338.603 89.6915 337.809L85.6152 331.009C85.1712 330.282 84.3573 329.489 83.1734 328.628C82.003 327.753 80.8393 327.316 79.6823 327.316H78.189V337.487C78.189 338.496 77.7181 339 76.7764 339H73.709ZM78.189 322.311H81.8012C84.4918 322.311 86.4022 322.008 87.5323 321.403C88.6758 320.784 89.2476 319.809 89.2476 318.477C89.2476 317.024 88.696 316.082 87.5928 315.652C86.5031 315.208 84.8954 314.986 82.7698 314.986H78.189V322.311ZM102.526 339C101.584 339 101.113 338.496 101.113 337.487V311.575C101.113 310.566 101.584 310.062 102.526 310.062H119.84C120.849 310.062 121.354 310.499 121.354 311.374V313.755C121.354 314.629 120.849 315.067 119.84 315.067H107.006V321.484H118.771C119.78 321.484 120.284 321.921 120.284 322.796V325.177C120.284 326.051 119.78 326.488 118.771 326.488H107.006V333.995H120.486C121.495 333.995 122 334.433 122 335.307V337.688C122 338.563 121.495 339 120.486 339H102.526ZM127.287 336.841C126.453 336.208 126.251 335.569 126.681 334.924L128.235 332.583C128.746 331.816 129.493 331.776 130.475 332.462C131.229 332.986 132.211 333.531 133.421 334.096C134.646 334.648 135.931 334.924 137.276 334.924C138.218 334.924 139.126 334.816 140 334.601C140.875 334.386 141.541 333.968 141.998 333.35C142.455 332.731 142.684 331.998 142.684 331.15C142.684 330.545 142.583 330.013 142.381 329.556C142.18 329.098 141.85 328.722 141.393 328.426C140.935 328.13 140.464 327.881 139.98 327.679C139.132 327.329 138.063 326.986 136.771 326.65C135.493 326.3 134.229 325.883 132.978 325.399C131.861 324.968 130.838 324.376 129.91 323.623C128.982 322.869 128.262 322.022 127.751 321.08C127.24 320.138 126.984 318.881 126.984 317.307C126.984 315.437 127.589 313.836 128.8 312.504C130.011 311.172 131.403 310.318 132.978 309.941C134.552 309.564 136.139 309.376 137.74 309.376C139.327 309.376 140.962 309.618 142.644 310.102C144.339 310.587 145.617 311.192 146.478 311.919C147.325 312.632 147.534 313.277 147.103 313.856L145.469 316.055C144.917 316.809 144.177 316.869 143.249 316.237C142.657 315.833 141.843 315.383 140.807 314.885C139.785 314.387 138.715 314.138 137.599 314.138C136.805 314.138 136.072 314.206 135.399 314.34C134.74 314.475 134.155 314.798 133.643 315.309C133.132 315.82 132.877 316.452 132.877 317.206C132.877 317.932 133.065 318.524 133.442 318.981C133.818 319.425 134.235 319.762 134.693 319.99C135.15 320.206 135.614 320.387 136.085 320.535C137.538 321.006 138.836 321.423 139.98 321.787C141.123 322.136 142.18 322.526 143.148 322.957C144.494 323.562 145.523 324.168 146.236 324.773C146.949 325.379 147.534 326.206 147.991 327.255C148.462 328.305 148.698 329.556 148.698 331.009C148.698 333.161 148.012 334.944 146.639 336.356C145.267 337.756 143.74 338.657 142.059 339.061C140.39 339.478 138.762 339.686 137.175 339.686C134.834 339.686 132.93 339.457 131.464 339C129.998 338.556 128.605 337.836 127.287 336.841ZM153.339 326.953V311.172C153.339 310.432 153.81 310.062 154.752 310.062H157.819C158.761 310.062 159.232 310.432 159.232 311.172V326.751C159.232 330.383 159.763 332.657 160.826 333.572C161.902 334.473 163.113 334.924 164.458 334.924C165.804 334.924 167.008 334.473 168.07 333.572C169.147 332.657 169.685 330.383 169.685 326.751V311.172C169.685 310.432 170.156 310.062 171.097 310.062H174.165C175.107 310.062 175.577 310.432 175.577 311.172V326.953C175.577 331.661 174.582 334.964 172.591 336.861C170.6 338.744 167.889 339.686 164.458 339.686C161.028 339.686 158.317 338.744 156.326 336.861C154.335 334.964 153.339 331.661 153.339 326.953ZM183.448 339C182.506 339 182.035 338.496 182.035 337.487V311.575C182.035 310.566 182.506 310.062 183.448 310.062H186.717C187.524 310.062 187.928 310.566 187.928 311.575V333.995H199.692C200.701 333.995 201.206 334.433 201.206 335.307V337.688C201.206 338.563 200.701 339 199.692 339H183.448ZM200.217 315.228C199.208 315.228 198.704 314.791 198.704 313.916V311.374C198.704 310.499 199.208 310.062 200.217 310.062H220.962C221.971 310.062 222.476 310.499 222.476 311.374V313.916C222.476 314.791 221.971 315.228 220.962 315.228H213.536V337.89C213.536 338.63 213.2 339 212.527 339H208.652C207.98 339 207.643 338.63 207.643 337.89V315.228H200.217ZM226.734 336.841C225.899 336.208 225.698 335.569 226.128 334.924L227.682 332.583C228.193 331.816 228.94 331.776 229.922 332.462C230.675 332.986 231.657 333.531 232.868 334.096C234.093 334.648 235.377 334.924 236.723 334.924C237.664 334.924 238.572 334.816 239.447 334.601C240.321 334.386 240.987 333.968 241.445 333.35C241.902 332.731 242.131 331.998 242.131 331.15C242.131 330.545 242.03 330.013 241.828 329.556C241.626 329.098 241.297 328.722 240.839 328.426C240.382 328.13 239.911 327.881 239.427 327.679C238.579 327.329 237.51 326.986 236.218 326.65C234.94 326.3 233.675 325.883 232.424 325.399C231.308 324.968 230.285 324.376 229.357 323.623C228.429 322.869 227.709 322.022 227.198 321.08C226.686 320.138 226.431 318.881 226.431 317.307C226.431 315.437 227.036 313.836 228.247 312.504C229.458 311.172 230.85 310.318 232.424 309.941C233.998 309.564 235.586 309.376 237.187 309.376C238.774 309.376 240.409 309.618 242.091 310.102C243.786 310.587 245.064 311.192 245.925 311.919C246.772 312.632 246.981 313.277 246.55 313.856L244.916 316.055C244.364 316.809 243.624 316.869 242.696 316.237C242.104 315.833 241.29 315.383 240.254 314.885C239.232 314.387 238.162 314.138 237.046 314.138C236.252 314.138 235.519 314.206 234.846 314.34C234.187 314.475 233.601 314.798 233.09 315.309C232.579 315.82 232.323 316.452 232.323 317.206C232.323 317.932 232.512 318.524 232.888 318.981C233.265 319.425 233.682 319.762 234.14 319.99C234.597 320.206 235.061 320.387 235.532 320.535C236.985 321.006 238.283 321.423 239.427 321.787C240.57 322.136 241.626 322.526 242.595 322.957C243.94 323.562 244.97 324.168 245.683 324.773C246.396 325.379 246.981 326.206 247.438 327.255C247.909 328.305 248.144 329.556 248.144 331.009C248.144 333.161 247.458 334.944 246.086 336.356C244.714 337.756 243.187 338.657 241.505 339.061C239.837 339.478 238.209 339.686 236.622 339.686C234.281 339.686 232.377 339.457 230.911 339C229.444 338.556 228.052 337.836 226.734 336.841ZM265.419 324.531C265.419 319.89 266.616 316.203 269.011 313.472C271.405 310.741 274.822 309.376 279.262 309.376C283.702 309.376 287.119 310.741 289.513 313.472C291.908 316.203 293.105 319.89 293.105 324.531C293.105 329.172 291.908 332.859 289.513 335.59C287.119 338.321 283.702 339.686 279.262 339.686C274.822 339.686 271.405 338.321 269.011 335.59C266.616 332.859 265.419 329.172 265.419 324.531ZM271.715 324.531C271.715 327.894 272.313 330.471 273.511 332.26C274.721 334.036 276.639 334.924 279.262 334.924C281.885 334.924 283.796 334.036 284.993 332.26C286.204 330.471 286.809 327.894 286.809 324.531C286.809 321.168 286.204 318.598 284.993 316.822C283.796 315.033 281.885 314.138 279.262 314.138C276.639 314.138 274.721 315.033 273.511 316.822C272.313 318.598 271.715 321.168 271.715 324.531ZM299.482 339C298.541 339 298.07 338.496 298.07 337.487V311.575C298.07 310.566 298.541 310.062 299.482 310.062H308.826C312.983 310.062 316.016 310.708 317.927 311.999C319.837 313.277 320.792 315.363 320.792 318.255C320.792 320.408 320.019 322.123 318.472 323.401C316.924 324.679 314.96 325.527 312.579 325.944V325.984C313.871 326.468 314.846 327.141 315.505 328.002C316.164 328.863 316.702 329.616 317.12 330.262L321.559 337.265C322.299 338.422 322.043 339 320.792 339H317.281C316.541 339 315.936 338.603 315.465 337.809L311.388 331.009C310.944 330.282 310.131 329.489 308.947 328.628C307.776 327.753 306.613 327.316 305.456 327.316H303.962V337.487C303.962 338.496 303.491 339 302.55 339H299.482ZM303.962 322.311H307.574C310.265 322.311 312.175 322.008 313.306 321.403C314.449 320.784 315.021 319.809 315.021 318.477C315.021 317.024 314.469 316.082 313.366 315.652C312.276 315.208 310.669 314.986 308.543 314.986H303.962V322.311ZM328.299 339C327.357 339 326.887 338.496 326.887 337.487V311.575C326.887 310.566 327.357 310.062 328.299 310.062H331.367C332.308 310.062 332.779 310.566 332.779 311.575V337.487C332.779 338.496 332.308 339 331.367 339H328.299ZM340.649 339C339.708 339 339.237 338.496 339.237 337.487V311.575C339.237 310.566 339.708 310.062 340.649 310.062H357.964C358.973 310.062 359.477 310.499 359.477 311.374V313.755C359.477 314.629 358.973 315.067 357.964 315.067H345.129V321.484H356.894C357.903 321.484 358.408 321.921 358.408 322.796V325.177C358.408 326.051 357.903 326.488 356.894 326.488H345.129V333.995H358.61C359.619 333.995 360.123 334.433 360.123 335.307V337.688C360.123 338.563 359.619 339 358.61 339H340.649ZM366.48 339C365.538 339 365.067 338.496 365.067 337.487V311.575C365.067 310.566 365.538 310.062 366.48 310.062H369.466C370.623 310.062 371.498 310.533 372.09 311.475L382.382 328.002H382.523C382.455 327.195 382.422 326.388 382.422 325.58V311.575C382.422 310.566 382.893 310.062 383.834 310.062H386.902C387.844 310.062 388.314 310.566 388.314 311.575V337.487C388.314 338.496 387.844 339 386.902 339H384.117C382.96 339 382.086 338.529 381.494 337.587L371 320.757H370.859C370.926 321.565 370.96 322.372 370.96 323.179V337.487C370.96 338.496 370.489 339 369.547 339H366.48ZM393.743 315.228C392.734 315.228 392.229 314.791 392.229 313.916V311.374C392.229 310.499 392.734 310.062 393.743 310.062H414.488C415.497 310.062 416.001 310.499 416.001 311.374V313.916C416.001 314.791 415.497 315.228 414.488 315.228H407.062V337.89C407.062 338.63 406.725 339 406.053 339H402.178C401.505 339 401.169 338.63 401.169 337.89V315.228H393.743ZM421.329 339C420.387 339 419.916 338.496 419.916 337.487V311.575C419.916 310.566 420.387 310.062 421.329 310.062H438.643C439.652 310.062 440.157 310.499 440.157 311.374V313.755C440.157 314.629 439.652 315.067 438.643 315.067H425.809V321.484H437.574C438.583 321.484 439.087 321.921 439.087 322.796V325.177C439.087 326.051 438.583 326.488 437.574 326.488H425.809V333.995H439.289C440.298 333.995 440.802 334.433 440.802 335.307V337.688C440.802 338.563 440.298 339 439.289 339H421.329ZM447.159 339C446.217 339 445.747 338.496 445.747 337.487V311.575C445.747 310.566 446.217 310.062 447.159 310.062H454.202C460.39 310.062 464.574 311.313 466.754 313.815C468.947 316.318 470.043 319.876 470.043 324.491C470.043 329.105 468.947 332.677 466.754 335.206C464.574 337.735 460.39 339 454.202 339H447.159ZM451.639 333.995H453.819C457.989 333.995 460.686 333.222 461.911 331.675C463.135 330.114 463.747 327.719 463.747 324.491C463.747 321.262 463.135 318.881 461.911 317.347C460.686 315.8 457.989 315.026 453.819 315.026H451.639V333.995Z" fill="black"/>
<path d="M691.957 130.406V100.349H699.222V124.506H711.726V130.406H691.957ZM722.752 100.349V130.406H715.487V100.349H722.752ZM727.312 130.406V100.349H747.83V106.249H734.577V112.413H746.524V118.328H734.577V130.406H727.312ZM751.488 130.406V100.349H772.446V106.249H758.753V112.413H771.374V118.328H758.753V124.506H772.446V130.406H751.488ZM776.995 130.406V100.349H784.26V124.506H796.764V130.406H776.995ZM827.724 115.378C827.724 118.685 827.088 121.488 825.816 123.787C824.544 126.086 822.822 127.833 820.65 129.027C818.488 130.22 816.061 130.817 813.371 130.817C810.67 130.817 808.239 130.215 806.076 129.012C803.914 127.808 802.197 126.062 800.925 123.772C799.663 121.473 799.032 118.675 799.032 115.378C799.032 112.071 799.663 109.267 800.925 106.968C802.197 104.669 803.914 102.922 806.076 101.729C808.239 100.535 810.67 99.9381 813.371 99.9381C816.061 99.9381 818.488 100.535 820.65 101.729C822.822 102.922 824.544 104.669 825.816 106.968C827.088 109.267 827.724 112.071 827.724 115.378ZM820.298 115.378C820.298 113.421 820.019 111.767 819.461 110.417C818.913 109.067 818.121 108.044 817.084 107.35C816.056 106.655 814.819 106.308 813.371 106.308C811.932 106.308 810.695 106.655 809.657 107.35C808.62 108.044 807.823 109.067 807.265 110.417C806.717 111.767 806.443 113.421 806.443 115.378C806.443 117.334 806.717 118.988 807.265 120.338C807.823 121.688 808.62 122.711 809.657 123.406C810.695 124.1 811.932 124.448 813.371 124.448C814.819 124.448 816.056 124.1 817.084 123.406C818.121 122.711 818.913 121.688 819.461 120.338C820.019 118.988 820.298 117.334 820.298 115.378ZM857.546 100.349V130.406H851.382L839.421 113.059H839.23V130.406H831.965V100.349H838.218L850.047 117.667H850.296V100.349H857.546ZM881.839 110.167C881.673 109.551 881.428 109.008 881.105 108.538C880.783 108.059 880.386 107.653 879.917 107.32C879.447 106.988 878.909 106.738 878.302 106.572C877.696 106.396 877.03 106.308 876.306 106.308C874.848 106.308 873.586 106.66 872.52 107.364C871.463 108.069 870.646 109.096 870.069 110.446C869.492 111.787 869.203 113.416 869.203 115.334C869.203 117.261 869.482 118.905 870.04 120.265C870.597 121.625 871.404 122.662 872.461 123.376C873.518 124.09 874.8 124.448 876.306 124.448C877.637 124.448 878.762 124.232 879.682 123.802C880.611 123.361 881.316 122.74 881.795 121.938C882.275 121.136 882.514 120.191 882.514 119.105L883.865 119.267H876.556V113.969H889.515V117.946C889.515 120.637 888.943 122.941 887.798 124.858C886.663 126.776 885.097 128.249 883.101 129.276C881.115 130.303 878.831 130.817 876.248 130.817C873.381 130.817 870.861 130.196 868.689 128.953C866.517 127.711 864.825 125.94 863.611 123.64C862.398 121.331 861.791 118.592 861.791 115.422C861.791 112.956 862.158 110.769 862.892 108.861C863.626 106.944 864.648 105.319 865.96 103.989C867.28 102.658 868.807 101.65 870.539 100.965C872.28 100.281 874.154 99.9381 876.16 99.9381C877.901 99.9381 879.52 100.188 881.017 100.687C882.524 101.186 883.855 101.89 885.009 102.8C886.174 103.71 887.118 104.791 887.842 106.043C888.566 107.296 889.016 108.67 889.192 110.167H881.839ZM902.676 130.406V100.349H909.941V124.506H922.445V130.406H902.676ZM926.206 130.406V100.349H947.164V106.249H933.471V112.413H946.092V118.328H933.471V124.506H947.164V130.406H926.206ZM958.215 130.406H950.407L960.548 100.349H970.22L980.361 130.406H972.554L965.494 107.922H965.26L958.215 130.406ZM957.173 118.577H973.493V124.095H957.173V118.577ZM983.598 130.406V100.349H996.014C998.264 100.349 1000.21 100.755 1001.84 101.567C1003.48 102.369 1004.75 103.524 1005.64 105.031C1006.53 106.528 1006.98 108.304 1006.98 110.358C1006.98 112.442 1006.52 114.213 1005.61 115.671C1004.7 117.119 1003.41 118.225 1001.74 118.988C1000.06 119.741 998.083 120.118 995.794 120.118H987.942V114.394H994.443C995.539 114.394 996.454 114.252 997.188 113.969C997.931 113.675 998.494 113.235 998.876 112.648C999.257 112.051 999.448 111.288 999.448 110.358C999.448 109.429 999.257 108.661 998.876 108.054C998.494 107.438 997.931 106.978 997.188 106.675C996.444 106.361 995.529 106.205 994.443 106.205H990.862V130.406H983.598ZM1000.52 116.669L1008 130.406H1000.08L992.741 116.669H1000.52ZM1036.54 100.349V130.406H1030.38L1018.42 113.059H1018.23V130.406H1010.96V100.349H1017.21L1029.04 117.667H1029.29V100.349H1036.54ZM1041.11 130.406V100.349H1062.07V106.249H1048.38V112.413H1061V118.328H1048.38V124.506H1062.07V130.406H1041.11ZM1066.62 130.406V100.349H1079.03C1081.28 100.349 1083.23 100.755 1084.86 101.567C1086.5 102.369 1087.77 103.524 1088.66 105.031C1089.55 106.528 1090 108.304 1090 110.358C1090 112.442 1089.54 114.213 1088.63 115.671C1087.72 117.119 1086.43 118.225 1084.76 118.988C1083.08 119.741 1081.1 120.118 1078.81 120.118H1070.96V114.394H1077.46C1078.56 114.394 1079.47 114.252 1080.21 113.969C1080.95 113.675 1081.51 113.235 1081.9 112.648C1082.28 112.051 1082.47 111.288 1082.47 110.358C1082.47 109.429 1082.28 108.661 1081.9 108.054C1081.51 107.438 1080.95 106.978 1080.21 106.675C1079.46 106.361 1078.55 106.205 1077.46 106.205H1073.88V130.406H1066.62ZM1083.54 116.669L1091.02 130.406H1083.1L1075.76 116.669H1083.54Z" fill="#8F00FF"/>
<path d="M855.213 40V9.94288H867.629C869.879 9.94288 871.821 10.3832 873.455 11.2638C875.099 12.1345 876.366 13.3527 877.256 14.9182C878.147 16.4738 878.592 18.2839 878.592 20.3484C878.592 22.4227 878.137 24.2376 877.227 25.7933C876.327 27.3392 875.04 28.5378 873.367 29.389C871.694 30.2402 869.708 30.6659 867.409 30.6659H859.748V24.9421H866.058C867.154 24.9421 868.069 24.7513 868.803 24.3697C869.546 23.9881 870.109 23.4549 870.491 22.77C870.872 22.0753 871.063 21.2681 871.063 20.3484C871.063 19.4189 870.872 18.6166 870.491 17.9415C870.109 17.2566 869.546 16.7282 868.803 16.3564C868.059 15.9846 867.144 15.7987 866.058 15.7987H862.477V40H855.213ZM882.173 40V9.94288H894.589C896.84 9.94288 898.782 10.3489 900.416 11.161C902.059 11.9633 903.327 13.1179 904.217 14.6246C905.107 16.1216 905.552 17.8975 905.552 19.9521C905.552 22.0362 905.097 23.8071 904.188 25.265C903.278 26.713 901.986 27.8186 900.313 28.5818C898.64 29.3352 896.659 29.7119 894.369 29.7119H886.517V23.9881H893.019C894.115 23.9881 895.029 23.8463 895.763 23.5625C896.507 23.269 897.07 22.8287 897.451 22.2416C897.833 21.6448 898.023 20.8816 898.023 19.9521C898.023 19.0226 897.833 18.2546 897.451 17.648C897.07 17.0315 896.507 16.5717 895.763 16.2684C895.02 15.9553 894.105 15.7987 893.019 15.7987H889.438V40H882.173ZM899.095 26.263L906.58 40H898.655L891.316 26.263H899.095ZM916.039 40H908.231L918.372 9.94288H928.044L938.185 40H930.377L923.318 17.5159H923.083L916.039 40ZM914.997 28.1709H931.317V33.6892H914.997V28.1709ZM967.292 20.8327H959.954C959.856 20.0793 959.655 19.3993 959.352 18.7927C959.049 18.1861 958.648 17.6675 958.149 17.237C957.65 16.8065 957.058 16.4787 956.373 16.2537C955.698 16.0189 954.949 15.9015 954.127 15.9015C952.67 15.9015 951.412 16.2586 950.356 16.9728C949.309 17.6871 948.501 18.7193 947.934 20.0695C947.376 21.4198 947.097 23.0537 947.097 24.9714C947.097 26.9674 947.381 28.6405 947.949 29.9907C948.526 31.3312 949.333 32.3438 950.37 33.0287C951.417 33.7039 952.655 34.0414 954.083 34.0414C954.886 34.0414 955.615 33.9387 956.27 33.7332C956.935 33.5277 957.518 33.2293 958.017 32.838C958.525 32.4368 958.941 31.9525 959.264 31.385C959.597 30.8077 959.827 30.1571 959.954 29.433L967.292 29.4771C967.165 30.8077 966.778 32.1188 966.133 33.4103C965.497 34.7018 964.621 35.8808 963.506 36.9473C962.39 38.004 961.03 38.8455 959.426 39.4717C957.831 40.0978 956.001 40.4109 953.937 40.4109C951.217 40.4109 948.78 39.8141 946.628 38.6204C944.485 37.417 942.792 35.6656 941.55 33.3663C940.307 31.067 939.686 28.2687 939.686 24.9714C939.686 21.6644 940.317 18.8612 941.579 16.5619C942.841 14.2626 944.549 12.5161 946.701 11.3225C948.854 10.1288 951.266 9.53195 953.937 9.53195C955.756 9.53195 957.439 9.78634 958.985 10.2951C960.531 10.7941 961.891 11.5279 963.065 12.4966C964.239 13.4554 965.193 14.6344 965.927 16.0336C966.661 17.4327 967.116 19.0324 967.292 20.8327ZM970.466 15.8428V9.94288H995.871V15.8428H986.757V40H979.594V15.8428H970.466ZM1006.68 9.94288V40H999.419V9.94288H1006.68ZM1038.53 20.8327H1031.19C1031.09 20.0793 1030.89 19.3993 1030.59 18.7927C1030.28 18.1861 1029.88 17.6675 1029.38 17.237C1028.88 16.8065 1028.29 16.4787 1027.61 16.2537C1026.93 16.0189 1026.18 15.9015 1025.36 15.9015C1023.9 15.9015 1022.65 16.2586 1021.59 16.9728C1020.54 17.6871 1019.74 18.7193 1019.17 20.0695C1018.61 21.4198 1018.33 23.0537 1018.33 24.9714C1018.33 26.9674 1018.62 28.6405 1019.18 29.9907C1019.76 31.3312 1020.57 32.3438 1021.61 33.0287C1022.65 33.7039 1023.89 34.0414 1025.32 34.0414C1026.12 34.0414 1026.85 33.9387 1027.51 33.7332C1028.17 33.5277 1028.75 33.2293 1029.25 32.838C1029.76 32.4368 1030.18 31.9525 1030.5 31.385C1030.83 30.8077 1031.06 30.1571 1031.19 29.433L1038.53 29.4771C1038.4 30.8077 1038.01 32.1188 1037.37 33.4103C1036.73 34.7018 1035.86 35.8808 1034.74 36.9473C1033.63 38.004 1032.27 38.8455 1030.66 39.4717C1029.07 40.0978 1027.24 40.4109 1025.17 40.4109C1022.45 40.4109 1020.02 39.8141 1017.86 38.6204C1015.72 37.417 1014.03 35.6656 1012.78 33.3663C1011.54 31.067 1010.92 28.2687 1010.92 24.9714C1010.92 21.6644 1011.55 18.8612 1012.81 16.5619C1014.08 14.2626 1015.78 12.5161 1017.94 11.3225C1020.09 10.1288 1022.5 9.53195 1025.17 9.53195C1026.99 9.53195 1028.67 9.78634 1030.22 10.2951C1031.77 10.7941 1033.13 11.5279 1034.3 12.4966C1035.47 13.4554 1036.43 14.6344 1037.16 16.0336C1037.9 17.4327 1038.35 19.0324 1038.53 20.8327ZM1048.42 40H1040.61L1050.75 9.94288H1060.42L1070.57 40H1062.76L1055.7 17.5159H1055.46L1048.42 40ZM1047.38 28.1709H1063.7V33.6892H1047.38V28.1709ZM1073.8 40V9.94288H1081.07V34.1001H1093.57V40H1073.8Z" fill="black"/>
<path d="M846.137 344.829H864.279V348.341H850.173V356.614H860.848V360.005H850.173V369.368H864.279V372.92H846.137V344.829ZM870.091 344.829H872.674L882.683 356.332L892.652 344.829H895.235V372.92H891.199V351.529L890.008 353.143L882.683 361.68L875.358 353.164L874.127 351.549V372.92H870.091V344.829ZM901.592 344.829H909.563C914.877 344.829 918.301 346.403 919.834 349.551C920.386 350.708 920.662 352.081 920.662 353.668C920.662 355.256 920.379 356.614 919.814 357.744C919.249 358.875 918.489 359.803 917.534 360.529C915.677 361.928 913.195 362.628 910.088 362.628H905.628V372.92H901.592V344.829ZM909.3 359.399C911.736 359.399 913.538 358.928 914.709 357.987C915.879 357.045 916.464 355.578 916.464 353.587C916.464 350.937 915.233 349.229 912.771 348.462C911.91 348.193 910.868 348.058 909.644 348.058H905.628V359.399H909.3ZM934.687 344.829H937.452L949.297 372.92H945.1L942.254 365.857H929.783L926.958 372.92H922.841L934.687 344.829ZM940.963 362.628L936.039 350.318L931.095 362.628H940.963ZM959.851 348.381H951.396V344.829H972.343V348.381H963.887V372.92H959.851V348.381ZM977.105 344.829H981.141V355.928H994.42V344.829H998.456V372.92H994.42V359.48H981.141V372.92H977.105V344.829ZM1004.67 344.829H1022.81V348.341H1008.71V356.614H1019.38V360.005H1008.71V369.368H1022.81V372.92H1004.67V344.829ZM1035.69 348.381H1027.23V344.829H1048.18V348.381H1039.72V372.92H1035.69V348.381ZM1052.98 344.829H1057.02V372.92H1052.98V344.829ZM1082.36 372.758C1081.03 373.001 1079.24 373.122 1076.98 373.122C1074.73 373.122 1072.7 372.812 1070.88 372.193C1069.08 371.574 1067.52 370.66 1066.22 369.449C1063.42 366.852 1062.02 363.233 1062.02 358.592C1062.02 355.565 1062.74 352.942 1064.18 350.722C1066.13 347.722 1069.13 345.811 1073.16 344.991C1074.4 344.749 1075.87 344.628 1077.58 344.628C1079.3 344.628 1080.68 344.722 1081.72 344.91V348.764C1080.78 348.468 1079.32 348.32 1077.34 348.32C1075.37 348.32 1073.71 348.563 1072.33 349.047C1070.96 349.531 1069.83 350.224 1068.92 351.125C1067.12 352.888 1066.22 355.377 1066.22 358.592C1066.22 361.834 1067.11 364.404 1068.88 366.301C1070.81 368.346 1073.57 369.368 1077.18 369.368C1079.29 369.368 1081.02 369.207 1082.36 368.884V372.758Z" fill="#7000FF"/>
<path d="M73.9899 116.264C73.9899 115.624 74.2459 115.08 74.7579 114.632C75.2699 114.184 76.1339 113.96 77.3499 113.96C79.5899 113.96 80.7099 114.984 80.7099 117.032V118.664C80.7099 122.888 78.2779 125 73.4139 125H56.1339C51.4619 125 49.1259 122.728 49.1259 118.184V90.824C49.1259 86.152 51.4939 83.816 56.2299 83.816H73.4139C78.2779 83.816 80.7099 85.928 80.7099 90.152V91.592C80.7099 93.896 79.5899 95.048 77.3499 95.048C75.1099 95.048 73.9899 94.312 73.9899 92.84C73.9899 89.32 72.0379 87.56 68.1339 87.56H61.6059C57.7659 87.56 55.8459 89.224 55.8459 92.552V116.552C55.8459 119.816 57.7339 121.448 61.5099 121.448H68.3259C72.1019 121.448 73.9899 119.72 73.9899 116.264ZM113.228 99.08C114.572 97.736 115.244 96.04 115.244 93.992V91.88C115.116 90.472 114.668 89.416 113.9 88.712C113.132 87.944 112.012 87.56 110.54 87.56H102.668C98.9564 87.56 97.1004 89.704 97.1004 93.992V96.584C97.1004 100.872 98.9244 103.016 102.572 103.016H105.356C107.468 103.016 109.164 102.408 110.444 101.192L113.228 99.08ZM118.508 125.384C116.332 125.384 115.244 124.008 115.244 121.256V114.44C115.244 113.928 115.052 113.384 114.668 112.808C114.284 112.168 113.772 111.528 113.132 110.888L110.348 108.584C108.748 107.368 107.308 106.76 106.028 106.76H102.572C98.9244 106.76 97.1004 108.584 97.1004 112.232V120.968C97.1004 123.912 95.9804 125.384 93.7404 125.384C91.5004 125.384 90.3804 123.816 90.3804 120.68V90.824C90.3804 86.152 92.8444 83.816 97.7724 83.816H113.708C119.212 83.816 121.964 85.992 121.964 90.344V96.68C121.644 98.536 120.268 100.488 117.836 102.536C116.876 103.304 116.396 104.104 116.396 104.936C116.396 105.704 116.844 106.504 117.74 107.336C120.3 109.768 121.708 111.752 121.964 113.288V121.064C121.964 123.944 120.812 125.384 118.508 125.384ZM144.211 121.448H159.955C162.003 121.448 163.027 122.056 163.027 123.272C163.027 124.424 162.035 125 160.051 125H139.219C134.035 125 131.443 122.888 131.443 118.664V90.344C131.443 85.992 134.035 83.816 139.219 83.816H160.051C162.035 83.816 163.027 84.424 163.027 85.64C163.027 86.92 162.003 87.56 159.955 87.56H144.211C140.179 87.56 138.163 89.224 138.163 92.552V96.68C138.163 100.072 140.115 101.768 144.019 101.768H159.859C161.971 101.768 163.027 102.312 163.027 103.4C163.027 104.744 162.003 105.416 159.955 105.416H144.019C140.115 105.416 138.163 107.112 138.163 110.504V116.648C138.163 119.848 140.179 121.448 144.211 121.448ZM188.79 87.56H182.262C178.422 87.56 176.502 89.576 176.502 93.608V97.256C176.502 101.096 178.39 103.016 182.166 103.016H188.982C192.758 103.016 194.646 100.648 194.646 95.912V92.36C194.646 89.16 192.694 87.56 188.79 87.56ZM194.646 119.816V111.368C194.646 108.232 192.694 106.664 188.79 106.664H182.262C178.422 106.664 176.502 108.232 176.502 111.368V119.912C176.502 123.24 175.382 124.904 173.142 124.904C170.902 124.904 169.782 123.4 169.782 120.392V90.728C169.782 86.12 172.118 83.816 176.79 83.816H193.398C198.71 83.816 201.366 86.12 201.366 90.728V120.296C201.366 123.368 200.246 124.904 198.006 124.904C195.766 124.904 194.646 123.208 194.646 119.816ZM207.293 85.64C207.293 84.424 208.413 83.816 210.653 83.816H235.133C237.437 83.816 238.589 84.424 238.589 85.64C238.589 86.92 237.405 87.56 235.037 87.56H231.677C228.029 87.56 226.205 89.224 226.205 92.552V120.584C226.205 123.912 225.085 125.576 222.845 125.576C220.669 125.576 219.581 123.912 219.581 120.584V92.552C219.581 89.224 217.757 87.56 214.109 87.56H210.941C208.509 87.56 207.293 86.92 207.293 85.64ZM249.006 125.192C246.83 125.192 245.742 123.624 245.742 120.488L245.646 87.752C245.646 84.744 246.734 83.24 248.91 83.24C251.15 83.24 252.27 84.776 252.27 87.848L252.366 120.488C252.366 123.624 251.246 125.192 249.006 125.192ZM278.624 125H277.376C275.648 125 274.24 124.232 273.152 122.696L264.128 112.328C263.36 111.496 262.816 110.504 262.496 109.352C262.176 108.136 262.016 106.664 262.016 104.936V88.232C262.016 84.968 263.136 83.336 265.376 83.336C267.68 83.336 268.832 84.968 268.832 88.232L268.736 105.896C268.736 107.88 269.824 110.056 272 112.424L276.896 118.088C277.408 118.408 277.792 118.568 278.048 118.568C278.56 118.568 279.04 118.312 279.488 117.8L284.384 112.52C285.472 111.368 286.336 110.216 286.976 109.064C287.616 107.912 287.936 106.856 287.936 105.896V88.232C287.936 84.968 289.024 83.336 291.2 83.336C293.504 83.336 294.656 84.936 294.656 88.136L294.56 104.936C294.56 108.2 293.728 110.664 292.064 112.328L283.136 122.6C282.368 123.496 281.6 124.136 280.832 124.52C280.128 124.84 279.392 125 278.624 125ZM316.711 121.448H332.455C334.503 121.448 335.527 122.056 335.527 123.272C335.527 124.424 334.535 125 332.551 125H311.719C306.535 125 303.943 122.888 303.943 118.664V90.344C303.943 85.992 306.535 83.816 311.719 83.816H332.551C334.535 83.816 335.527 84.424 335.527 85.64C335.527 86.92 334.503 87.56 332.455 87.56H316.711C312.679 87.56 310.663 89.224 310.663 92.552V96.68C310.663 100.072 312.615 101.768 316.519 101.768H332.359C334.471 101.768 335.527 102.312 335.527 103.4C335.527 104.744 334.503 105.416 332.455 105.416H316.519C312.615 105.416 310.663 107.112 310.663 110.504V116.648C310.663 119.848 312.679 121.448 316.711 121.448Z" fill="#2A006F"/>
<path d="M954.775 331.883H944.12V301.826H954.863C957.886 301.826 960.489 302.427 962.671 303.631C964.853 304.825 966.531 306.542 967.705 308.782C968.889 311.023 969.481 313.704 969.481 316.825C969.481 319.956 968.889 322.647 967.705 324.897C966.531 327.147 964.843 328.874 962.642 330.078C960.45 331.281 957.828 331.883 954.775 331.883ZM950.475 326.438H954.511C956.389 326.438 957.97 326.105 959.251 325.44C960.543 324.765 961.511 323.723 962.157 322.314C962.813 320.895 963.141 319.065 963.141 316.825C963.141 314.604 962.813 312.789 962.157 311.38C961.511 309.971 960.548 308.934 959.266 308.269C957.984 307.603 956.404 307.271 954.526 307.271H950.475V326.438ZM974.188 331.883V301.826H986.047C988.317 301.826 990.254 302.232 991.858 303.044C993.473 303.846 994.701 304.986 995.542 306.463C996.393 307.931 996.819 309.658 996.819 311.644C996.819 313.64 996.389 315.357 995.528 316.796C994.667 318.224 993.419 319.32 991.785 320.083C990.161 320.846 988.194 321.228 985.885 321.228H977.945V316.12H984.858C986.071 316.12 987.079 315.954 987.881 315.621C988.683 315.289 989.28 314.79 989.672 314.124C990.073 313.459 990.273 312.632 990.273 311.644C990.273 310.646 990.073 309.805 989.672 309.12C989.28 308.435 988.679 307.916 987.866 307.564C987.064 307.202 986.052 307.021 984.828 307.021H980.543V331.883H974.188ZM990.42 318.204L997.89 331.883H990.875L983.566 318.204H990.42ZM1007.66 301.826V331.883H1001.31V301.826H1007.66ZM1018.32 301.826L1025.59 324.662H1025.87L1033.15 301.826H1040.19L1029.83 331.883H1021.64L1011.26 301.826H1018.32ZM1043.81 331.883V301.826H1064.06V307.065H1050.16V314.227H1063.02V319.467H1050.16V326.643H1064.12V331.883H1043.81ZM1094.26 301.826V331.883H1088.77L1075.69 312.965H1075.47V331.883H1069.11V301.826H1074.69L1087.67 320.729H1087.93V301.826H1094.26Z" fill="#2A006F"/>
</svg>
