<svg width="1831" height="1008" viewBox="0 0 1831 1008" fill="none" xmlns="http://www.w3.org/2000/svg">
<g clip-path="url(#clip0_7_79)">
<path d="M443.641 532.299H385.775V1008H443.641V532.299Z" fill="#8000FF"/>
<path d="M422.033 598.294C421.235 599.693 420.147 600.842 418.869 601.637C417.59 602.432 416.16 602.848 414.707 602.848C413.255 602.848 411.825 602.432 410.546 601.637C409.268 600.842 408.18 599.693 407.382 598.294L373.667 539.202C372.797 537.678 372.301 535.911 372.232 534.089C372.163 532.266 372.523 530.456 373.274 528.85C374.025 527.245 375.139 525.903 376.498 524.968C377.857 524.033 379.41 523.54 380.993 523.54H448.423C450.005 523.54 451.558 524.034 452.916 524.969C454.275 525.903 455.389 527.245 456.14 528.85C456.89 530.456 457.251 532.265 457.182 534.088C457.113 535.91 456.617 537.676 455.748 539.2L422.033 598.294Z" fill="#8000FF"/>
<path d="M437.796 408.321H391.035C379.737 408.321 370.578 418.879 370.578 431.904V527.583C370.578 540.607 379.737 551.166 391.035 551.166H437.796C449.094 551.166 458.254 540.607 458.254 527.583V431.904C458.254 418.879 449.094 408.321 437.796 408.321Z" fill="#8000FF"/>
<path d="M415 508.043L340.768 396.866H489.232L415 508.043Z" fill="#8000FF"/>
<path d="M501.507 385.412H327.324V392.15H501.507V385.412Z" fill="#8000FF"/>
<path d="M341.06 380.695L326.155 365.872H355.965L341.06 380.695Z" fill="#8000FF"/>
<path d="M489.525 380.695L474.62 365.872H504.43L489.525 380.695Z" fill="#8000FF"/>
<path d="M489.232 365.872H340.768V380.695H489.232V365.872Z" fill="#8000FF"/>
<path d="M530.732 355.765H299.268V361.155H530.732V355.765Z" fill="#8000FF"/>
<path d="M358.595 334.877L389.866 349.701H327.324L358.595 334.877Z" fill="#8000FF"/>
<path d="M473.158 334.877L504.43 349.701H441.887L473.158 334.877Z" fill="#8000FF"/>
<path d="M473.451 334.877H358.303V349.701H473.451V334.877Z" fill="#8000FF"/>
<path d="M378.176 293.775L397.465 330.834H358.887L378.176 293.775Z" fill="#8000FF"/>
<path d="M454.162 293.775L473.451 330.834H434.873L454.162 293.775Z" fill="#8000FF"/>
<path d="M454.162 293.775H378.176V330.834H454.162V293.775Z" fill="#8000FF"/>
<path d="M398.634 217.636L419.092 290.407H378.176L398.634 217.636Z" fill="#8000FF"/>
<path d="M433.704 217.636L454.162 290.407H413.246L433.704 217.636Z" fill="#8000FF"/>
<path d="M433.704 217.636H398.634V280.973H433.704V217.636Z" fill="#8000FF"/>
<path d="M433.412 213.594L427.275 197.422H439.549L433.412 213.594Z" fill="#8000FF"/>
<path d="M399.511 213.594L393.373 197.422H405.648L399.511 213.594Z" fill="#8000FF"/>
<path d="M433.704 197.422H399.218V213.593H433.704V197.422Z" fill="#8000FF"/>
<path d="M416.461 138.128L433.704 193.38H399.218L416.461 138.128Z" fill="#8000FF"/>
<path d="M416.461 165.754L402.725 149.583H430.197L416.461 165.754Z" fill="#8000FF"/>
<path d="M416.461 0L422.014 149.583H410.908L416.461 0Z" fill="#8000FF"/>
<path d="M386.359 914.342L402.141 1008H370.578L386.359 914.342Z" fill="#8000FF"/>
<path d="M443.641 914.342L459.423 1008H427.859L443.641 914.342Z" fill="#8000FF"/>
<path d="M132.099 610.46H2.92249V1008H132.099V610.46Z" fill="#8000FF"/>
<path d="M2324 985.091H105.211V1008H2324V985.091Z" fill="#8000FF"/>
<path d="M2323.71 985.428H105.504V1007.66H2323.71V985.428Z" stroke="#8000FF"/>
<path d="M362.394 654.257H256.014V1008H362.394V654.257Z" fill="#8000FF"/>
<path d="M242.57 752.631H145.542V1008H242.57V752.631Z" fill="#8000FF"/>
<path d="M67.5106 611.808C101.568 611.808 129.176 601.4 129.176 588.562C129.176 575.723 101.568 565.316 67.5106 565.316C33.4537 565.316 5.84509 575.723 5.84509 588.562C5.84509 601.4 33.4537 611.808 67.5106 611.808Z" stroke="#8000FF" stroke-width="20"/>
<path d="M299.268 865.829H105.211V998.567H299.268V865.829Z" fill="#8000FF"/>
<path d="M543.007 809.23H427.859V988.46H543.007V809.23Z" fill="#8000FF"/>
<path d="M622.5 681.882H530.732V988.46H622.5V681.882Z" fill="#8000FF"/>
<path d="M727.711 778.235H635.944V988.46H727.711V778.235Z" fill="#8000FF"/>
<path d="M658.155 717.594L680.366 779.583H635.944L658.155 717.594Z" fill="#8000FF"/>
<path d="M705.5 717.594L727.711 779.583H683.289L705.5 717.594Z" fill="#8000FF"/>
<path d="M705.5 717.594H658.155V779.583H705.5V717.594Z" fill="#8000FF"/>
<path d="M658.155 927.145H594.444V998.567H658.155V927.145Z" fill="#8000FF"/>
<path d="M890.204 778.235H775.056V988.46H890.204V778.235Z" fill="#8000FF"/>
<path d="M1079.29 988.797L1477.93 885.032" stroke="#8000FF" stroke-width="15"/>
<path d="M1477.93 884.695H1919.23" stroke="#8000FF" stroke-width="15"/>
<path d="M1475.59 883.684L1558 829.107" stroke="#8000FF" stroke-width="5"/>
<path d="M1516.8 885.032V853.364" stroke="#8000FF" stroke-width="5"/>
<path d="M1516.8 853.364L1537.84 883.011" stroke="#8000FF" stroke-width="5"/>
<path d="M1490.49 928.492H1460.68V1003.28H1490.49V928.492Z" fill="#8000FF"/>
<path d="M1490.2 928.829H1460.98V1002.95H1490.2V928.829Z" stroke="#8000FF"/>
<path d="M1557.13 829.107H1840.03" stroke="#8000FF" stroke-width="5"/>
<path d="M1839.15 829.107L1822.2 882.337" stroke="#8000FF" stroke-width="5"/>
<path d="M1803.5 829.107L1822.2 882.337" stroke="#8000FF" stroke-width="5"/>
<path d="M1803.5 829.107L1788.3 880.989" stroke="#8000FF" stroke-width="5"/>
<path d="M1773.1 828.433L1788.3 880.989" stroke="#8000FF" stroke-width="5"/>
<path d="M1773.1 828.433L1754.4 882.337" stroke="#8000FF" stroke-width="5"/>
<path d="M1738.03 828.433L1754.4 882.337" stroke="#8000FF" stroke-width="5"/>
<path d="M1738.03 828.433L1718.16 885.032" stroke="#8000FF" stroke-width="5"/>
<path d="M1704.13 829.107L1718.16 885.032" stroke="#8000FF" stroke-width="5"/>
<path d="M1704.13 829.107L1681.92 883.01" stroke="#8000FF" stroke-width="5"/>
<path d="M1665.55 829.107L1681.92 883.01" stroke="#8000FF" stroke-width="5"/>
<path d="M1665.55 829.107L1646.26 885.032" stroke="#8000FF" stroke-width="5"/>
<path d="M1625.81 829.107L1646.26 885.032" stroke="#8000FF" stroke-width="5"/>
<path d="M1625.81 829.107L1606.52 883.01" stroke="#8000FF" stroke-width="5"/>
<path d="M1588.4 829.107L1606.52 883.01" stroke="#8000FF" stroke-width="5"/>
<path d="M1588.4 829.107L1571.45 880.315" stroke="#8000FF" stroke-width="5"/>
<path d="M1558 829.107L1571.45 880.315" stroke="#8000FF" stroke-width="5"/>
<path d="M1558 829.107L1536.38 883.01" stroke="#8000FF" stroke-width="5"/>
<path d="M1536.38 842.583V883.011" stroke="#8000FF" stroke-width="5"/>
<path d="M1557.42 829.107L1557.13 882.337" stroke="#8000FF" stroke-width="5"/>
<path d="M1572.32 829.781L1572.03 883.011" stroke="#8000FF" stroke-width="5"/>
<path d="M1588.69 831.465L1588.4 884.695" stroke="#8000FF" stroke-width="5"/>
<path d="M1606.52 830.118L1606.23 883.348" stroke="#8000FF" stroke-width="5"/>
<path d="M1625.81 830.455L1625.51 883.685" stroke="#8000FF" stroke-width="5"/>
<path d="M1646.85 829.781L1646.56 883.011" stroke="#8000FF" stroke-width="5"/>
<path d="M1665.55 831.802L1665.26 885.032" stroke="#8000FF" stroke-width="5"/>
<path d="M1683.09 827.759L1682.8 880.989" stroke="#8000FF" stroke-width="5"/>
<path d="M1703.55 828.433L1703.25 881.663" stroke="#8000FF" stroke-width="5"/>
<path d="M1719.03 828.433L1718.74 881.663" stroke="#8000FF" stroke-width="5"/>
<path d="M1737.74 831.465L1737.45 884.695" stroke="#8000FF" stroke-width="5"/>
<path d="M1754.98 830.118L1754.69 883.348" stroke="#8000FF" stroke-width="5"/>
<path d="M1773.1 832.813L1772.81 886.043" stroke="#8000FF" stroke-width="5"/>
<path d="M1804.08 830.455L1803.79 883.685" stroke="#8000FF" stroke-width="5"/>
<path d="M1804.08 830.455L1803.79 883.685" stroke="#8000FF" stroke-width="5"/>
<path d="M1822.2 828.433L1821.91 881.663" stroke="#8000FF" stroke-width="5"/>
<path d="M1788.59 829.107L1788.3 882.337" stroke="#8000FF" stroke-width="5"/>
<path d="M1477.93 934.893L1547.48 883.685" stroke="#8000FF" stroke-width="5"/>
<path d="M1206.13 988.797L1463.31 931.524" stroke="#8000FF" stroke-width="5"/>
<path d="M1477.93 934.893V886.38" stroke="#8000FF" stroke-width="5"/>
<path d="M1425.32 941.631V898.508" stroke="#8000FF" stroke-width="5"/>
<path d="M1376.22 952.412V909.289" stroke="#8000FF" stroke-width="5"/>
<path d="M1327.12 963.193V920.07" stroke="#8000FF" stroke-width="5"/>
<path d="M1278.02 974.647V931.524" stroke="#8000FF" stroke-width="5"/>
<path d="M1228.93 987.449V949.043" stroke="#8000FF" stroke-width="5"/>
<path d="M1179.24 998.567V960.16" stroke="#8000FF" stroke-width="5"/>
<path d="M1477.93 934.893L1507.74 886.38" stroke="#8000FF" stroke-width="5"/>
<path d="M1477.93 934.893L1425.32 903.225" stroke="#8000FF" stroke-width="5"/>
<path d="M1376.22 949.043L1425.32 903.225" stroke="#8000FF" stroke-width="5"/>
<path d="M1376.22 949.043L1327.12 928.829" stroke="#8000FF" stroke-width="5"/>
<path d="M1278.02 972.626L1327.12 928.829" stroke="#8000FF" stroke-width="5"/>
<path d="M1278.02 972.626L1228.93 953.086" stroke="#8000FF" stroke-width="5"/>
<path d="M1179.24 987.449L1228.93 953.086" stroke="#8000FF" stroke-width="5"/>
<path d="M1704.13 794.07V828.433" stroke="#8000FF" stroke-width="5"/>
<path d="M1727.22 794.406H1704.42V811.251H1727.22V794.406Z" fill="#8000FF"/>
</g>
<defs>
<clipPath id="clip0_7_79">
<rect width="2324" height="1008" fill="white"/>
</clipPath>
</defs>
</svg>
