<svg id="Component_28_1" data-name="Component 28 – 1" xmlns="http://www.w3.org/2000/svg" width="3976" height="1496" viewBox="0 0 3970 1490">
  <g id="Component_26_1" data-name="Component 26 – 1" transform="translate(512)">
    <rect id="Rectangle_14" data-name="Rectangle 14" width="99" height="706" transform="translate(148 790)" fill="currentColor"/>
    <path id="Polygon_1" data-name="Polygon 1" d="M72.968,19.055a15,15,0,0,1,25.065,0l57.681,87.7A15,15,0,0,1,143.181,130H27.819a15,15,0,0,1-12.532-23.242Z" transform="translate(283 907) rotate(180)" fill="currentColor"/>
    <rect id="Rectangle_15" data-name="Rectangle 15" width="150" height="212" rx="35" transform="translate(122 606)" fill="currentColor"/>
    <path id="Polygon_2" data-name="Polygon 2" d="M127,0,254,165H0Z" transform="translate(325 754) rotate(180)" fill="currentColor"/>
    <rect id="Rectangle_16" data-name="Rectangle 16" width="298" height="10" transform="translate(48 572)" fill="currentColor"/>
    <path id="Polygon_3" data-name="Polygon 3" d="M25.5,0,51,22H0Z" transform="translate(97 565) rotate(180)" fill="currentColor"/>
    <path id="Polygon_4" data-name="Polygon 4" d="M25.5,0,51,22H0Z" transform="translate(351 565) rotate(180)" fill="currentColor"/>
    <rect id="Rectangle_17" data-name="Rectangle 17" width="254" height="22" transform="translate(71 543)" fill="currentColor"/>
    <rect id="Rectangle_18" data-name="Rectangle 18" width="396" height="8" transform="translate(0 528)" fill="currentColor"/>
    <path id="Polygon_5" data-name="Polygon 5" d="M53.5,0,107,22H0Z" transform="translate(48 497)" fill="currentColor"/>
    <path id="Polygon_6" data-name="Polygon 6" d="M53.5,0,107,22H0Z" transform="translate(244 497)" fill="currentColor"/>
    <rect id="Rectangle_19" data-name="Rectangle 19" width="197" height="22" transform="translate(101 497)" fill="currentColor"/>
    <path id="Polygon_7" data-name="Polygon 7" d="M33,0,66,55H0Z" transform="translate(102 436)" fill="currentColor"/>
    <path id="Polygon_8" data-name="Polygon 8" d="M33,0,66,55H0Z" transform="translate(232 436)" fill="currentColor"/>
    <rect id="Rectangle_20" data-name="Rectangle 20" width="130" height="55" transform="translate(135 436)" fill="currentColor"/>
    <path id="Polygon_9" data-name="Polygon 9" d="M35,0,70,108H0Z" transform="translate(135 323)" fill="currentColor"/>
    <path id="Polygon_10" data-name="Polygon 10" d="M35,0,70,108H0Z" transform="translate(195 323)" fill="currentColor"/>
    <rect id="Rectangle_21" data-name="Rectangle 21" width="60" height="94" transform="translate(170 323)" fill="currentColor"/>
    <path id="Polygon_11" data-name="Polygon 11" d="M10.5,0,21,24H0Z" transform="translate(240 317) rotate(180)" fill="currentColor"/>
    <path id="Polygon_12" data-name="Polygon 12" d="M10.5,0,21,24H0Z" transform="translate(182 317) rotate(180)" fill="currentColor"/>
    <rect id="Rectangle_22" data-name="Rectangle 22" width="59" height="24" transform="translate(171 293)" fill="currentColor"/>
    <path id="Polygon_13" data-name="Polygon 13" d="M29.5,0,59,82H0Z" transform="translate(171 205)" fill="currentColor"/>
    <path id="Polygon_14" data-name="Polygon 14" d="M23.5,0,47,24H0Z" transform="translate(224 246) rotate(180)" fill="currentColor"/>
    <path id="Polygon_15" data-name="Polygon 15" d="M9.5,0,19,222H0Z" transform="translate(191)" fill="currentColor"/>
    <path id="Polygon_16" data-name="Polygon 16" d="M27,0,54,139H0Z" transform="translate(122 1357)" fill="currentColor"/>
    <path id="Polygon_17" data-name="Polygon 17" d="M27,0,54,139H0Z" transform="translate(220 1357)" fill="currentColor"/>
  </g>
  <rect id="Rectangle_23" data-name="Rectangle 23" width="221" height="590" transform="translate(5 906)" fill="currentColor"/>
  <g id="Rectangle_24" data-name="Rectangle 24" transform="translate(180 1462)" fill="currentColor" stroke="currentColor" stroke-width="1">
    <rect width="3796" height="34" stroke="none"/>
    <rect x="0.5" y="0.5" width="3795" height="33" fill="none"/>
  </g>
  <rect id="Rectangle_25" data-name="Rectangle 25" width="182" height="525" transform="translate(438 971)" fill="currentColor"/>
  <rect id="Rectangle_26" data-name="Rectangle 26" width="166" height="379" transform="translate(249 1117)" fill="currentColor"/>
  <g id="Ellipse_7" data-name="Ellipse 7" transform="translate(0 829)" fill="none" stroke="currentColor" stroke-width="20">
    <ellipse cx="115.5" cy="44.5" rx="115.5" ry="44.5" stroke="none"/>
    <ellipse cx="115.5" cy="44.5" rx="105.5" ry="34.5" fill="none"/>
  </g>
  <rect id="Rectangle_27" data-name="Rectangle 27" width="332" height="197" transform="translate(180 1285)" fill="currentColor"/>
  <rect id="Rectangle_28" data-name="Rectangle 28" width="197" height="266" transform="translate(732 1201)" fill="currentColor"/>
  <rect id="Rectangle_29" data-name="Rectangle 29" width="157" height="455" transform="translate(908 1012)" fill="currentColor"/>
  <rect id="Rectangle_30" data-name="Rectangle 30" width="157" height="312" transform="translate(1088 1155)" fill="currentColor"/>
  <path id="Polygon_18" data-name="Polygon 18" d="M38,0,76,92H0Z" transform="translate(1088 1065)" fill="currentColor"/>
  <path id="Polygon_19" data-name="Polygon 19" d="M38,0,76,92H0Z" transform="translate(1169 1065)" fill="currentColor"/>
  <rect id="Rectangle_31" data-name="Rectangle 31" width="81" height="92" transform="translate(1126 1065)" fill="currentColor"/>
  <rect id="Rectangle_32" data-name="Rectangle 32" width="109" height="106" transform="translate(1017 1376)" fill="currentColor"/>
  <rect id="Rectangle_33" data-name="Rectangle 33" width="197" height="312" transform="translate(1326 1155)" fill="currentColor"/>
  <line id="Line_4" data-name="Line 4" y1="154" x2="682" transform="translate(1846.5 1313.5)" fill="none" stroke="currentColor" stroke-width="15"/>
  <line id="Line_5" data-name="Line 5" x2="755" transform="translate(2528.5 1313)" fill="none" stroke="currentColor" stroke-width="15"/>
  <line id="Line_6" data-name="Line 6" x2="680" y2="149" transform="translate(3283.5 1313.5)" fill="none" stroke="currentColor" stroke-width="15"/>
  <line id="Line_7" data-name="Line 7" y1="81" x2="141" transform="translate(2524.5 1230.5)" fill="none" stroke="currentColor" stroke-width="5"/>
  <line id="Line_8" data-name="Line 8" y1="47" transform="translate(2595 1266.5)" fill="none" stroke="currentColor" stroke-width="5"/>
  <line id="Line_9" data-name="Line 9" x2="36" y2="44" transform="translate(2595 1266.5)" fill="none" stroke="currentColor" stroke-width="5"/>
  <line id="Line_10" data-name="Line 10" x1="131" y1="82" transform="translate(3146.5 1230.5)" fill="none" stroke="currentColor" stroke-width="5"/>
  <g id="Rectangle_34" data-name="Rectangle 34" transform="translate(2499 1378)" fill="currentColor" stroke="currentColor" stroke-width="1">
    <rect width="51" height="111" stroke="none"/>
    <rect x="0.5" y="0.5" width="50" height="110" fill="none"/>
  </g>
  <g id="Rectangle_35" data-name="Rectangle 35" transform="translate(3258 1378)" fill="currentColor" stroke="currentColor" stroke-width="1">
    <rect width="51" height="111" stroke="none"/>
    <rect x="0.5" y="0.5" width="50" height="110" fill="none"/>
  </g>
  <line id="Line_11" data-name="Line 11" y1="47" transform="translate(3208 1265.5)" fill="none" stroke="currentColor" stroke-width="5"/>
  <line id="Line_12" data-name="Line 12" x1="33.075" y2="44" transform="translate(3174.925 1265.5)" fill="none" stroke="currentColor" stroke-width="5"/>
  <line id="Line_13" data-name="Line 13" x2="484" transform="translate(2664 1230.5)" fill="none" stroke="currentColor" stroke-width="5"/>
  <line id="Line_14" data-name="Line 14" x2="28.425" y2="79" transform="translate(3146.5 1230.5)" fill="none" stroke="currentColor" stroke-width="5"/>
  <line id="Line_15" data-name="Line 15" x1="29" y2="79" transform="translate(3117.5 1230.5)" fill="none" stroke="currentColor" stroke-width="5"/>
  <line id="Line_16" data-name="Line 16" x2="32" y2="79" transform="translate(3085.5 1230.5)" fill="none" stroke="currentColor" stroke-width="5"/>
  <line id="Line_17" data-name="Line 17" x1="26" y2="77" transform="translate(3059.5 1230.5)" fill="none" stroke="currentColor" stroke-width="5"/>
  <line id="Line_18" data-name="Line 18" x2="26" y2="78" transform="translate(3033.5 1229.5)" fill="none" stroke="currentColor" stroke-width="5"/>
  <line id="Line_19" data-name="Line 19" x1="32" y2="80" transform="translate(3001.5 1229.5)" fill="none" stroke="currentColor" stroke-width="5"/>
  <line id="Line_20" data-name="Line 20" x2="28" y2="80" transform="translate(2973.5 1229.5)" fill="none" stroke="currentColor" stroke-width="5"/>
  <line id="Line_21" data-name="Line 21" x1="34" y2="84" transform="translate(2939.5 1229.5)" fill="none" stroke="currentColor" stroke-width="5"/>
  <line id="Line_22" data-name="Line 22" x2="24" y2="83" transform="translate(2915.5 1230.5)" fill="none" stroke="currentColor" stroke-width="5"/>
  <line id="Line_23" data-name="Line 23" x1="38" y2="80" transform="translate(2877.5 1230.5)" fill="none" stroke="currentColor" stroke-width="5"/>
  <line id="Line_24" data-name="Line 24" x2="28" y2="80" transform="translate(2849.5 1230.5)" fill="none" stroke="currentColor" stroke-width="5"/>
  <line id="Line_25" data-name="Line 25" x1="33" y2="83" transform="translate(2816.5 1230.5)" fill="none" stroke="currentColor" stroke-width="5"/>
  <line id="Line_26" data-name="Line 26" x2="35" y2="83" transform="translate(2781.5 1230.5)" fill="none" stroke="currentColor" stroke-width="5"/>
  <line id="Line_27" data-name="Line 27" x1="33" y2="80" transform="translate(2748.5 1230.5)" fill="none" stroke="currentColor" stroke-width="5"/>
  <line id="Line_28" data-name="Line 28" x2="31" y2="80" transform="translate(2717.5 1230.5)" fill="none" stroke="currentColor" stroke-width="5"/>
  <line id="Line_29" data-name="Line 29" x1="29" y2="76" transform="translate(2688.5 1230.5)" fill="none" stroke="currentColor" stroke-width="5"/>
  <line id="Line_30" data-name="Line 30" x2="23" y2="76" transform="translate(2665.5 1230.5)" fill="none" stroke="currentColor" stroke-width="5"/>
  <line id="Line_31" data-name="Line 31" x1="37" y2="80" transform="translate(2628.5 1230.5)" fill="none" stroke="currentColor" stroke-width="5"/>
  <line id="Line_32" data-name="Line 32" y2="60" transform="translate(2628.5 1250.5)" fill="none" stroke="currentColor" stroke-width="5"/>
  <line id="Line_33" data-name="Line 33" x1="0.5" y2="79" transform="translate(2664 1230.5)" fill="none" stroke="currentColor" stroke-width="5"/>
  <line id="Line_34" data-name="Line 34" x1="0.5" y2="79" transform="translate(2689.5 1231.5)" fill="none" stroke="currentColor" stroke-width="5"/>
  <line id="Line_35" data-name="Line 35" x1="0.5" y2="79" transform="translate(2717.5 1234)" fill="none" stroke="currentColor" stroke-width="5"/>
  <line id="Line_36" data-name="Line 36" x1="0.5" y2="79" transform="translate(2748 1232)" fill="none" stroke="currentColor" stroke-width="5"/>
  <line id="Line_37" data-name="Line 37" x1="0.5" y2="79" transform="translate(2781 1232.5)" fill="none" stroke="currentColor" stroke-width="5"/>
  <line id="Line_38" data-name="Line 38" x1="0.5" y2="79" transform="translate(2817 1231.5)" fill="none" stroke="currentColor" stroke-width="5"/>
  <line id="Line_39" data-name="Line 39" x1="0.5" y2="79" transform="translate(2849 1234.5)" fill="none" stroke="currentColor" stroke-width="5"/>
  <line id="Line_40" data-name="Line 40" x1="0.5" y2="79" transform="translate(2879 1228.5)" fill="none" stroke="currentColor" stroke-width="5"/>
  <line id="Line_41" data-name="Line 41" x1="0.5" y2="79" transform="translate(2914 1229.5)" fill="none" stroke="currentColor" stroke-width="5"/>
  <line id="Line_42" data-name="Line 42" x1="0.5" y2="79" transform="translate(2940.5 1229.5)" fill="none" stroke="currentColor" stroke-width="5"/>
  <line id="Line_43" data-name="Line 43" x1="0.5" y2="79" transform="translate(2972.5 1234)" fill="none" stroke="currentColor" stroke-width="5"/>
  <line id="Line_44" data-name="Line 44" x1="0.5" y2="79" transform="translate(3002 1232)" fill="none" stroke="currentColor" stroke-width="5"/>
  <line id="Line_45" data-name="Line 45" x1="0.5" y2="79" transform="translate(3033 1236)" fill="none" stroke="currentColor" stroke-width="5"/>
  <line id="Line_46" data-name="Line 46" x1="0.5" y2="79" transform="translate(3086 1232.5)" fill="none" stroke="currentColor" stroke-width="5"/>
  <line id="Line_47" data-name="Line 47" x1="0.5" y2="79" transform="translate(3086 1232.5)" fill="none" stroke="currentColor" stroke-width="5"/>
  <line id="Line_48" data-name="Line 48" x1="0.5" y2="79" transform="translate(3117 1229.5)" fill="none" stroke="currentColor" stroke-width="5"/>
  <line id="Line_49" data-name="Line 49" x1="0.5" y2="79" transform="translate(3147 1230.5)" fill="none" stroke="currentColor" stroke-width="5"/>
  <line id="Line_50" data-name="Line 50" x1="1" y2="62" transform="translate(3176 1249)" fill="none" stroke="currentColor" stroke-width="5"/>
  <line id="Line_51" data-name="Line 51" x1="0.5" y2="79" transform="translate(3059.5 1230.5)" fill="none" stroke="currentColor" stroke-width="5"/>
  <line id="Line_52" data-name="Line 52" y1="76" x2="119" transform="translate(2528.5 1311.5)" fill="none" stroke="currentColor" stroke-width="5"/>
  <line id="Line_53" data-name="Line 53" y1="85" x2="440" transform="translate(2063.5 1382.5)" fill="none" stroke="currentColor" stroke-width="5"/>
  <line id="Line_54" data-name="Line 54" y1="72" transform="translate(2528.5 1315.5)" fill="none" stroke="currentColor" stroke-width="5"/>
  <line id="Line_55" data-name="Line 55" y1="64" transform="translate(2438.5 1333.5)" fill="none" stroke="currentColor" stroke-width="5"/>
  <line id="Line_56" data-name="Line 56" y1="64" transform="translate(2354.5 1349.5)" fill="none" stroke="currentColor" stroke-width="5"/>
  <line id="Line_57" data-name="Line 57" y1="64" transform="translate(2270.5 1365.5)" fill="none" stroke="currentColor" stroke-width="5"/>
  <line id="Line_58" data-name="Line 58" y1="64" transform="translate(2186.5 1382.5)" fill="none" stroke="currentColor" stroke-width="5"/>
  <line id="Line_59" data-name="Line 59" y1="57" transform="translate(2102.5 1408.5)" fill="none" stroke="currentColor" stroke-width="5"/>
  <line id="Line_60" data-name="Line 60" y1="57" transform="translate(2017.5 1425)" fill="none" stroke="currentColor" stroke-width="5"/>
  <line id="Line_61" data-name="Line 61" y1="72" x2="51" transform="translate(2528.5 1315.5)" fill="none" stroke="currentColor" stroke-width="5"/>
  <line id="Line_62" data-name="Line 62" x1="90" y1="47" transform="translate(2438.5 1340.5)" fill="none" stroke="currentColor" stroke-width="5"/>
  <line id="Line_63" data-name="Line 63" y1="68" x2="84" transform="translate(2354.5 1340.5)" fill="none" stroke="currentColor" stroke-width="5"/>
  <line id="Line_64" data-name="Line 64" x1="84" y1="30" transform="translate(2270.5 1378.5)" fill="none" stroke="currentColor" stroke-width="5"/>
  <line id="Line_65" data-name="Line 65" y1="65" x2="84" transform="translate(2186.5 1378.5)" fill="none" stroke="currentColor" stroke-width="5"/>
  <line id="Line_66" data-name="Line 66" x1="84" y1="29" transform="translate(2102.5 1414.5)" fill="none" stroke="currentColor" stroke-width="5"/>
  <line id="Line_67" data-name="Line 67" y1="51" x2="85" transform="translate(2017.5 1414.5)" fill="none" stroke="currentColor" stroke-width="5"/>
  <line id="Line_68" data-name="Line 68" x2="109" y2="66" transform="translate(3174.5 1315.5)" fill="none" stroke="currentColor" stroke-width="5"/>
  <line id="Line_69" data-name="Line 69" x2="452" y2="86" transform="translate(3297.5 1381.5)" fill="none" stroke="currentColor" stroke-width="5"/>
  <line id="Line_70" data-name="Line 70" y2="70" transform="translate(3283.5 1311.5)" fill="none" stroke="currentColor" stroke-width="5"/>
  <line id="Line_71" data-name="Line 71" y2="66" transform="translate(3363.5 1327.5)" fill="none" stroke="currentColor" stroke-width="5"/>
  <line id="Line_72" data-name="Line 72" y2="66" transform="translate(3443.5 1345)" fill="none" stroke="currentColor" stroke-width="5"/>
  <line id="Line_73" data-name="Line 73" y2="66" transform="translate(3523.5 1360.5)" fill="none" stroke="currentColor" stroke-width="5"/>
  <line id="Line_74" data-name="Line 74" y2="63" transform="translate(3603.5 1378.5)" fill="none" stroke="currentColor" stroke-width="5"/>
  <line id="Line_75" data-name="Line 75" y2="58" transform="translate(3683.5 1396.5)" fill="none" stroke="currentColor" stroke-width="5"/>
  <line id="Line_76" data-name="Line 76" y2="58" transform="translate(3763.5 1412.5)" fill="none" stroke="currentColor" stroke-width="5"/>
  <line id="Line_77" data-name="Line 77" x2="47" y2="66" transform="translate(3236.5 1315.5)" fill="none" stroke="currentColor" stroke-width="5"/>
  <line id="Line_78" data-name="Line 78" x1="80" y2="46" transform="translate(3283.5 1335.5)" fill="none" stroke="currentColor" stroke-width="5"/>
  <line id="Line_79" data-name="Line 79" x2="80" y2="75" transform="translate(3363.5 1335.5)" fill="none" stroke="currentColor" stroke-width="5"/>
  <line id="Line_80" data-name="Line 80" x1="84" y2="42" transform="translate(3443.5 1368.5)" fill="none" stroke="currentColor" stroke-width="5"/>
  <line id="Line_81" data-name="Line 81" x2="80" y2="73" transform="translate(3523.5 1368.5)" fill="none" stroke="currentColor" stroke-width="5"/>
  <line id="Line_82" data-name="Line 82" x1="80" y2="36" transform="translate(3603.5 1405.5)" fill="none" stroke="currentColor" stroke-width="5"/>
  <line id="Line_83" data-name="Line 83" x2="80" y2="57" transform="translate(3683.5 1405.5)" fill="none" stroke="currentColor" stroke-width="5"/>
  <line id="Line_84" data-name="Line 84" x1="74" y2="28" transform="translate(3763.5 1434.5)" fill="none" stroke="currentColor" stroke-width="5"/>
  <line id="Line_85" data-name="Line 85" y2="33" transform="translate(3837.5 1434.5)" fill="none" stroke="currentColor" stroke-width="5"/>
  <line id="Line_86" data-name="Line 86" y2="51" transform="translate(2915.5 1178.5)" fill="none" stroke="currentColor" stroke-width="5"/>
  <rect id="Rectangle_36" data-name="Rectangle 36" width="39" height="25" transform="translate(2916 1179)" fill="currentColor"/>
</svg>
