<svg width="1826" height="713" viewBox="0 0 1826 690" fill="none" xmlns="http://www.w3.org/2000/svg">
<rect x="1618" y="303" width="24" height="410" rx="5" fill="currentColor"/>
<circle cx="1630" cy="265" r="12" fill="currentColor"/>
<path d="M1672.33 57.0385C1674.5 51.2922 1683.12 53.7623 1681.91 59.7853L1649.93 219.679C1649.58 221.426 1648.33 222.854 1646.65 223.43L1614.04 234.569C1610.04 235.936 1606.26 232.027 1607.75 228.071L1672.33 57.0385Z" fill="currentColor"/>
<path d="M1784.63 404.082C1788.47 408.88 1781.95 415.03 1777.38 410.922L1656.17 301.853C1654.85 300.661 1654.26 298.856 1654.62 297.113L1661.67 263.389C1662.54 259.249 1667.83 257.987 1670.47 261.29L1784.63 404.082Z" fill="currentColor"/>
<path d="M1425.57 318.102C1419.46 318.808 1417.71 310.018 1423.61 308.328L1580.38 263.446C1582.09 262.956 1583.93 263.413 1585.22 264.647L1610.06 288.516C1613.11 291.445 1611.37 296.602 1607.17 297.088L1425.57 318.102Z" fill="currentColor"/>
<rect x="1240" y="303" width="24" height="410" rx="5" fill="currentColor"/>
<circle cx="1252" cy="265" r="12" fill="currentColor"/>
<path d="M1294.33 57.0385C1296.5 51.2922 1305.12 53.7623 1303.91 59.7853L1271.93 219.679C1271.58 221.426 1270.33 222.854 1268.65 223.43L1236.04 234.569C1232.04 235.936 1228.26 232.027 1229.75 228.071L1294.33 57.0385Z" fill="currentColor"/>
<path d="M1406.63 404.082C1410.47 408.88 1403.95 415.03 1399.38 410.922L1278.17 301.853C1276.85 300.661 1276.26 298.856 1276.62 297.113L1283.67 263.389C1284.54 259.249 1289.83 257.987 1292.47 261.29L1406.63 404.082Z" fill="currentColor"/>
<path d="M1047.57 318.102C1041.46 318.808 1039.71 310.018 1045.61 308.328L1202.38 263.446C1204.09 262.956 1205.93 263.413 1207.22 264.647L1232.06 288.516C1235.11 291.445 1233.37 296.602 1229.17 297.088L1047.57 318.102Z" fill="currentColor"/>
<circle cx="915" cy="658" r="45" fill="currentColor"/>
<circle cx="797" cy="658" r="45" fill="currentColor"/>
<rect x="305" y="551" width="303" height="152" fill="currentColor"/>
<path d="M457 405L607.688 551.25H306.312L457 405Z" fill="currentColor"/>
<rect y="650" width="221" height="33" fill="currentColor"/>
<path d="M64 612L64 659.25H18.9667L64 612Z" fill="currentColor"/>
<rect x="64" y="612" width="54" height="38" fill="currentColor"/>
<circle cx="43.5" cy="682.5" r="20.5" fill="currentColor"/>
<circle cx="166.5" cy="681.5" r="20.5" fill="currentColor"/>
</svg>
